G04*
G04 #@! TF.GenerationSoftware,Altium Limited,Altium Designer,21.2.2 (38)*
G04*
G04 Layer_Color=16711935*
%FSLAX44Y44*%
%MOMM*%
G71*
G04*
G04 #@! TF.SameCoordinates,5FF3B01B-9308-42A9-B2BD-2142B56AF961*
G04*
G04*
G04 #@! TF.FilePolarity,Negative*
G04*
G01*
G75*
%ADD38C,3.0000*%
%ADD68C,1.7272*%
%ADD69C,2.7682*%
%ADD70C,2.2032*%
%ADD71C,0.6032*%
%ADD72C,1.8032*%
%ADD73C,3.2032*%
%ADD74C,0.5032*%
%ADD75C,1.2032*%
%ADD76C,0.8032*%
G04:AMPARAMS|DCode=77|XSize=2.2032mm|YSize=1.7032mm|CornerRadius=0.4766mm|HoleSize=0mm|Usage=FLASHONLY|Rotation=90.000|XOffset=0mm|YOffset=0mm|HoleType=Round|Shape=RoundedRectangle|*
%AMROUNDEDRECTD77*
21,1,2.2032,0.7500,0,0,90.0*
21,1,1.2500,1.7032,0,0,90.0*
1,1,0.9532,0.3750,0.6250*
1,1,0.9532,0.3750,-0.6250*
1,1,0.9532,-0.3750,-0.6250*
1,1,0.9532,-0.3750,0.6250*
%
%ADD77ROUNDEDRECTD77*%
D38*
X3180000Y1420000D02*
D03*
X1370000Y2570000D02*
D03*
D68*
X3210000Y2600000D02*
D03*
X1200000Y2600000D02*
D03*
X1660883Y1617236D02*
D03*
X1686283D02*
D03*
X1711682D02*
D03*
X1737083D02*
D03*
X2960895D02*
D03*
X2986295D02*
D03*
X3011695D02*
D03*
X3037095D02*
D03*
X2078707Y2401204D02*
D03*
X2053307D02*
D03*
X2027908D02*
D03*
X2002507D02*
D03*
D69*
X1493974Y1508370D02*
D03*
Y1600570D02*
D03*
X2793987Y1508370D02*
D03*
Y1600570D02*
D03*
X2245616Y2510070D02*
D03*
Y2417870D02*
D03*
D70*
X1538974Y1508370D02*
D03*
Y1600570D02*
D03*
X2838987Y1508370D02*
D03*
Y1600570D02*
D03*
X2200616Y2510070D02*
D03*
Y2417870D02*
D03*
D71*
X1533374Y1521470D02*
D03*
Y1587470D02*
D03*
X2833387Y1521470D02*
D03*
Y1587470D02*
D03*
X2206216Y2496970D02*
D03*
Y2430970D02*
D03*
D72*
X1762482Y1617236D02*
D03*
X1787883D02*
D03*
X3062495D02*
D03*
X3087895D02*
D03*
X1977108Y2401204D02*
D03*
X1951707D02*
D03*
D73*
X1541077Y2405470D02*
D03*
X2841089D02*
D03*
X2198513Y1612970D02*
D03*
D74*
X1853414Y1945658D02*
D03*
X1853161Y1938800D02*
D03*
X1852399Y1932196D02*
D03*
X1851077Y1925470D02*
D03*
X1850112Y1919242D02*
D03*
X1848076Y1912470D02*
D03*
X1235182Y1907136D02*
D03*
X1233147Y1913908D02*
D03*
X1231877Y1920766D02*
D03*
X1230861Y1927370D02*
D03*
X1230098Y1934990D02*
D03*
X1229845Y1942864D02*
D03*
X1369290Y2346470D02*
D03*
X1370560Y2310656D02*
D03*
X1369037Y2317768D02*
D03*
X1368275Y2324372D02*
D03*
X1368020Y2331230D02*
D03*
X1368275Y2339104D02*
D03*
X1713969Y2339358D02*
D03*
X1714223Y2331484D02*
D03*
X1713969Y2324626D02*
D03*
X1713206Y2318022D02*
D03*
X1711682Y2310910D02*
D03*
X1712953Y2346724D02*
D03*
X1528295Y1441920D02*
D03*
X1535914D02*
D03*
X1542827D02*
D03*
X1549630D02*
D03*
X1557251D02*
D03*
X1519659D02*
D03*
X3153427Y1945658D02*
D03*
X3153173Y1938800D02*
D03*
X3152411Y1932196D02*
D03*
X3151089Y1925470D02*
D03*
X3150125Y1919242D02*
D03*
X3148089Y1912470D02*
D03*
X2535195Y1907136D02*
D03*
X2533159Y1913908D02*
D03*
X2531889Y1920766D02*
D03*
X2530873Y1927370D02*
D03*
X2530111Y1934990D02*
D03*
X2529857Y1942864D02*
D03*
X2669303Y2346470D02*
D03*
X2670573Y2310656D02*
D03*
X2669049Y2317768D02*
D03*
X2668287Y2324372D02*
D03*
X2668033Y2331230D02*
D03*
X2668287Y2339104D02*
D03*
X3013981Y2339358D02*
D03*
X3014235Y2331484D02*
D03*
X3013981Y2324626D02*
D03*
X3013219Y2318022D02*
D03*
X3011695Y2310910D02*
D03*
X3012965Y2346724D02*
D03*
X2828307Y1441920D02*
D03*
X2835927D02*
D03*
X2842839D02*
D03*
X2849643D02*
D03*
X2857263D02*
D03*
X2819671D02*
D03*
X1886176Y2072782D02*
D03*
X1886429Y2079640D02*
D03*
X1887191Y2086244D02*
D03*
X1888513Y2092970D02*
D03*
X1889478Y2099198D02*
D03*
X1891514Y2105970D02*
D03*
X2504408Y2111304D02*
D03*
X2506443Y2104532D02*
D03*
X2507713Y2097674D02*
D03*
X2508730Y2091070D02*
D03*
X2509491Y2083450D02*
D03*
X2509745Y2075576D02*
D03*
X2370300Y1671970D02*
D03*
X2369030Y1707784D02*
D03*
X2370553Y1700672D02*
D03*
X2371315Y1694068D02*
D03*
X2371570Y1687210D02*
D03*
X2371315Y1679336D02*
D03*
X2025621Y1679082D02*
D03*
X2025367Y1686956D02*
D03*
X2025621Y1693814D02*
D03*
X2026384Y1700418D02*
D03*
X2027908Y1707530D02*
D03*
X2026638Y1671716D02*
D03*
X2211295Y2576520D02*
D03*
X2203676D02*
D03*
X2196763D02*
D03*
X2189960D02*
D03*
X2182339D02*
D03*
X2219931D02*
D03*
D75*
X1638076Y1683470D02*
D03*
X2938089D02*
D03*
X2101514Y2334970D02*
D03*
D76*
X1767932Y1875326D02*
D03*
X3067945D02*
D03*
X1971658Y2143114D02*
D03*
D77*
X1661176Y1744070D02*
D03*
X1711976Y1667870D02*
D03*
X1737377D02*
D03*
X1686577D02*
D03*
X1762776D02*
D03*
X1661176D02*
D03*
X1673876Y1769470D02*
D03*
X1750076D02*
D03*
X1724677D02*
D03*
X1711976Y1744070D02*
D03*
X1699276Y1769470D02*
D03*
X1686577Y1744070D02*
D03*
X1737377D02*
D03*
X2961189D02*
D03*
X3011989Y1667870D02*
D03*
X3037389D02*
D03*
X2986589D02*
D03*
X3062789D02*
D03*
X2961189D02*
D03*
X2973889Y1769470D02*
D03*
X3050089D02*
D03*
X3024689D02*
D03*
X3011989Y1744070D02*
D03*
X2999289Y1769470D02*
D03*
X2986589Y1744070D02*
D03*
X3037389D02*
D03*
X2078414Y2274370D02*
D03*
X2027614Y2350570D02*
D03*
X2002213D02*
D03*
X2053013D02*
D03*
X1976814D02*
D03*
X2078414D02*
D03*
X2065714Y2248970D02*
D03*
X1989514D02*
D03*
X2014913D02*
D03*
X2027614Y2274370D02*
D03*
X2040314Y2248970D02*
D03*
X2053013Y2274370D02*
D03*
X2002213D02*
D03*
M02*
