G04*
G04 #@! TF.GenerationSoftware,Altium Limited,Altium Designer,21.2.2 (38)*
G04*
G04 Layer_Color=16711935*
%FSLAX44Y44*%
%MOMM*%
G71*
G04*
G04 #@! TF.SameCoordinates,5FF3B01B-9308-42A9-B2BD-2142B56AF961*
G04*
G04*
G04 #@! TF.FilePolarity,Positive*
G04*
G01*
G75*
%ADD29C,1.0000*%
D29*
X1610076Y1613710D02*
X1617356Y1620989D01*
X1610076Y1444470D02*
Y1613710D01*
X1464077Y1444470D02*
X1610076D01*
X1450178Y1616203D02*
X1458344D01*
X1464077Y1610470D01*
Y1444470D02*
Y1610470D01*
X1181140Y1741437D02*
X1181167Y1740844D01*
X1181140Y1741437D02*
X1181197Y1741997D01*
X1181329Y1742520D01*
X1181531Y1743002D01*
X1182110Y1743826D01*
X1182873Y1744433D01*
X1183762Y1744789D01*
X1184234Y1744861D01*
X1184715Y1744857D01*
X1185197Y1744773D01*
X1185674Y1744604D01*
X1186136Y1744346D01*
X1186577Y1743994D01*
X1189536Y1741389D01*
X1192639Y1739013D01*
X1195874Y1736870D01*
X1199230Y1734966D01*
X1202696Y1733308D01*
X1206260Y1731900D01*
X1209910Y1730750D01*
X1213635Y1729862D01*
X1214558Y1729718D01*
X1215456Y1729713D01*
X1216321Y1729838D01*
X1217147Y1730083D01*
X1217925Y1730440D01*
X1218648Y1730898D01*
X1219308Y1731450D01*
X1219899Y1732085D01*
X1220412Y1732794D01*
X1220840Y1733569D01*
X1221176Y1734400D01*
X1221412Y1735278D01*
X1221541Y1736194D01*
X1221554Y1737138D01*
X1221445Y1738102D02*
X1221554Y1737138D01*
X1221207Y1739075D02*
X1221445Y1738102D01*
X1219374Y1743645D02*
X1221207Y1739075D01*
X1217705Y1748274D02*
X1219374Y1743645D01*
X1216201Y1752959D02*
X1217705Y1748274D01*
X1214862Y1757693D02*
X1216201Y1752959D01*
X1213688Y1762471D02*
X1214862Y1757693D01*
X1212680Y1767289D02*
X1213688Y1762471D01*
X1211839Y1772141D02*
X1212680Y1767289D01*
X1211166Y1777022D02*
X1211839Y1772141D01*
X1210661Y1781927D02*
X1211166Y1777022D01*
X1210324Y1786850D02*
X1210661Y1781927D01*
X1210157Y1791787D02*
X1210324Y1786850D01*
X1210157Y1791787D02*
X1210161Y1796733D01*
X1210334Y1801682D01*
X1210679Y1806628D01*
X1211196Y1811568D01*
X1211885Y1816496D01*
X1212250Y1817321D01*
X1212768Y1817988D01*
X1213406Y1818485D01*
X1214127Y1818803D01*
X1214897Y1818931D01*
X1215680Y1818858D01*
X1216442Y1818574D01*
X1217146Y1818068D01*
X1220060Y1815549D01*
X1223050Y1813187D01*
X1226110Y1810982D01*
X1229236Y1808934D01*
X1232422Y1807043D01*
X1235664Y1805309D01*
X1238958Y1803732D01*
X1242297Y1802314D01*
X1245678Y1801052D01*
X1249096Y1799949D01*
X1252546Y1799003D01*
X1256022Y1798215D01*
X1259521Y1797585D01*
X1263037Y1797113D01*
X1266566Y1796800D01*
X1270102Y1796644D01*
X1273641Y1796647D01*
X1277179Y1796809D01*
X1280709Y1797129D01*
X1284228Y1797608D01*
X1287731Y1798246D01*
X1291212Y1799043D01*
X1294668Y1799998D01*
X1298092Y1801113D01*
X1301481Y1802387D01*
X1304830Y1803821D01*
X1308133Y1805414D01*
X1311386Y1807166D01*
X1314584Y1809079D01*
X1317723Y1811151D01*
X1320796Y1813383D01*
X1323801Y1815774D01*
X1324357Y1816506D01*
X1324806Y1817284D01*
X1325150Y1818097D01*
X1325392Y1818937D01*
X1325535Y1819792D01*
X1325579Y1820652D01*
X1325529Y1821509D02*
X1325579Y1820652D01*
X1325385Y1822351D02*
X1325529Y1821509D01*
X1325151Y1823169D02*
X1325385Y1822351D01*
X1324828Y1823952D02*
X1325151Y1823169D01*
X1324420Y1824691D02*
X1324828Y1823952D01*
X1323928Y1825376D02*
X1324420Y1824691D01*
X1323354Y1825996D02*
X1323928Y1825376D01*
X1322702Y1826541D02*
X1323354Y1825996D01*
X1321972Y1827003D02*
X1322702Y1826541D01*
X1321169Y1827369D02*
X1321972Y1827003D01*
X1316141Y1828717D02*
X1321169Y1827369D01*
X1311214Y1830295D02*
X1316141Y1828717D01*
X1306392Y1832097D02*
X1311214Y1830295D01*
X1301681Y1834115D02*
X1306392Y1832097D01*
X1297084Y1836345D02*
X1301681Y1834115D01*
X1292605Y1838780D02*
X1297084Y1836345D01*
X1288250Y1841414D02*
X1292605Y1838780D01*
X1284021Y1844241D02*
X1288250Y1841414D01*
X1279925Y1847255D02*
X1284021Y1844241D01*
X1275964Y1850449D02*
X1279925Y1847255D01*
X1272144Y1853817D02*
X1275964Y1850449D01*
X1268468Y1857354D02*
X1272144Y1853817D01*
X1264942Y1861052D02*
X1268468Y1857354D01*
X1261569Y1864906D02*
X1264942Y1861052D01*
X1258353Y1868910D02*
X1261569Y1864906D01*
X1255300Y1873058D02*
X1258353Y1868910D01*
X1252413Y1877343D02*
X1255300Y1873058D01*
X1249696Y1881759D02*
X1252413Y1877343D01*
X1247155Y1886300D02*
X1249696Y1881759D01*
X1244793Y1890961D02*
X1247155Y1886300D01*
X1242615Y1895734D02*
X1244793Y1890961D01*
X1240625Y1900613D02*
X1242615Y1895734D01*
X1238828Y1905593D02*
X1240625Y1900613D01*
X1237227Y1910668D02*
X1238828Y1905593D01*
X1235828Y1915830D02*
X1237227Y1910668D01*
X1234633Y1921075D02*
X1235828Y1915830D01*
X1233649Y1926395D02*
X1234633Y1921075D01*
X1232879Y1931785D02*
X1233649Y1926395D01*
X1232327Y1937239D02*
X1232879Y1931785D01*
X1231999Y1942750D02*
X1232327Y1937239D01*
X1231897Y1948312D02*
X1231999Y1942750D01*
X1231897Y1948312D02*
X1232027Y1953919D01*
X1232216Y1954821D01*
X1232590Y1955602D01*
X1233118Y1956243D01*
X1233765Y1956725D01*
X1234499Y1957030D01*
X1235286Y1957137D01*
X1236092Y1957029D01*
X1236886Y1956685D01*
X1238454Y1955109D01*
X1240071Y1953601D01*
X1241737Y1952164D01*
X1243448Y1950797D01*
X1245202Y1949501D01*
X1246999Y1948280D01*
X1248835Y1947132D01*
X1250708Y1946059D01*
X1252617Y1945062D01*
X1254560Y1944142D01*
X1256534Y1943301D01*
X1258538Y1942539D01*
X1260569Y1941858D01*
X1262626Y1941258D01*
X1264707Y1940740D01*
X1266809Y1940306D01*
X1267705Y1940268D01*
X1268567Y1940355D01*
X1269389Y1940559D01*
X1270165Y1940872D01*
X1270889Y1941284D01*
X1271553Y1941787D01*
X1272153Y1942372D01*
X1272682Y1943030D01*
X1273133Y1943752D01*
X1273500Y1944531D01*
X1273778Y1945356D01*
X1273960Y1946219D01*
X1274039Y1947112D01*
X1274010Y1948025D02*
X1274039Y1947112D01*
X1273866Y1948950D02*
X1274010Y1948025D01*
X1273600Y1949878D02*
X1273866Y1948950D01*
X1271551Y1955040D02*
X1273600Y1949878D01*
X1269711Y1960274D02*
X1271551Y1955040D01*
X1268081Y1965573D02*
X1269711Y1960274D01*
X1266661Y1970930D02*
X1268081Y1965573D01*
X1265453Y1976338D02*
X1266661Y1970930D01*
X1264457Y1981788D02*
X1265453Y1976338D01*
X1263674Y1987274D02*
X1264457Y1981788D01*
X1263103Y1992789D02*
X1263674Y1987274D01*
X1262747Y1998324D02*
X1263103Y1992789D01*
X1262604Y2003873D02*
X1262747Y1998324D01*
X1262604Y2003873D02*
X1262676Y2009429D01*
X1262964Y2014983D01*
X1263468Y2020529D01*
X1264188Y2026059D01*
X1265126Y2031566D01*
X1266282Y2037042D01*
X1266540Y2037832D01*
X1266942Y2038508D01*
X1267464Y2039057D01*
X1268079Y2039466D01*
X1268760Y2039720D01*
X1269483Y2039807D01*
X1270221Y2039714D01*
X1270949Y2039427D01*
X1274477Y2037905D01*
X1278035Y2036571D01*
X1281619Y2035422D01*
X1285222Y2034458D01*
X1288839Y2033675D01*
X1292466Y2033073D01*
X1296098Y2032649D01*
X1299728Y2032402D01*
X1303352Y2032330D01*
X1306965Y2032431D01*
X1310561Y2032704D01*
X1314135Y2033146D01*
X1317683Y2033756D01*
X1321199Y2034532D01*
X1324678Y2035472D01*
X1328114Y2036574D01*
X1331503Y2037838D01*
X1334839Y2039259D01*
X1338118Y2040838D01*
X1341333Y2042572D01*
X1344480Y2044460D01*
X1347554Y2046499D01*
X1350549Y2048688D01*
X1353461Y2051025D01*
X1356283Y2053508D01*
X1359012Y2056136D01*
X1361642Y2058907D01*
X1364167Y2061818D01*
X1366582Y2064868D01*
X1368883Y2068056D01*
X1371064Y2071379D01*
X1373120Y2074836D01*
X1373506Y2076286D01*
X1373601Y2077742D01*
X1373423Y2079164D02*
X1373601Y2077742D01*
X1372991Y2080510D02*
X1373423Y2079164D01*
X1372322Y2081737D02*
X1372991Y2080510D01*
X1371434Y2082805D02*
X1372322Y2081737D01*
X1370347Y2083672D02*
X1371434Y2082805D01*
X1369734Y2084017D02*
X1370347Y2083672D01*
X1369078Y2084297D02*
X1369734Y2084017D01*
X1365566Y2085341D02*
X1369078Y2084297D01*
X1362122Y2086535D02*
X1365566Y2085341D01*
X1358749Y2087874D02*
X1362122Y2086535D01*
X1355448Y2089355D02*
X1358749Y2087874D01*
X1352223Y2090975D02*
X1355448Y2089355D01*
X1349077Y2092728D02*
X1352223Y2090975D01*
X1346012Y2094613D02*
X1349077Y2092728D01*
X1343030Y2096624D02*
X1346012Y2094613D01*
X1340136Y2098759D02*
X1343030Y2096624D01*
X1337331Y2101013D02*
X1340136Y2098759D01*
X1334618Y2103383D02*
X1337331Y2101013D01*
X1332000Y2105865D02*
X1334618Y2103383D01*
X1329480Y2108455D02*
X1332000Y2105865D01*
X1327061Y2111150D02*
X1329480Y2108455D01*
X1324744Y2113946D02*
X1327061Y2111150D01*
X1322534Y2116839D02*
X1324744Y2113946D01*
X1320432Y2119825D02*
X1322534Y2116839D01*
X1318442Y2122901D02*
X1320432Y2119825D01*
X1316566Y2126062D02*
X1318442Y2122901D01*
X1314806Y2129306D02*
X1316566Y2126062D01*
X1313167Y2132629D02*
X1314806Y2129306D01*
X1311650Y2136026D02*
X1313167Y2132629D01*
X1310258Y2139494D02*
X1311650Y2136026D01*
X1308994Y2143029D02*
X1310258Y2139494D01*
X1307860Y2146628D02*
X1308994Y2143029D01*
X1306860Y2150287D02*
X1307860Y2146628D01*
X1305996Y2154002D02*
X1306860Y2150287D01*
X1305271Y2157769D02*
X1305996Y2154002D01*
X1304688Y2161584D02*
X1305271Y2157769D01*
X1304249Y2165445D02*
X1304688Y2161584D01*
X1303957Y2169347D02*
X1304249Y2165445D01*
X1303815Y2173286D02*
X1303957Y2169347D01*
X1303815Y2173286D02*
X1304109Y2174211D01*
X1304594Y2174973D01*
X1305227Y2175558D01*
X1305969Y2175950D01*
X1306776Y2176134D01*
X1307608Y2176093D01*
X1308423Y2175813D01*
X1309180Y2175278D01*
X1311628Y2173780D01*
X1314134Y2172410D01*
X1316694Y2171169D01*
X1319304Y2170061D01*
X1321959Y2169087D01*
X1324654Y2168248D01*
X1327386Y2167547D01*
X1330151Y2166984D01*
X1331250Y2166982D01*
X1332281Y2167158D01*
X1333236Y2167497D01*
X1334108Y2167981D01*
X1334890Y2168593D01*
X1335574Y2169317D01*
X1336152Y2170137D01*
X1336619Y2171034D01*
X1336965Y2171992D01*
X1337184Y2172995D01*
X1337269Y2174025D01*
X1337212Y2175067D02*
X1337269Y2174025D01*
X1337005Y2176101D02*
X1337212Y2175067D01*
X1336642Y2177113D02*
X1337005Y2176101D01*
X1336116Y2178086D02*
X1336642Y2177113D01*
X1335418Y2179001D02*
X1336116Y2178086D01*
X1334008Y2180582D02*
X1335418Y2179001D01*
X1332661Y2182209D02*
X1334008Y2180582D01*
X1331377Y2183880D02*
X1332661Y2182209D01*
X1330155Y2185594D02*
X1331377Y2183880D01*
X1327902Y2189140D02*
X1330155Y2185594D01*
X1325904Y2192830D02*
X1327902Y2189140D01*
X1324166Y2196649D02*
X1325904Y2192830D01*
X1322691Y2200579D02*
X1324166Y2196649D01*
X1321481Y2204605D02*
X1322691Y2200579D01*
X1320540Y2208709D02*
X1321481Y2204605D01*
X1319872Y2212875D02*
X1320540Y2208709D01*
X1319479Y2217088D02*
X1319872Y2212875D01*
X1319364Y2221329D02*
X1319479Y2217088D01*
X1319364Y2221329D02*
X1319532Y2225583D01*
X1319984Y2229834D01*
X1320725Y2234065D01*
X1321758Y2238259D01*
X1322384Y2240337D01*
X1323085Y2242400D01*
X1323524Y2242899D01*
X1324030Y2243286D01*
X1324584Y2243560D01*
X1325171Y2243718D01*
X1325776Y2243757D01*
X1326380Y2243674D01*
X1326969Y2243467D01*
X1327526Y2243133D01*
X1330134Y2240918D01*
X1332808Y2238843D01*
X1335544Y2236909D01*
X1338337Y2235116D01*
X1341183Y2233464D01*
X1344078Y2231953D01*
X1347017Y2230584D01*
X1349996Y2229355D01*
X1353011Y2228268D01*
X1356057Y2227321D01*
X1359130Y2226516D01*
X1362226Y2225852D01*
X1365340Y2225329D01*
X1368469Y2224948D01*
X1371607Y2224708D01*
X1374750Y2224609D01*
X1377895Y2224652D01*
X1381036Y2224836D01*
X1384170Y2225162D01*
X1387292Y2225629D01*
X1390397Y2226238D01*
X1393482Y2226989D01*
X1396543Y2227881D01*
X1399574Y2228915D01*
X1402571Y2230090D01*
X1405531Y2231408D01*
X1408448Y2232867D01*
X1411319Y2234467D01*
X1414139Y2236210D01*
X1416904Y2238095D01*
X1419610Y2240122D01*
X1422251Y2242290D01*
X1422876Y2242920D01*
X1423406Y2243609D01*
X1423840Y2244347D01*
X1424181Y2245125D01*
X1424428Y2245932D01*
X1424583Y2246759D01*
X1424647Y2247596D01*
X1424619Y2248434D02*
X1424647Y2247596D01*
X1424503Y2249263D02*
X1424619Y2248434D01*
X1424297Y2250073D02*
X1424503Y2249263D01*
X1424003Y2250855D02*
X1424297Y2250073D01*
X1423621Y2251598D02*
X1424003Y2250855D01*
X1423154Y2252294D02*
X1423621Y2251598D01*
X1422600Y2252933D02*
X1423154Y2252294D01*
X1421962Y2253504D02*
X1422600Y2252933D01*
X1421240Y2253999D02*
X1421962Y2253504D01*
X1417760Y2255395D02*
X1421240Y2253999D01*
X1414381Y2256957D02*
X1417760Y2255395D01*
X1411105Y2258680D02*
X1414381Y2256957D01*
X1407934Y2260558D02*
X1411105Y2258680D01*
X1404873Y2262586D02*
X1407934Y2260558D01*
X1401923Y2264757D02*
X1404873Y2262586D01*
X1399087Y2267066D02*
X1401923Y2264757D01*
X1396369Y2269508D02*
X1399087Y2267066D01*
X1393770Y2272076D02*
X1396369Y2269508D01*
X1391294Y2274764D02*
X1393770Y2272076D01*
X1388943Y2277568D02*
X1391294Y2274764D01*
X1386721Y2280480D02*
X1388943Y2277568D01*
X1384629Y2283496D02*
X1386721Y2280480D01*
X1382672Y2286610D02*
X1384629Y2283496D01*
X1380851Y2289816D02*
X1382672Y2286610D01*
X1379169Y2293108D02*
X1380851Y2289816D01*
X1377629Y2296480D02*
X1379169Y2293108D01*
X1376234Y2299927D02*
X1377629Y2296480D01*
X1374987Y2303443D02*
X1376234Y2299927D01*
X1373890Y2307023D02*
X1374987Y2303443D01*
X1372946Y2310660D02*
X1373890Y2307023D01*
X1372159Y2314348D02*
X1372946Y2310660D01*
X1371530Y2318083D02*
X1372159Y2314348D01*
X1371063Y2321858D02*
X1371530Y2318083D01*
X1370759Y2325667D02*
X1371063Y2321858D01*
X1370623Y2329505D02*
X1370759Y2325667D01*
X1370623Y2329505D02*
X1370657Y2333366D01*
X1370864Y2337245D01*
X1371246Y2341135D01*
X1371806Y2345030D01*
X1372547Y2348926D01*
X1373472Y2352816D01*
X1373915Y2353479D01*
X1374462Y2353997D01*
X1375089Y2354364D01*
X1375768Y2354575D01*
X1376473Y2354626D01*
X1377177Y2354511D01*
X1377855Y2354226D01*
X1378480Y2353766D01*
X1380972Y2352241D01*
X1383542Y2350977D01*
X1386174Y2349971D01*
X1388853Y2349223D01*
X1391563Y2348729D01*
X1394290Y2348488D01*
X1397018Y2348497D01*
X1399732Y2348754D01*
X1402417Y2349258D01*
X1405058Y2350006D01*
X1407639Y2350997D01*
X1410145Y2352227D01*
X1412561Y2353696D01*
X1414872Y2355400D01*
X1417062Y2357338D01*
X1419117Y2359508D01*
X1419840Y2360773D01*
X1420296Y2362123D01*
X1420492Y2363515D01*
X1420433Y2364909D02*
X1420492Y2363515D01*
X1420125Y2366261D02*
X1420433Y2364909D01*
X1419575Y2367531D02*
X1420125Y2366261D01*
X1418789Y2368674D02*
X1419575Y2367531D01*
X1417772Y2369651D02*
X1418789Y2368674D01*
X1416304Y2370491D02*
X1417772Y2369651D01*
X1414918Y2371442D02*
X1416304Y2370491D01*
X1413616Y2372498D02*
X1414918Y2371442D01*
X1412402Y2373651D02*
X1413616Y2372498D01*
X1411280Y2374895D02*
X1412402Y2373651D01*
X1410252Y2376223D02*
X1411280Y2374895D01*
X1409324Y2377628D02*
X1410252Y2376223D01*
X1408498Y2379104D02*
X1409324Y2377628D01*
X1407777Y2380643D02*
X1408498Y2379104D01*
X1407166Y2382238D02*
X1407777Y2380643D01*
X1406667Y2383884D02*
X1407166Y2382238D01*
X1406284Y2385572D02*
X1406667Y2383884D01*
X1406022Y2387297D02*
X1406284Y2385572D01*
X1405882Y2389051D02*
X1406022Y2387297D01*
X1405869Y2390828D02*
X1405882Y2389051D01*
X1405869Y2390828D02*
X1405987Y2392620D01*
X1406147Y2393263D01*
X1406407Y2393848D01*
X1406754Y2394366D01*
X1407177Y2394806D01*
X1407666Y2395157D01*
X1408207Y2395411D01*
X1408790Y2395556D01*
X1409403Y2395583D01*
X1413490Y2395503D01*
X1417545Y2395614D01*
X1421565Y2395912D01*
X1425544Y2396394D01*
X1429480Y2397057D01*
X1433367Y2397897D01*
X1437200Y2398910D01*
X1440977Y2400094D01*
X1444693Y2401445D01*
X1448343Y2402959D01*
X1451923Y2404634D01*
X1455429Y2406465D01*
X1458857Y2408450D01*
X1462202Y2410584D01*
X1465461Y2412865D01*
X1468628Y2415289D01*
X1471700Y2417853D01*
X1474672Y2420554D01*
X1477541Y2423387D01*
X1480301Y2426350D01*
X1482949Y2429439D01*
X1485480Y2432650D01*
X1487891Y2435981D01*
X1490176Y2439428D01*
X1492332Y2442988D01*
X1494355Y2446656D01*
X1496239Y2450431D01*
X1497981Y2454307D01*
X1499577Y2458283D01*
X1501022Y2462354D01*
X1502313Y2466517D01*
X1503444Y2470770D01*
X1506884Y2483755D01*
X1507019Y2484554D01*
X1507070Y2485356D01*
X1507036Y2486155D02*
X1507070Y2485356D01*
X1506921Y2486942D02*
X1507036Y2486155D01*
X1506724Y2487710D02*
X1506921Y2486942D01*
X1506449Y2488452D02*
X1506724Y2487710D01*
X1506096Y2489159D02*
X1506449Y2488452D01*
X1505667Y2489825D02*
X1506096Y2489159D01*
X1473537Y2520708D02*
X1505667Y2489825D01*
X1473055Y2521597D02*
X1473537Y2520708D01*
X1472839Y2522538D02*
X1473055Y2521597D01*
X1472839Y2522538D02*
X1472868Y2523480D01*
X1473120Y2524373D01*
X1473575Y2525167D01*
X1474211Y2525811D01*
X1475008Y2526256D01*
X1475460Y2526388D01*
X1475944Y2526452D01*
X1517781Y2531669D01*
X1518655Y2532333D01*
X1519413Y2533136D01*
X1520042Y2534061D01*
X1520527Y2535090D01*
X1533925Y2569988D01*
X1538230Y2582656D01*
X1538747Y2583537D01*
X1539433Y2584168D01*
X1540233Y2584549D01*
X1541090Y2584679D01*
X1541949Y2584558D01*
X1542752Y2584186D01*
X1543444Y2583562D01*
X1543730Y2583156D01*
X1543968Y2582686D01*
X1548370Y2569988D01*
X1561768Y2535090D01*
X1562254Y2534061D01*
X1562883Y2533136D01*
X1563641Y2532333D01*
X1564514Y2531669D01*
X1606776Y2526423D01*
X1607265Y2526311D01*
X1607713Y2526128D01*
X1608473Y2525584D01*
X1609041Y2524850D01*
X1609399Y2523984D01*
X1609532Y2523047D01*
X1609424Y2522097D02*
X1609532Y2523047D01*
X1609059Y2521193D02*
X1609424Y2522097D01*
X1608775Y2520777D02*
X1609059Y2521193D01*
X1608420Y2520394D02*
X1608775Y2520777D01*
X1576629Y2489825D02*
X1608420Y2520394D01*
X1576200Y2489159D02*
X1576629Y2489825D01*
X1575847Y2488452D02*
X1576200Y2489159D01*
X1575571Y2487710D02*
X1575847Y2488452D01*
X1575375Y2486942D02*
X1575571Y2487710D01*
X1575260Y2486155D02*
X1575375Y2486942D01*
X1575226Y2485356D02*
X1575260Y2486155D01*
X1575226Y2485356D02*
X1575276Y2484554D01*
X1575412Y2483755D01*
X1579687Y2467580D01*
X1580867Y2463458D01*
X1582199Y2459425D01*
X1583680Y2455483D01*
X1585304Y2451637D01*
X1587069Y2447889D01*
X1588969Y2444243D01*
X1591001Y2440701D01*
X1593161Y2437268D01*
X1595444Y2433945D01*
X1597847Y2430737D01*
X1600365Y2427646D01*
X1602993Y2424676D01*
X1605729Y2421830D01*
X1608568Y2419111D01*
X1611505Y2416523D01*
X1614538Y2414067D01*
X1617660Y2411749D01*
X1620869Y2409570D01*
X1624160Y2407535D01*
X1627529Y2405645D01*
X1630973Y2403905D01*
X1634486Y2402318D01*
X1638065Y2400887D01*
X1641705Y2399615D01*
X1645403Y2398504D01*
X1649155Y2397560D01*
X1652955Y2396784D01*
X1656801Y2396180D01*
X1660688Y2395750D01*
X1664612Y2395499D01*
X1668568Y2395430D01*
X1672553Y2395545D01*
X1673219Y2395585D01*
X1673860Y2395483D01*
X1674460Y2395251D01*
X1675004Y2394901D01*
X1675477Y2394444D01*
X1675863Y2393895D01*
X1676148Y2393264D01*
X1676316Y2392563D01*
X1676429Y2390774D01*
X1676412Y2389001D02*
X1676429Y2390774D01*
X1676269Y2387251D02*
X1676412Y2389001D01*
X1676004Y2385530D02*
X1676269Y2387251D01*
X1675619Y2383846D02*
X1676004Y2385530D01*
X1675119Y2382205D02*
X1675619Y2383846D01*
X1674506Y2380613D02*
X1675119Y2382205D01*
X1673785Y2379078D02*
X1674506Y2380613D01*
X1672959Y2377607D02*
X1673785Y2379078D01*
X1672031Y2376206D02*
X1672959Y2377607D01*
X1671005Y2374881D02*
X1672031Y2376206D01*
X1669884Y2373641D02*
X1671005Y2374881D01*
X1668672Y2372491D02*
X1669884Y2373641D01*
X1667372Y2371438D02*
X1668672Y2372491D01*
X1665988Y2370489D02*
X1667372Y2371438D01*
X1664524Y2369651D02*
X1665988Y2370489D01*
X1663507Y2368674D02*
X1664524Y2369651D01*
X1662721Y2367531D02*
X1663507Y2368674D01*
X1662171Y2366261D02*
X1662721Y2367531D01*
X1661863Y2364909D02*
X1662171Y2366261D01*
X1661804Y2363515D02*
X1661863Y2364909D01*
X1661804Y2363515D02*
X1661999Y2362123D01*
X1662456Y2360773D01*
X1663178Y2359508D01*
X1665280Y2357293D01*
X1667522Y2355320D01*
X1669889Y2353593D01*
X1672363Y2352112D01*
X1674930Y2350879D01*
X1677572Y2349898D01*
X1680273Y2349169D01*
X1683017Y2348694D01*
X1685789Y2348477D01*
X1688571Y2348518D01*
X1691347Y2348820D01*
X1694102Y2349384D01*
X1696820Y2350213D01*
X1699483Y2351308D01*
X1702076Y2352671D01*
X1704582Y2354306D01*
X1705213Y2354531D01*
X1705854Y2354613D01*
X1706486Y2354559D01*
X1707093Y2354376D01*
X1707656Y2354071D01*
X1708158Y2353653D01*
X1708582Y2353127D01*
X1708910Y2352501D01*
X1709818Y2348619D01*
X1710542Y2344731D01*
X1711087Y2340844D01*
X1711455Y2336963D01*
X1711649Y2333094D01*
X1711670Y2329243D01*
X1711523Y2325416D02*
X1711670Y2329243D01*
X1711210Y2321617D02*
X1711523Y2325416D01*
X1710733Y2317854D02*
X1711210Y2321617D01*
X1710096Y2314131D02*
X1710733Y2317854D01*
X1709301Y2310454D02*
X1710096Y2314131D01*
X1708351Y2306829D02*
X1709301Y2310454D01*
X1707249Y2303262D02*
X1708351Y2306829D01*
X1705998Y2299758D02*
X1707249Y2303262D01*
X1704599Y2296323D02*
X1705998Y2299758D01*
X1703057Y2292962D02*
X1704599Y2296323D01*
X1701373Y2289682D02*
X1703057Y2292962D01*
X1699551Y2286489D02*
X1701373Y2289682D01*
X1697594Y2283387D02*
X1699551Y2286489D01*
X1695503Y2280382D02*
X1697594Y2283387D01*
X1693282Y2277480D02*
X1695503Y2280382D01*
X1690934Y2274688D02*
X1693282Y2277480D01*
X1688462Y2272010D02*
X1690934Y2274688D01*
X1685867Y2269452D02*
X1688462Y2272010D01*
X1683153Y2267020D02*
X1685867Y2269452D01*
X1680323Y2264719D02*
X1683153Y2267020D01*
X1677380Y2262556D02*
X1680323Y2264719D01*
X1674325Y2260536D02*
X1677380Y2262556D01*
X1671163Y2258665D02*
X1674325Y2260536D01*
X1667895Y2256948D02*
X1671163Y2258665D01*
X1664525Y2255391D02*
X1667895Y2256948D01*
X1661055Y2253999D02*
X1664525Y2255391D01*
X1660334Y2253504D02*
X1661055Y2253999D01*
X1659695Y2252933D02*
X1660334Y2253504D01*
X1659142Y2252294D02*
X1659695Y2252933D01*
X1658674Y2251598D02*
X1659142Y2252294D01*
X1658293Y2250855D02*
X1658674Y2251598D01*
X1657999Y2250073D02*
X1658293Y2250855D01*
X1657793Y2249263D02*
X1657999Y2250073D01*
X1657676Y2248434D02*
X1657793Y2249263D01*
X1657649Y2247596D02*
X1657676Y2248434D01*
X1657649Y2247596D02*
X1657713Y2246759D01*
X1657867Y2245932D01*
X1658115Y2245125D01*
X1658455Y2244347D01*
X1658890Y2243609D01*
X1659419Y2242920D01*
X1660044Y2242290D01*
X1662693Y2240116D01*
X1665405Y2238085D01*
X1668177Y2236197D01*
X1671004Y2234451D01*
X1673882Y2232848D01*
X1676807Y2231388D01*
X1679774Y2230070D01*
X1682779Y2228894D01*
X1685817Y2227861D01*
X1688885Y2226970D01*
X1691977Y2226221D01*
X1695090Y2225614D01*
X1698220Y2225150D01*
X1701361Y2224828D01*
X1704509Y2224648D01*
X1707660Y2224610D01*
X1710811Y2224715D01*
X1713955Y2224961D01*
X1717090Y2225349D01*
X1720210Y2225879D01*
X1723311Y2226551D01*
X1726390Y2227364D01*
X1729441Y2228320D01*
X1732460Y2229417D01*
X1735443Y2230656D01*
X1738386Y2232036D01*
X1741284Y2233558D01*
X1744132Y2235222D01*
X1746927Y2237027D01*
X1749664Y2238974D01*
X1752339Y2241062D01*
X1754948Y2243291D01*
X1755504Y2243574D01*
X1756085Y2243736D01*
X1756674Y2243781D01*
X1757258Y2243712D01*
X1757821Y2243533D01*
X1758349Y2243246D01*
X1758828Y2242854D01*
X1759243Y2242362D01*
X1760565Y2238224D01*
X1761592Y2234034D01*
X1762328Y2229807D01*
X1762777Y2225560D01*
X1762941Y2221311D01*
X1762824Y2217074D02*
X1762941Y2221311D01*
X1762428Y2212866D02*
X1762824Y2217074D01*
X1761758Y2208704D02*
X1762428Y2212866D01*
X1760816Y2204604D02*
X1761758Y2208704D01*
X1759605Y2200582D02*
X1760816Y2204604D01*
X1758129Y2196656D02*
X1759605Y2200582D01*
X1756391Y2192841D02*
X1758129Y2196656D01*
X1754395Y2189153D02*
X1756391Y2192841D01*
X1752142Y2185609D02*
X1754395Y2189153D01*
X1750921Y2183896D02*
X1752142Y2185609D01*
X1749637Y2182225D02*
X1750921Y2183896D01*
X1748291Y2180599D02*
X1749637Y2182225D01*
X1746884Y2179019D02*
X1748291Y2180599D01*
X1746185Y2178100D02*
X1746884Y2179019D01*
X1745657Y2177125D02*
X1746185Y2178100D01*
X1745294Y2176111D02*
X1745657Y2177125D01*
X1745087Y2175074D02*
X1745294Y2176111D01*
X1745029Y2174031D02*
X1745087Y2175074D01*
X1745029Y2174031D02*
X1745114Y2172999D01*
X1745334Y2171995D01*
X1745681Y2171035D01*
X1746148Y2170137D01*
X1746729Y2169317D01*
X1747414Y2168591D01*
X1748198Y2167978D01*
X1749073Y2167493D01*
X1750032Y2167153D01*
X1751067Y2166976D01*
X1752171Y2166977D01*
X1755035Y2167558D01*
X1757861Y2168288D01*
X1760647Y2169165D01*
X1763386Y2170186D01*
X1766076Y2171350D01*
X1768711Y2172655D01*
X1771286Y2174098D01*
X1773799Y2175677D01*
X1774516Y2175979D01*
X1775248Y2176091D01*
X1775969Y2176024D01*
X1776653Y2175791D01*
X1777275Y2175404D01*
X1777809Y2174875D01*
X1778229Y2174217D01*
X1778510Y2173441D01*
X1778375Y2169495D02*
X1778510Y2173441D01*
X1778090Y2165585D02*
X1778375Y2169495D01*
X1777658Y2161717D02*
X1778090Y2165585D01*
X1777080Y2157893D02*
X1777658Y2161717D01*
X1776360Y2154118D02*
X1777080Y2157893D01*
X1775501Y2150396D02*
X1776360Y2154118D01*
X1774505Y2146729D02*
X1775501Y2150396D01*
X1773376Y2143122D02*
X1774505Y2146729D01*
X1772115Y2139579D02*
X1773376Y2143122D01*
X1770725Y2136103D02*
X1772115Y2139579D01*
X1769210Y2132698D02*
X1770725Y2136103D01*
X1767572Y2129368D02*
X1769210Y2132698D01*
X1765813Y2126116D02*
X1767572Y2129368D01*
X1763938Y2122947D02*
X1765813Y2126116D01*
X1761947Y2119864D02*
X1763938Y2122947D01*
X1759845Y2116871D02*
X1761947Y2119864D01*
X1757633Y2113972D02*
X1759845Y2116871D01*
X1755315Y2111170D02*
X1757633Y2113972D01*
X1752894Y2108469D02*
X1755315Y2111170D01*
X1750371Y2105873D02*
X1752894Y2108469D01*
X1747751Y2103385D02*
X1750371Y2105873D01*
X1745034Y2101010D02*
X1747751Y2103385D01*
X1742225Y2098752D02*
X1745034Y2101010D01*
X1739327Y2096613D02*
X1742225Y2098752D01*
X1736341Y2094598D02*
X1739327Y2096613D01*
X1733271Y2092710D02*
X1736341Y2094598D01*
X1730119Y2090954D02*
X1733271Y2092710D01*
X1726888Y2089332D02*
X1730119Y2090954D01*
X1723581Y2087849D02*
X1726888Y2089332D01*
X1720201Y2086509D02*
X1723581Y2087849D01*
X1716750Y2085315D02*
X1720201Y2086509D01*
X1713231Y2084271D02*
X1716750Y2085315D01*
X1712572Y2083996D02*
X1713231Y2084271D01*
X1711957Y2083655D02*
X1712572Y2083996D01*
X1710867Y2082794D02*
X1711957Y2083655D01*
X1709977Y2081731D02*
X1710867Y2082794D01*
X1709306Y2080507D02*
X1709977Y2081731D01*
X1708871Y2079165D02*
X1709306Y2080507D01*
X1708691Y2077745D02*
X1708871Y2079165D01*
X1708691Y2077745D02*
X1708784Y2076291D01*
X1708939Y2075563D01*
X1709168Y2074843D01*
X1711226Y2071382D01*
X1713409Y2068056D01*
X1715713Y2064865D01*
X1718132Y2061811D01*
X1720660Y2058898D01*
X1723294Y2056125D01*
X1726026Y2053495D01*
X1728853Y2051011D01*
X1731769Y2048673D01*
X1734769Y2046483D01*
X1737847Y2044444D01*
X1740999Y2042556D01*
X1744219Y2040823D01*
X1747503Y2039245D01*
X1750844Y2037824D01*
X1754238Y2036563D01*
X1757679Y2035463D01*
X1761163Y2034525D01*
X1764684Y2033752D01*
X1768237Y2033146D01*
X1771816Y2032707D01*
X1775417Y2032439D01*
X1779035Y2032342D01*
X1782663Y2032419D01*
X1786298Y2032672D01*
X1789933Y2033101D01*
X1793564Y2033710D01*
X1797185Y2034499D01*
X1800792Y2035470D01*
X1804378Y2036627D01*
X1807940Y2037969D01*
X1811470Y2039499D01*
X1812216Y2039750D01*
X1812963Y2039803D01*
X1813686Y2039675D01*
X1814359Y2039381D01*
X1814958Y2038935D01*
X1815455Y2038352D01*
X1815825Y2037647D01*
X1816042Y2036836D01*
X1817187Y2031371D01*
X1818115Y2025876D01*
X1818828Y2020357D01*
X1819324Y2014824D01*
X1819606Y2009282D01*
X1819673Y2003740D01*
X1819526Y1998203D02*
X1819673Y2003740D01*
X1819166Y1992681D02*
X1819526Y1998203D01*
X1818594Y1987180D02*
X1819166Y1992681D01*
X1817809Y1981707D02*
X1818594Y1987180D01*
X1816814Y1976270D02*
X1817809Y1981707D01*
X1815607Y1970876D02*
X1816814Y1976270D01*
X1814191Y1965532D02*
X1815607Y1970876D01*
X1812565Y1960246D02*
X1814191Y1965532D01*
X1810729Y1955024D02*
X1812565Y1960246D01*
X1808686Y1949875D02*
X1810729Y1955024D01*
X1808423Y1948948D02*
X1808686Y1949875D01*
X1808280Y1948023D02*
X1808423Y1948948D01*
X1808252Y1947110D02*
X1808280Y1948023D01*
X1808252Y1947110D02*
X1808333Y1946218D01*
X1808516Y1945355D01*
X1808795Y1944530D01*
X1809164Y1943751D01*
X1809617Y1943029D01*
X1810148Y1942370D01*
X1810750Y1941785D01*
X1811418Y1941281D01*
X1812144Y1940868D01*
X1812924Y1940555D01*
X1813750Y1940349D01*
X1814617Y1940261D01*
X1815519Y1940298D01*
X1817552Y1940713D01*
X1819564Y1941207D01*
X1821553Y1941777D01*
X1823519Y1942424D01*
X1825459Y1943145D01*
X1827372Y1943940D01*
X1829255Y1944809D01*
X1831107Y1945750D01*
X1832926Y1946762D01*
X1834711Y1947845D01*
X1836460Y1948997D01*
X1838170Y1950217D01*
X1839841Y1951505D01*
X1841470Y1952860D01*
X1843056Y1954280D01*
X1844596Y1955764D01*
X1844991Y1956176D01*
X1845419Y1956498D01*
X1845870Y1956733D01*
X1846339Y1956885D01*
X1846815Y1956957D01*
X1847293Y1956952D01*
X1848217Y1956725D01*
X1849046Y1956230D01*
X1849718Y1955495D01*
X1849975Y1955044D01*
X1850168Y1954543D01*
X1850290Y1953996D01*
X1850333Y1953404D01*
X1850441Y1947814D01*
X1850319Y1942270D02*
X1850441Y1947814D01*
X1849972Y1936778D02*
X1850319Y1942270D01*
X1849404Y1931343D02*
X1849972Y1936778D01*
X1848618Y1925973D02*
X1849404Y1931343D01*
X1847620Y1920672D02*
X1848618Y1925973D01*
X1846414Y1915447D02*
X1847620Y1920672D01*
X1845003Y1910305D02*
X1846414Y1915447D01*
X1843393Y1905251D02*
X1845003Y1910305D01*
X1841587Y1900291D02*
X1843393Y1905251D01*
X1839590Y1895432D02*
X1841587Y1900291D01*
X1837407Y1890679D02*
X1839590Y1895432D01*
X1835041Y1886038D02*
X1837407Y1890679D01*
X1832496Y1881517D02*
X1835041Y1886038D01*
X1829778Y1877120D02*
X1832496Y1881517D01*
X1826891Y1872854D02*
X1829778Y1877120D01*
X1823838Y1868725D02*
X1826891Y1872854D01*
X1820624Y1864740D02*
X1823838Y1868725D01*
X1817254Y1860903D02*
X1820624Y1864740D01*
X1813731Y1857221D02*
X1817254Y1860903D01*
X1810060Y1853701D02*
X1813731Y1857221D01*
X1806246Y1850349D02*
X1810060Y1853701D01*
X1802292Y1847170D02*
X1806246Y1850349D01*
X1798203Y1844170D02*
X1802292Y1847170D01*
X1793984Y1841356D02*
X1798203Y1844170D01*
X1789638Y1838734D02*
X1793984Y1841356D01*
X1785170Y1836310D02*
X1789638Y1838734D01*
X1780583Y1834090D02*
X1785170Y1836310D01*
X1775884Y1832080D02*
X1780583Y1834090D01*
X1771075Y1830286D02*
X1775884Y1832080D01*
X1766162Y1828714D02*
X1771075Y1830286D01*
X1761148Y1827370D02*
X1766162Y1828714D01*
X1760341Y1827004D02*
X1761148Y1827370D01*
X1759608Y1826542D02*
X1760341Y1827004D01*
X1758953Y1825997D02*
X1759608Y1826542D01*
X1758378Y1825376D02*
X1758953Y1825997D01*
X1757885Y1824692D02*
X1758378Y1825376D01*
X1757476Y1823953D02*
X1757885Y1824692D01*
X1757153Y1823171D02*
X1757476Y1823953D01*
X1756920Y1822354D02*
X1757153Y1823171D01*
X1756779Y1821513D02*
X1756920Y1822354D01*
X1756732Y1820658D02*
X1756779Y1821513D01*
X1756732Y1820658D02*
X1756780Y1819798D01*
X1756928Y1818946D01*
X1757177Y1818109D01*
X1757529Y1817298D01*
X1757986Y1816524D01*
X1758553Y1815796D01*
X1761555Y1813411D01*
X1764626Y1811186D01*
X1767761Y1809120D01*
X1770956Y1807212D01*
X1774205Y1805463D01*
X1777504Y1803873D01*
X1780847Y1802442D01*
X1784231Y1801169D01*
X1787650Y1800055D01*
X1791100Y1799099D01*
X1794576Y1798301D01*
X1798073Y1797661D01*
X1801586Y1797179D01*
X1805110Y1796856D01*
X1808641Y1796690D01*
X1812174Y1796682D01*
X1815705Y1796831D01*
X1819227Y1797139D01*
X1822738Y1797603D01*
X1826231Y1798225D01*
X1829702Y1799005D01*
X1833146Y1799941D01*
X1836559Y1801035D01*
X1839936Y1802286D01*
X1843271Y1803694D01*
X1846561Y1805258D01*
X1849800Y1806980D01*
X1852984Y1808858D01*
X1856107Y1810892D01*
X1859166Y1813083D01*
X1862155Y1815431D01*
X1865069Y1817934D01*
X1865823Y1818510D01*
X1866644Y1818822D01*
X1867490Y1818887D01*
X1868315Y1818719D01*
X1869075Y1818335D01*
X1869727Y1817749D01*
X1870226Y1816977D01*
X1870528Y1816034D01*
X1871198Y1811133D01*
X1871696Y1806222D01*
X1872025Y1801304D01*
X1872185Y1796384D01*
X1872176Y1791468D02*
X1872185Y1796384D01*
X1871999Y1786561D02*
X1872176Y1791468D01*
X1871654Y1781667D02*
X1871999Y1786561D01*
X1871142Y1776793D02*
X1871654Y1781667D01*
X1870464Y1771942D02*
X1871142Y1776793D01*
X1869621Y1767120D02*
X1870464Y1771942D01*
X1868612Y1762332D02*
X1869621Y1767120D01*
X1867439Y1757583D02*
X1868612Y1762332D01*
X1866101Y1752879D02*
X1867439Y1757583D01*
X1864600Y1748223D02*
X1866101Y1752879D01*
X1862937Y1743622D02*
X1864600Y1748223D01*
X1861111Y1739079D02*
X1862937Y1743622D01*
X1860868Y1738103D02*
X1861111Y1739079D01*
X1860756Y1737138D02*
X1860868Y1738103D01*
X1860756Y1737138D02*
X1860767Y1736192D01*
X1860894Y1735274D01*
X1861129Y1734395D01*
X1861465Y1733562D01*
X1861893Y1732787D01*
X1862407Y1732076D01*
X1862999Y1731441D01*
X1863661Y1730889D01*
X1864386Y1730431D01*
X1865166Y1730075D01*
X1865994Y1729830D01*
X1866862Y1729707D01*
X1867763Y1729713D01*
X1868689Y1729859D01*
X1872361Y1730729D01*
X1875961Y1731854D01*
X1879476Y1733230D01*
X1882897Y1734850D01*
X1886212Y1736708D01*
X1889411Y1738801D01*
X1892482Y1741121D01*
X1895414Y1743663D01*
X1895839Y1744103D01*
X1896298Y1744439D01*
X1896782Y1744675D01*
X1897281Y1744816D01*
X1897787Y1744867D01*
X1898289Y1744833D01*
X1898779Y1744718D01*
X1899248Y1744526D01*
X1899686Y1744263D01*
X1900084Y1743933D01*
X1900433Y1743540D01*
X1900723Y1743089D01*
X1900946Y1742586D01*
X1901092Y1742034D01*
X1901153Y1741437D01*
X1901117Y1740802D02*
X1901153Y1741437D01*
X1900320Y1735082D02*
X1901117Y1740802D01*
X1899368Y1729442D02*
X1900320Y1735082D01*
X1898265Y1723883D02*
X1899368Y1729442D01*
X1897013Y1718406D02*
X1898265Y1723883D01*
X1895616Y1713014D02*
X1897013Y1718406D01*
X1894076Y1707707D02*
X1895616Y1713014D01*
X1892397Y1702489D02*
X1894076Y1707707D01*
X1890581Y1697359D02*
X1892397Y1702489D01*
X1888631Y1692321D02*
X1890581Y1697359D01*
X1886550Y1687376D02*
X1888631Y1692321D01*
X1884341Y1682525D02*
X1886550Y1687376D01*
X1882007Y1677769D02*
X1884341Y1682525D01*
X1879551Y1673112D02*
X1882007Y1677769D01*
X1876976Y1668554D02*
X1879551Y1673112D01*
X1874284Y1664097D02*
X1876976Y1668554D01*
X1871479Y1659742D02*
X1874284Y1664097D01*
X1868564Y1655492D02*
X1871479Y1659742D01*
X1865541Y1651348D02*
X1868564Y1655492D01*
X1862414Y1647311D02*
X1865541Y1651348D01*
X1859185Y1643384D02*
X1862414Y1647311D01*
X1855857Y1639568D02*
X1859185Y1643384D01*
X1852434Y1635864D02*
X1855857Y1639568D01*
X1848918Y1632275D02*
X1852434Y1635864D01*
X1845311Y1628802D02*
X1848918Y1632275D01*
X1841618Y1625446D02*
X1845311Y1628802D01*
X1837841Y1622210D02*
X1841618Y1625446D01*
X1833982Y1619095D02*
X1837841Y1622210D01*
X1830045Y1616102D02*
X1833982Y1619095D01*
X1826033Y1613233D02*
X1830045Y1616102D01*
X1821948Y1610491D02*
X1826033Y1613233D01*
X1817794Y1607876D02*
X1821948Y1610491D01*
X1813574Y1605391D02*
X1817794Y1607876D01*
X1809290Y1603037D02*
X1813574Y1605391D01*
X1804945Y1600815D02*
X1809290Y1603037D01*
X1800542Y1598727D02*
X1804945Y1600815D01*
X1796085Y1596776D02*
X1800542Y1598727D01*
X1791576Y1594962D02*
X1796085Y1596776D01*
X1787017Y1593287D02*
X1791576Y1594962D01*
X1782413Y1591753D02*
X1787017Y1593287D01*
X1777766Y1590362D02*
X1782413Y1591753D01*
X1773078Y1589115D02*
X1777766Y1590362D01*
X1768353Y1588015D02*
X1773078Y1589115D01*
X1763593Y1587061D02*
X1768353Y1588015D01*
X1758803Y1586258D02*
X1763593Y1587061D01*
X1753983Y1585605D02*
X1758803Y1586258D01*
X1749139Y1585104D02*
X1753983Y1585605D01*
X1744271Y1584758D02*
X1749139Y1585104D01*
X1739384Y1584568D02*
X1744271Y1584758D01*
X1734480Y1584535D02*
X1739384Y1584568D01*
X1729562Y1584662D02*
X1734480Y1584535D01*
X1724633Y1584950D02*
X1729562Y1584662D01*
X1719696Y1585400D02*
X1724633Y1584950D01*
X1714754Y1586015D02*
X1719696Y1585400D01*
X1709810Y1586795D02*
X1714754Y1586015D01*
X1704866Y1587743D02*
X1709810Y1586795D01*
X1699927Y1588860D02*
X1704866Y1587743D01*
X1694994Y1590148D02*
X1699927Y1588860D01*
X1690070Y1591609D02*
X1694994Y1590148D01*
X1685159Y1593244D02*
X1690070Y1591609D01*
X1680263Y1595055D02*
X1685159Y1593244D01*
X1675385Y1597044D02*
X1680263Y1595055D01*
X1670529Y1599211D02*
X1675385Y1597044D01*
X1665697Y1601560D02*
X1670529Y1599211D01*
X1660892Y1604091D02*
X1665697Y1601560D01*
X1653800Y1607435D02*
X1660892Y1604091D01*
X1646637Y1610568D02*
X1653800Y1607435D01*
X1639407Y1613492D02*
X1646637Y1610568D01*
X1632115Y1616203D02*
X1639407Y1613492D01*
X1624763Y1618703D02*
X1632115Y1616203D01*
X1617356Y1620989D02*
X1624763Y1618703D01*
X1442884Y1613491D02*
X1450178Y1616203D01*
X1435654Y1610568D02*
X1442884Y1613491D01*
X1428490Y1607434D02*
X1435654Y1610568D01*
X1421396Y1604090D02*
X1428490Y1607434D01*
X1416590Y1601559D02*
X1421396Y1604090D01*
X1411757Y1599210D02*
X1416590Y1601559D01*
X1406900Y1597042D02*
X1411757Y1599210D01*
X1402021Y1595053D02*
X1406900Y1597042D01*
X1397125Y1593242D02*
X1402021Y1595053D01*
X1392213Y1591606D02*
X1397125Y1593242D01*
X1387288Y1590146D02*
X1392213Y1591606D01*
X1382354Y1588857D02*
X1387288Y1590146D01*
X1377413Y1587740D02*
X1382354Y1588857D01*
X1372469Y1586792D02*
X1377413Y1587740D01*
X1367524Y1586012D02*
X1372469Y1586792D01*
X1362581Y1585397D02*
X1367524Y1586012D01*
X1357643Y1584947D02*
X1362581Y1585397D01*
X1352713Y1584660D02*
X1357643Y1584947D01*
X1347795Y1584534D02*
X1352713Y1584660D01*
X1342890Y1584566D02*
X1347795Y1584534D01*
X1338002Y1584757D02*
X1342890Y1584566D01*
X1333134Y1585103D02*
X1338002Y1584757D01*
X1328288Y1585604D02*
X1333134Y1585103D01*
X1323468Y1586258D02*
X1328288Y1585604D01*
X1318677Y1587062D02*
X1323468Y1586258D01*
X1313917Y1588016D02*
X1318677Y1587062D01*
X1309191Y1589117D02*
X1313917Y1588016D01*
X1304503Y1590365D02*
X1309191Y1589117D01*
X1299855Y1591756D02*
X1304503Y1590365D01*
X1295250Y1593291D02*
X1299855Y1591756D01*
X1290692Y1594966D02*
X1295250Y1593291D01*
X1286182Y1596781D02*
X1290692Y1594966D01*
X1281724Y1598733D02*
X1286182Y1596781D01*
X1277321Y1600821D02*
X1281724Y1598733D01*
X1272976Y1603044D02*
X1277321Y1600821D01*
X1268692Y1605399D02*
X1272976Y1603044D01*
X1264471Y1607886D02*
X1268692Y1605399D01*
X1260317Y1610501D02*
X1264471Y1607886D01*
X1256232Y1613244D02*
X1260317Y1610501D01*
X1252220Y1616114D02*
X1256232Y1613244D01*
X1248283Y1619107D02*
X1252220Y1616114D01*
X1244425Y1622224D02*
X1248283Y1619107D01*
X1240647Y1625461D02*
X1244425Y1622224D01*
X1236954Y1628817D02*
X1240647Y1625461D01*
X1233348Y1632292D02*
X1236954Y1628817D01*
X1229832Y1635882D02*
X1233348Y1632292D01*
X1226408Y1639587D02*
X1229832Y1635882D01*
X1223081Y1643404D02*
X1226408Y1639587D01*
X1219852Y1647332D02*
X1223081Y1643404D01*
X1216725Y1651370D02*
X1219852Y1647332D01*
X1213703Y1655515D02*
X1216725Y1651370D01*
X1210788Y1659766D02*
X1213703Y1655515D01*
X1207984Y1664122D02*
X1210788Y1659766D01*
X1205293Y1668580D02*
X1207984Y1664122D01*
X1202719Y1673139D02*
X1205293Y1668580D01*
X1200263Y1677798D02*
X1202719Y1673139D01*
X1197930Y1682554D02*
X1200263Y1677798D01*
X1195722Y1687407D02*
X1197930Y1682554D01*
X1193642Y1692354D02*
X1195722Y1687407D01*
X1191693Y1697393D02*
X1193642Y1692354D01*
X1189878Y1702523D02*
X1191693Y1697393D01*
X1188200Y1707743D02*
X1189878Y1702523D01*
X1186661Y1713050D02*
X1188200Y1707743D01*
X1185266Y1718444D02*
X1186661Y1713050D01*
X1184015Y1723922D02*
X1185266Y1718444D01*
X1182913Y1729482D02*
X1184015Y1723922D01*
X1181963Y1735123D02*
X1182913Y1729482D01*
X1181167Y1740844D02*
X1181963Y1735123D01*
X2910089Y1613710D02*
X2917369Y1620989D01*
X2910089Y1444470D02*
Y1613710D01*
X2764089Y1444470D02*
X2910089D01*
X2750191Y1616203D02*
X2758356D01*
X2764089Y1610470D01*
Y1444470D02*
Y1610470D01*
X2481153Y1741437D02*
X2481180Y1740844D01*
X2481153Y1741437D02*
X2481209Y1741997D01*
X2481342Y1742520D01*
X2481543Y1743002D01*
X2482122Y1743826D01*
X2482886Y1744433D01*
X2483774Y1744789D01*
X2484247Y1744861D01*
X2484728Y1744857D01*
X2485210Y1744773D01*
X2485686Y1744604D01*
X2486148Y1744346D01*
X2486589Y1743994D01*
X2489548Y1741389D01*
X2492651Y1739013D01*
X2495887Y1736870D01*
X2499243Y1734966D01*
X2502709Y1733308D01*
X2506272Y1731900D01*
X2509922Y1730750D01*
X2513647Y1729862D01*
X2514570Y1729718D01*
X2515468Y1729713D01*
X2516334Y1729838D01*
X2517159Y1730083D01*
X2517937Y1730440D01*
X2518660Y1730898D01*
X2519321Y1731450D01*
X2519912Y1732085D01*
X2520425Y1732794D01*
X2520853Y1733569D01*
X2521189Y1734400D01*
X2521425Y1735278D01*
X2521553Y1736194D01*
X2521567Y1737138D01*
X2521458Y1738102D02*
X2521567Y1737138D01*
X2521219Y1739075D02*
X2521458Y1738102D01*
X2519387Y1743645D02*
X2521219Y1739075D01*
X2517718Y1748274D02*
X2519387Y1743645D01*
X2516214Y1752959D02*
X2517718Y1748274D01*
X2514874Y1757693D02*
X2516214Y1752959D01*
X2513700Y1762471D02*
X2514874Y1757693D01*
X2512693Y1767289D02*
X2513700Y1762471D01*
X2511852Y1772141D02*
X2512693Y1767289D01*
X2511179Y1777022D02*
X2511852Y1772141D01*
X2510674Y1781927D02*
X2511179Y1777022D01*
X2510337Y1786850D02*
X2510674Y1781927D01*
X2510170Y1791787D02*
X2510337Y1786850D01*
X2510170Y1791787D02*
X2510173Y1796733D01*
X2510347Y1801682D01*
X2510692Y1806628D01*
X2511208Y1811568D01*
X2511897Y1816496D01*
X2512262Y1817321D01*
X2512781Y1817988D01*
X2513419Y1818485D01*
X2514140Y1818803D01*
X2514910Y1818931D01*
X2515693Y1818858D01*
X2516454Y1818574D01*
X2517158Y1818068D01*
X2520073Y1815549D01*
X2523062Y1813187D01*
X2526122Y1810982D01*
X2529248Y1808934D01*
X2532435Y1807043D01*
X2535677Y1805309D01*
X2538970Y1803732D01*
X2542310Y1802314D01*
X2545691Y1801052D01*
X2549109Y1799949D01*
X2552558Y1799003D01*
X2556035Y1798215D01*
X2559534Y1797585D01*
X2563050Y1797113D01*
X2566578Y1796800D01*
X2570115Y1796644D01*
X2573654Y1796647D01*
X2577191Y1796809D01*
X2580722Y1797129D01*
X2584241Y1797608D01*
X2587744Y1798246D01*
X2591225Y1799043D01*
X2594680Y1799998D01*
X2598105Y1801113D01*
X2601494Y1802387D01*
X2604843Y1803821D01*
X2608146Y1805414D01*
X2611399Y1807166D01*
X2614597Y1809079D01*
X2617735Y1811151D01*
X2620809Y1813383D01*
X2623813Y1815774D01*
X2624369Y1816506D01*
X2624818Y1817284D01*
X2625163Y1818097D01*
X2625405Y1818937D01*
X2625547Y1819792D01*
X2625592Y1820652D01*
X2625541Y1821509D02*
X2625592Y1820652D01*
X2625398Y1822351D02*
X2625541Y1821509D01*
X2625164Y1823169D02*
X2625398Y1822351D01*
X2624841Y1823952D02*
X2625164Y1823169D01*
X2624432Y1824691D02*
X2624841Y1823952D01*
X2623940Y1825376D02*
X2624432Y1824691D01*
X2623367Y1825996D02*
X2623940Y1825376D01*
X2622714Y1826541D02*
X2623367Y1825996D01*
X2621985Y1827003D02*
X2622714Y1826541D01*
X2621182Y1827369D02*
X2621985Y1827003D01*
X2616153Y1828717D02*
X2621182Y1827369D01*
X2611226Y1830295D02*
X2616153Y1828717D01*
X2606405Y1832097D02*
X2611226Y1830295D01*
X2601693Y1834115D02*
X2606405Y1832097D01*
X2597096Y1836345D02*
X2601693Y1834115D01*
X2592618Y1838780D02*
X2597096Y1836345D01*
X2588262Y1841414D02*
X2592618Y1838780D01*
X2584034Y1844241D02*
X2588262Y1841414D01*
X2579937Y1847255D02*
X2584034Y1844241D01*
X2575977Y1850449D02*
X2579937Y1847255D01*
X2572156Y1853817D02*
X2575977Y1850449D01*
X2568481Y1857354D02*
X2572156Y1853817D01*
X2564955Y1861052D02*
X2568481Y1857354D01*
X2561581Y1864906D02*
X2564955Y1861052D01*
X2558366Y1868910D02*
X2561581Y1864906D01*
X2555312Y1873058D02*
X2558366Y1868910D01*
X2552425Y1877343D02*
X2555312Y1873058D01*
X2549709Y1881759D02*
X2552425Y1877343D01*
X2547168Y1886300D02*
X2549709Y1881759D01*
X2544806Y1890961D02*
X2547168Y1886300D01*
X2542628Y1895734D02*
X2544806Y1890961D01*
X2540638Y1900613D02*
X2542628Y1895734D01*
X2538840Y1905593D02*
X2540638Y1900613D01*
X2537240Y1910668D02*
X2538840Y1905593D01*
X2535840Y1915830D02*
X2537240Y1910668D01*
X2534646Y1921075D02*
X2535840Y1915830D01*
X2533662Y1926395D02*
X2534646Y1921075D01*
X2532892Y1931785D02*
X2533662Y1926395D01*
X2532340Y1937239D02*
X2532892Y1931785D01*
X2532011Y1942750D02*
X2532340Y1937239D01*
X2531910Y1948312D02*
X2532011Y1942750D01*
X2531910Y1948312D02*
X2532040Y1953919D01*
X2532228Y1954821D01*
X2532603Y1955602D01*
X2533130Y1956243D01*
X2533778Y1956725D01*
X2534512Y1957030D01*
X2535298Y1957137D01*
X2536105Y1957029D01*
X2536898Y1956685D01*
X2538466Y1955109D01*
X2540084Y1953601D01*
X2541749Y1952164D01*
X2543460Y1950797D01*
X2545215Y1949501D01*
X2547011Y1948280D01*
X2548847Y1947132D01*
X2550721Y1946059D01*
X2552630Y1945062D01*
X2554572Y1944142D01*
X2556546Y1943301D01*
X2558550Y1942539D01*
X2560582Y1941858D01*
X2562639Y1941258D01*
X2564720Y1940740D01*
X2566822Y1940306D01*
X2567718Y1940268D01*
X2568580Y1940355D01*
X2569402Y1940559D01*
X2570178Y1940872D01*
X2570901Y1941284D01*
X2571566Y1941787D01*
X2572166Y1942372D01*
X2572694Y1943030D01*
X2573145Y1943752D01*
X2573513Y1944531D01*
X2573791Y1945356D01*
X2573972Y1946219D01*
X2574052Y1947112D01*
X2574022Y1948025D02*
X2574052Y1947112D01*
X2573878Y1948950D02*
X2574022Y1948025D01*
X2573613Y1949878D02*
X2573878Y1948950D01*
X2571563Y1955040D02*
X2573613Y1949878D01*
X2569723Y1960274D02*
X2571563Y1955040D01*
X2568093Y1965573D02*
X2569723Y1960274D01*
X2566674Y1970930D02*
X2568093Y1965573D01*
X2565466Y1976338D02*
X2566674Y1970930D01*
X2564470Y1981788D02*
X2565466Y1976338D01*
X2563687Y1987274D02*
X2564470Y1981788D01*
X2563116Y1992789D02*
X2563687Y1987274D01*
X2562759Y1998324D02*
X2563116Y1992789D01*
X2562617Y2003873D02*
X2562759Y1998324D01*
X2562617Y2003873D02*
X2562689Y2009429D01*
X2562977Y2014983D01*
X2563481Y2020529D01*
X2564201Y2026059D01*
X2565139Y2031566D01*
X2566294Y2037042D01*
X2566552Y2037832D01*
X2566955Y2038508D01*
X2567477Y2039057D01*
X2568091Y2039466D01*
X2568773Y2039720D01*
X2569496Y2039807D01*
X2570234Y2039714D01*
X2570961Y2039427D01*
X2574489Y2037905D01*
X2578048Y2036571D01*
X2581631Y2035422D01*
X2585234Y2034458D01*
X2588852Y2033675D01*
X2592479Y2033073D01*
X2596110Y2032649D01*
X2599740Y2032402D01*
X2603364Y2032330D01*
X2606977Y2032431D01*
X2610573Y2032704D01*
X2614148Y2033146D01*
X2617696Y2033756D01*
X2621212Y2034532D01*
X2624691Y2035472D01*
X2628127Y2036574D01*
X2631516Y2037838D01*
X2634852Y2039259D01*
X2638130Y2040838D01*
X2641346Y2042572D01*
X2644492Y2044460D01*
X2647567Y2046499D01*
X2650562Y2048688D01*
X2653473Y2051025D01*
X2656296Y2053508D01*
X2659025Y2056136D01*
X2661654Y2058907D01*
X2664179Y2061818D01*
X2666595Y2064868D01*
X2668896Y2068056D01*
X2671076Y2071379D01*
X2673132Y2074836D01*
X2673519Y2076286D01*
X2673614Y2077742D01*
X2673436Y2079164D02*
X2673614Y2077742D01*
X2673003Y2080510D02*
X2673436Y2079164D01*
X2672334Y2081737D02*
X2673003Y2080510D01*
X2671447Y2082805D02*
X2672334Y2081737D01*
X2670359Y2083672D02*
X2671447Y2082805D01*
X2669746Y2084017D02*
X2670359Y2083672D01*
X2669090Y2084297D02*
X2669746Y2084017D01*
X2665579Y2085341D02*
X2669090Y2084297D01*
X2662135Y2086535D02*
X2665579Y2085341D01*
X2658761Y2087874D02*
X2662135Y2086535D01*
X2655461Y2089355D02*
X2658761Y2087874D01*
X2652236Y2090975D02*
X2655461Y2089355D01*
X2649089Y2092728D02*
X2652236Y2090975D01*
X2646024Y2094613D02*
X2649089Y2092728D01*
X2643043Y2096624D02*
X2646024Y2094613D01*
X2640149Y2098759D02*
X2643043Y2096624D01*
X2637344Y2101013D02*
X2640149Y2098759D01*
X2634631Y2103383D02*
X2637344Y2101013D01*
X2632013Y2105865D02*
X2634631Y2103383D01*
X2629493Y2108455D02*
X2632013Y2105865D01*
X2627073Y2111150D02*
X2629493Y2108455D01*
X2624757Y2113946D02*
X2627073Y2111150D01*
X2622546Y2116839D02*
X2624757Y2113946D01*
X2620445Y2119825D02*
X2622546Y2116839D01*
X2618454Y2122901D02*
X2620445Y2119825D01*
X2616578Y2126062D02*
X2618454Y2122901D01*
X2614819Y2129306D02*
X2616578Y2126062D01*
X2613179Y2132629D02*
X2614819Y2129306D01*
X2611662Y2136026D02*
X2613179Y2132629D01*
X2610270Y2139494D02*
X2611662Y2136026D01*
X2609006Y2143029D02*
X2610270Y2139494D01*
X2607873Y2146628D02*
X2609006Y2143029D01*
X2606873Y2150287D02*
X2607873Y2146628D01*
X2606009Y2154002D02*
X2606873Y2150287D01*
X2605284Y2157769D02*
X2606009Y2154002D01*
X2604700Y2161584D02*
X2605284Y2157769D01*
X2604261Y2165445D02*
X2604700Y2161584D01*
X2603969Y2169347D02*
X2604261Y2165445D01*
X2603828Y2173286D02*
X2603969Y2169347D01*
X2603828Y2173286D02*
X2604121Y2174211D01*
X2604606Y2174973D01*
X2605240Y2175558D01*
X2605981Y2175950D01*
X2606789Y2176134D01*
X2607621Y2176093D01*
X2608436Y2175813D01*
X2609192Y2175278D01*
X2611641Y2173780D01*
X2614147Y2172410D01*
X2616707Y2171169D01*
X2619317Y2170061D01*
X2621971Y2169087D01*
X2624667Y2168248D01*
X2627399Y2167547D01*
X2630163Y2166984D01*
X2631263Y2166982D01*
X2632294Y2167158D01*
X2633249Y2167497D01*
X2634121Y2167981D01*
X2634903Y2168593D01*
X2635587Y2169317D01*
X2636165Y2170137D01*
X2636631Y2171034D01*
X2636978Y2171992D01*
X2637197Y2172995D01*
X2637281Y2174025D01*
X2637224Y2175067D02*
X2637281Y2174025D01*
X2637018Y2176101D02*
X2637224Y2175067D01*
X2636655Y2177113D02*
X2637018Y2176101D01*
X2636128Y2178086D02*
X2636655Y2177113D01*
X2635430Y2179001D02*
X2636128Y2178086D01*
X2634021Y2180582D02*
X2635430Y2179001D01*
X2632674Y2182209D02*
X2634021Y2180582D01*
X2631389Y2183880D02*
X2632674Y2182209D01*
X2630168Y2185594D02*
X2631389Y2183880D01*
X2627914Y2189140D02*
X2630168Y2185594D01*
X2625917Y2192830D02*
X2627914Y2189140D01*
X2624179Y2196649D02*
X2625917Y2192830D01*
X2622703Y2200579D02*
X2624179Y2196649D01*
X2621494Y2204605D02*
X2622703Y2200579D01*
X2620553Y2208709D02*
X2621494Y2204605D01*
X2619884Y2212875D02*
X2620553Y2208709D01*
X2619491Y2217088D02*
X2619884Y2212875D01*
X2619377Y2221329D02*
X2619491Y2217088D01*
X2619377Y2221329D02*
X2619544Y2225583D01*
X2619997Y2229834D01*
X2620738Y2234065D01*
X2621770Y2238259D01*
X2622397Y2240337D01*
X2623098Y2242400D01*
X2623537Y2242899D01*
X2624042Y2243286D01*
X2624597Y2243560D01*
X2625184Y2243718D01*
X2625788Y2243757D01*
X2626393Y2243674D01*
X2626982Y2243467D01*
X2627538Y2243133D01*
X2630147Y2240918D01*
X2632821Y2238843D01*
X2635557Y2236909D01*
X2638350Y2235116D01*
X2641196Y2233464D01*
X2644090Y2231953D01*
X2647029Y2230584D01*
X2650009Y2229355D01*
X2653023Y2228268D01*
X2656070Y2227321D01*
X2659143Y2226516D01*
X2662238Y2225852D01*
X2665353Y2225329D01*
X2668481Y2224948D01*
X2671619Y2224708D01*
X2674763Y2224609D01*
X2677907Y2224652D01*
X2681049Y2224836D01*
X2684182Y2225162D01*
X2687304Y2225629D01*
X2690410Y2226238D01*
X2693495Y2226989D01*
X2696555Y2227881D01*
X2699586Y2228915D01*
X2702584Y2230090D01*
X2705543Y2231408D01*
X2708461Y2232867D01*
X2711332Y2234467D01*
X2714152Y2236210D01*
X2716917Y2238095D01*
X2719622Y2240122D01*
X2722264Y2242290D01*
X2722889Y2242920D01*
X2723419Y2243609D01*
X2723853Y2244347D01*
X2724193Y2245125D01*
X2724441Y2245932D01*
X2724596Y2246759D01*
X2724659Y2247596D01*
X2724632Y2248434D02*
X2724659Y2247596D01*
X2724515Y2249263D02*
X2724632Y2248434D01*
X2724309Y2250073D02*
X2724515Y2249263D01*
X2724015Y2250855D02*
X2724309Y2250073D01*
X2723634Y2251598D02*
X2724015Y2250855D01*
X2723166Y2252294D02*
X2723634Y2251598D01*
X2722613Y2252933D02*
X2723166Y2252294D01*
X2721975Y2253504D02*
X2722613Y2252933D01*
X2721253Y2253999D02*
X2721975Y2253504D01*
X2717773Y2255395D02*
X2721253Y2253999D01*
X2714394Y2256957D02*
X2717773Y2255395D01*
X2711117Y2258680D02*
X2714394Y2256957D01*
X2707947Y2260558D02*
X2711117Y2258680D01*
X2704885Y2262586D02*
X2707947Y2260558D01*
X2701935Y2264757D02*
X2704885Y2262586D01*
X2699100Y2267066D02*
X2701935Y2264757D01*
X2696381Y2269508D02*
X2699100Y2267066D01*
X2693782Y2272076D02*
X2696381Y2269508D01*
X2691306Y2274764D02*
X2693782Y2272076D01*
X2688956Y2277568D02*
X2691306Y2274764D01*
X2686733Y2280480D02*
X2688956Y2277568D01*
X2684642Y2283496D02*
X2686733Y2280480D01*
X2682684Y2286610D02*
X2684642Y2283496D01*
X2680863Y2289816D02*
X2682684Y2286610D01*
X2679181Y2293108D02*
X2680863Y2289816D01*
X2677642Y2296480D02*
X2679181Y2293108D01*
X2676247Y2299927D02*
X2677642Y2296480D01*
X2674999Y2303443D02*
X2676247Y2299927D01*
X2673903Y2307023D02*
X2674999Y2303443D01*
X2672959Y2310660D02*
X2673903Y2307023D01*
X2672171Y2314348D02*
X2672959Y2310660D01*
X2671542Y2318083D02*
X2672171Y2314348D01*
X2671075Y2321858D02*
X2671542Y2318083D01*
X2670772Y2325667D02*
X2671075Y2321858D01*
X2670636Y2329505D02*
X2670772Y2325667D01*
X2670636Y2329505D02*
X2670670Y2333366D01*
X2670876Y2337245D01*
X2671259Y2341135D01*
X2671819Y2345030D01*
X2672560Y2348926D01*
X2673484Y2352816D01*
X2673927Y2353479D01*
X2674475Y2353997D01*
X2675102Y2354364D01*
X2675781Y2354575D01*
X2676486Y2354626D01*
X2677190Y2354511D01*
X2677868Y2354226D01*
X2678493Y2353766D01*
X2680985Y2352241D01*
X2683555Y2350977D01*
X2686187Y2349971D01*
X2688865Y2349223D01*
X2691576Y2348729D01*
X2694302Y2348488D01*
X2697031Y2348497D01*
X2699745Y2348754D01*
X2702430Y2349258D01*
X2705070Y2350006D01*
X2707651Y2350997D01*
X2710157Y2352227D01*
X2712574Y2353696D01*
X2714885Y2355400D01*
X2717075Y2357338D01*
X2719130Y2359508D01*
X2719853Y2360773D01*
X2720309Y2362123D01*
X2720504Y2363515D01*
X2720445Y2364909D02*
X2720504Y2363515D01*
X2720138Y2366261D02*
X2720445Y2364909D01*
X2719587Y2367531D02*
X2720138Y2366261D01*
X2718801Y2368674D02*
X2719587Y2367531D01*
X2717785Y2369651D02*
X2718801Y2368674D01*
X2716317Y2370491D02*
X2717785Y2369651D01*
X2714930Y2371442D02*
X2716317Y2370491D01*
X2713629Y2372498D02*
X2714930Y2371442D01*
X2712415Y2373651D02*
X2713629Y2372498D01*
X2711292Y2374895D02*
X2712415Y2373651D01*
X2710265Y2376223D02*
X2711292Y2374895D01*
X2709337Y2377628D02*
X2710265Y2376223D01*
X2708510Y2379104D02*
X2709337Y2377628D01*
X2707790Y2380643D02*
X2708510Y2379104D01*
X2707178Y2382238D02*
X2707790Y2380643D01*
X2706679Y2383884D02*
X2707178Y2382238D01*
X2706297Y2385572D02*
X2706679Y2383884D01*
X2706034Y2387297D02*
X2706297Y2385572D01*
X2705895Y2389051D02*
X2706034Y2387297D01*
X2705882Y2390828D02*
X2705895Y2389051D01*
X2705882Y2390828D02*
X2706000Y2392620D01*
X2706160Y2393263D01*
X2706419Y2393848D01*
X2706766Y2394366D01*
X2707190Y2394806D01*
X2707678Y2395157D01*
X2708220Y2395411D01*
X2708802Y2395556D01*
X2709415Y2395583D01*
X2713503Y2395503D01*
X2717558Y2395614D01*
X2721577Y2395912D01*
X2725557Y2396394D01*
X2729492Y2397057D01*
X2733379Y2397897D01*
X2737213Y2398910D01*
X2740990Y2400094D01*
X2744706Y2401445D01*
X2748355Y2402959D01*
X2751936Y2404634D01*
X2755442Y2406465D01*
X2758870Y2408450D01*
X2762215Y2410584D01*
X2765473Y2412865D01*
X2768640Y2415289D01*
X2771712Y2417853D01*
X2774685Y2420554D01*
X2777553Y2423387D01*
X2780313Y2426350D01*
X2782961Y2429439D01*
X2785493Y2432650D01*
X2787903Y2435981D01*
X2790189Y2439428D01*
X2792345Y2442988D01*
X2794367Y2446656D01*
X2796252Y2450431D01*
X2797994Y2454307D01*
X2799590Y2458283D01*
X2801035Y2462354D01*
X2802325Y2466517D01*
X2803456Y2470770D01*
X2806897Y2483755D01*
X2807032Y2484554D01*
X2807082Y2485356D01*
X2807049Y2486155D02*
X2807082Y2485356D01*
X2806933Y2486942D02*
X2807049Y2486155D01*
X2806737Y2487710D02*
X2806933Y2486942D01*
X2806461Y2488452D02*
X2806737Y2487710D01*
X2806109Y2489159D02*
X2806461Y2488452D01*
X2805680Y2489825D02*
X2806109Y2489159D01*
X2773549Y2520708D02*
X2805680Y2489825D01*
X2773068Y2521597D02*
X2773549Y2520708D01*
X2772852Y2522538D02*
X2773068Y2521597D01*
X2772852Y2522538D02*
X2772880Y2523480D01*
X2773133Y2524373D01*
X2773587Y2525167D01*
X2774224Y2525811D01*
X2775021Y2526256D01*
X2775473Y2526388D01*
X2775957Y2526452D01*
X2817794Y2531669D01*
X2818668Y2532333D01*
X2819426Y2533136D01*
X2820054Y2534061D01*
X2820540Y2535090D01*
X2833938Y2569988D01*
X2838243Y2582656D01*
X2838759Y2583537D01*
X2839445Y2584168D01*
X2840245Y2584549D01*
X2841103Y2584679D01*
X2841961Y2584558D01*
X2842764Y2584186D01*
X2843456Y2583562D01*
X2843743Y2583156D01*
X2843981Y2582686D01*
X2848383Y2569988D01*
X2861781Y2535090D01*
X2862267Y2534061D01*
X2862895Y2533136D01*
X2863653Y2532333D01*
X2864527Y2531669D01*
X2906788Y2526423D01*
X2907278Y2526311D01*
X2907725Y2526128D01*
X2908486Y2525584D01*
X2909053Y2524850D01*
X2909412Y2523984D01*
X2909545Y2523047D01*
X2909437Y2522097D02*
X2909545Y2523047D01*
X2909072Y2521193D02*
X2909437Y2522097D01*
X2908788Y2520777D02*
X2909072Y2521193D01*
X2908433Y2520394D02*
X2908788Y2520777D01*
X2876641Y2489825D02*
X2908433Y2520394D01*
X2876212Y2489159D02*
X2876641Y2489825D01*
X2875859Y2488452D02*
X2876212Y2489159D01*
X2875584Y2487710D02*
X2875859Y2488452D01*
X2875388Y2486942D02*
X2875584Y2487710D01*
X2875272Y2486155D02*
X2875388Y2486942D01*
X2875239Y2485356D02*
X2875272Y2486155D01*
X2875239Y2485356D02*
X2875289Y2484554D01*
X2875424Y2483755D01*
X2879699Y2467580D01*
X2880879Y2463458D01*
X2882212Y2459425D01*
X2883692Y2455483D01*
X2885317Y2451637D01*
X2887081Y2447889D01*
X2888982Y2444243D01*
X2891014Y2440701D01*
X2893174Y2437268D01*
X2895457Y2433945D01*
X2897859Y2430737D01*
X2900377Y2427646D01*
X2903006Y2424676D01*
X2905742Y2421830D01*
X2908581Y2419111D01*
X2911518Y2416523D01*
X2914550Y2414067D01*
X2917673Y2411749D01*
X2920881Y2409570D01*
X2924173Y2407535D01*
X2927542Y2405645D01*
X2930985Y2403905D01*
X2934498Y2402318D01*
X2938077Y2400887D01*
X2941718Y2399615D01*
X2945416Y2398504D01*
X2949167Y2397560D01*
X2952968Y2396784D01*
X2956814Y2396180D01*
X2960700Y2395750D01*
X2964624Y2395499D01*
X2968581Y2395430D01*
X2972566Y2395545D01*
X2973232Y2395585D01*
X2973873Y2395483D01*
X2974472Y2395251D01*
X2975016Y2394901D01*
X2975489Y2394444D01*
X2975876Y2393895D01*
X2976160Y2393264D01*
X2976328Y2392563D01*
X2976441Y2390774D01*
X2976425Y2389001D02*
X2976441Y2390774D01*
X2976282Y2387251D02*
X2976425Y2389001D01*
X2976017Y2385530D02*
X2976282Y2387251D01*
X2975632Y2383846D02*
X2976017Y2385530D01*
X2975132Y2382205D02*
X2975632Y2383846D01*
X2974519Y2380613D02*
X2975132Y2382205D01*
X2973798Y2379078D02*
X2974519Y2380613D01*
X2972971Y2377607D02*
X2973798Y2379078D01*
X2972043Y2376206D02*
X2972971Y2377607D01*
X2971017Y2374881D02*
X2972043Y2376206D01*
X2969897Y2373641D02*
X2971017Y2374881D01*
X2968684Y2372491D02*
X2969897Y2373641D01*
X2967385Y2371438D02*
X2968684Y2372491D01*
X2966001Y2370489D02*
X2967385Y2371438D01*
X2964536Y2369651D02*
X2966001Y2370489D01*
X2963520Y2368674D02*
X2964536Y2369651D01*
X2962733Y2367531D02*
X2963520Y2368674D01*
X2962183Y2366261D02*
X2962733Y2367531D01*
X2961876Y2364909D02*
X2962183Y2366261D01*
X2961816Y2363515D02*
X2961876Y2364909D01*
X2961816Y2363515D02*
X2962012Y2362123D01*
X2962468Y2360773D01*
X2963191Y2359508D01*
X2965293Y2357293D01*
X2967535Y2355320D01*
X2969901Y2353593D01*
X2972376Y2352112D01*
X2974942Y2350879D01*
X2977584Y2349898D01*
X2980285Y2349169D01*
X2983030Y2348694D01*
X2985801Y2348477D01*
X2988583Y2348518D01*
X2991360Y2348820D01*
X2994115Y2349384D01*
X2996832Y2350213D01*
X2999495Y2351308D01*
X3002088Y2352671D01*
X3004595Y2354306D01*
X3005226Y2354531D01*
X3005867Y2354613D01*
X3006499Y2354559D01*
X3007105Y2354376D01*
X3007668Y2354071D01*
X3008170Y2353653D01*
X3008595Y2353127D01*
X3008923Y2352501D01*
X3009830Y2348619D01*
X3010555Y2344731D01*
X3011100Y2340844D01*
X3011468Y2336963D01*
X3011661Y2333094D01*
X3011683Y2329243D01*
X3011536Y2325416D02*
X3011683Y2329243D01*
X3011223Y2321617D02*
X3011536Y2325416D01*
X3010746Y2317854D02*
X3011223Y2321617D01*
X3010109Y2314131D02*
X3010746Y2317854D01*
X3009314Y2310454D02*
X3010109Y2314131D01*
X3008364Y2306829D02*
X3009314Y2310454D01*
X3007262Y2303262D02*
X3008364Y2306829D01*
X3006010Y2299758D02*
X3007262Y2303262D01*
X3004612Y2296323D02*
X3006010Y2299758D01*
X3003069Y2292962D02*
X3004612Y2296323D01*
X3001386Y2289682D02*
X3003069Y2292962D01*
X2999564Y2286489D02*
X3001386Y2289682D01*
X2997606Y2283387D02*
X2999564Y2286489D01*
X2995516Y2280382D02*
X2997606Y2283387D01*
X2993295Y2277480D02*
X2995516Y2280382D01*
X2990947Y2274688D02*
X2993295Y2277480D01*
X2988474Y2272010D02*
X2990947Y2274688D01*
X2985880Y2269452D02*
X2988474Y2272010D01*
X2983166Y2267020D02*
X2985880Y2269452D01*
X2980336Y2264719D02*
X2983166Y2267020D01*
X2977392Y2262556D02*
X2980336Y2264719D01*
X2974338Y2260536D02*
X2977392Y2262556D01*
X2971176Y2258665D02*
X2974338Y2260536D01*
X2967908Y2256948D02*
X2971176Y2258665D01*
X2964538Y2255391D02*
X2967908Y2256948D01*
X2961068Y2253999D02*
X2964538Y2255391D01*
X2960346Y2253504D02*
X2961068Y2253999D01*
X2959708Y2252933D02*
X2960346Y2253504D01*
X2959155Y2252294D02*
X2959708Y2252933D01*
X2958687Y2251598D02*
X2959155Y2252294D01*
X2958306Y2250855D02*
X2958687Y2251598D01*
X2958012Y2250073D02*
X2958306Y2250855D01*
X2957806Y2249263D02*
X2958012Y2250073D01*
X2957689Y2248434D02*
X2957806Y2249263D01*
X2957662Y2247596D02*
X2957689Y2248434D01*
X2957662Y2247596D02*
X2957725Y2246759D01*
X2957880Y2245932D01*
X2958127Y2245125D01*
X2958468Y2244347D01*
X2958902Y2243609D01*
X2959432Y2242920D01*
X2960057Y2242290D01*
X2962705Y2240116D01*
X2965417Y2238085D01*
X2968189Y2236197D01*
X2971016Y2234451D01*
X2973894Y2232848D01*
X2976819Y2231388D01*
X2979786Y2230070D01*
X2982791Y2228894D01*
X2985830Y2227861D01*
X2988897Y2226970D01*
X2991990Y2226221D01*
X2995103Y2225614D01*
X2998232Y2225150D01*
X3001373Y2224828D01*
X3004521Y2224648D01*
X3007673Y2224610D01*
X3010823Y2224715D01*
X3013968Y2224961D01*
X3017102Y2225349D01*
X3020222Y2225879D01*
X3023324Y2226551D01*
X3026402Y2227364D01*
X3029453Y2228320D01*
X3032473Y2229417D01*
X3035456Y2230656D01*
X3038398Y2232036D01*
X3041296Y2233558D01*
X3044145Y2235222D01*
X3046940Y2237027D01*
X3049677Y2238974D01*
X3052352Y2241062D01*
X3054960Y2243291D01*
X3055517Y2243574D01*
X3056097Y2243736D01*
X3056687Y2243781D01*
X3057270Y2243712D01*
X3057834Y2243533D01*
X3058362Y2243246D01*
X3058841Y2242854D01*
X3059255Y2242362D01*
X3060577Y2238224D01*
X3061605Y2234034D01*
X3062341Y2229807D01*
X3062790Y2225560D01*
X3062953Y2221311D01*
X3062836Y2217074D02*
X3062953Y2221311D01*
X3062441Y2212866D02*
X3062836Y2217074D01*
X3061770Y2208704D02*
X3062441Y2212866D01*
X3060828Y2204604D02*
X3061770Y2208704D01*
X3059618Y2200582D02*
X3060828Y2204604D01*
X3058142Y2196656D02*
X3059618Y2200582D01*
X3056404Y2192841D02*
X3058142Y2196656D01*
X3054407Y2189153D02*
X3056404Y2192841D01*
X3052155Y2185609D02*
X3054407Y2189153D01*
X3050934Y2183896D02*
X3052155Y2185609D01*
X3049650Y2182225D02*
X3050934Y2183896D01*
X3048304Y2180599D02*
X3049650Y2182225D01*
X3046896Y2179019D02*
X3048304Y2180599D01*
X3046197Y2178100D02*
X3046896Y2179019D01*
X3045670Y2177125D02*
X3046197Y2178100D01*
X3045306Y2176111D02*
X3045670Y2177125D01*
X3045099Y2175074D02*
X3045306Y2176111D01*
X3045042Y2174031D02*
X3045099Y2175074D01*
X3045042Y2174031D02*
X3045127Y2172999D01*
X3045346Y2171995D01*
X3045694Y2171035D01*
X3046161Y2170137D01*
X3046741Y2169317D01*
X3047427Y2168591D01*
X3048211Y2167978D01*
X3049086Y2167493D01*
X3050045Y2167153D01*
X3051080Y2166976D01*
X3052184Y2166977D01*
X3055047Y2167558D01*
X3057874Y2168288D01*
X3060659Y2169165D01*
X3063399Y2170186D01*
X3066088Y2171350D01*
X3068723Y2172655D01*
X3071299Y2174098D01*
X3073811Y2175677D01*
X3074528Y2175979D01*
X3075260Y2176091D01*
X3075981Y2176024D01*
X3076666Y2175791D01*
X3077288Y2175404D01*
X3077822Y2174875D01*
X3078242Y2174217D01*
X3078522Y2173441D01*
X3078388Y2169495D02*
X3078522Y2173441D01*
X3078103Y2165585D02*
X3078388Y2169495D01*
X3077670Y2161717D02*
X3078103Y2165585D01*
X3077093Y2157893D02*
X3077670Y2161717D01*
X3076373Y2154118D02*
X3077093Y2157893D01*
X3075514Y2150396D02*
X3076373Y2154118D01*
X3074518Y2146729D02*
X3075514Y2150396D01*
X3073388Y2143122D02*
X3074518Y2146729D01*
X3072127Y2139579D02*
X3073388Y2143122D01*
X3070738Y2136103D02*
X3072127Y2139579D01*
X3069222Y2132698D02*
X3070738Y2136103D01*
X3067584Y2129368D02*
X3069222Y2132698D01*
X3065826Y2126116D02*
X3067584Y2129368D01*
X3063950Y2122947D02*
X3065826Y2126116D01*
X3061960Y2119864D02*
X3063950Y2122947D01*
X3059857Y2116871D02*
X3061960Y2119864D01*
X3057646Y2113972D02*
X3059857Y2116871D01*
X3055328Y2111170D02*
X3057646Y2113972D01*
X3052906Y2108469D02*
X3055328Y2111170D01*
X3050384Y2105873D02*
X3052906Y2108469D01*
X3047763Y2103385D02*
X3050384Y2105873D01*
X3045047Y2101010D02*
X3047763Y2103385D01*
X3042238Y2098752D02*
X3045047Y2101010D01*
X3039339Y2096613D02*
X3042238Y2098752D01*
X3036353Y2094598D02*
X3039339Y2096613D01*
X3033283Y2092710D02*
X3036353Y2094598D01*
X3030131Y2090954D02*
X3033283Y2092710D01*
X3026901Y2089332D02*
X3030131Y2090954D01*
X3023593Y2087849D02*
X3026901Y2089332D01*
X3020213Y2086509D02*
X3023593Y2087849D01*
X3016762Y2085315D02*
X3020213Y2086509D01*
X3013243Y2084271D02*
X3016762Y2085315D01*
X3012585Y2083996D02*
X3013243Y2084271D01*
X3011970Y2083655D02*
X3012585Y2083996D01*
X3010879Y2082794D02*
X3011970Y2083655D01*
X3009989Y2081731D02*
X3010879Y2082794D01*
X3009318Y2080507D02*
X3009989Y2081731D01*
X3008884Y2079165D02*
X3009318Y2080507D01*
X3008704Y2077745D02*
X3008884Y2079165D01*
X3008704Y2077745D02*
X3008797Y2076291D01*
X3008951Y2075563D01*
X3009181Y2074843D01*
X3011238Y2071382D01*
X3013422Y2068056D01*
X3015726Y2064865D01*
X3018145Y2061811D01*
X3020673Y2058898D01*
X3023306Y2056125D01*
X3026039Y2053495D01*
X3028866Y2051011D01*
X3031782Y2048673D01*
X3034781Y2046483D01*
X3037860Y2044444D01*
X3041012Y2042556D01*
X3044232Y2040823D01*
X3047515Y2039245D01*
X3050856Y2037824D01*
X3054250Y2036563D01*
X3057692Y2035463D01*
X3061176Y2034525D01*
X3064696Y2033752D01*
X3068249Y2033146D01*
X3071829Y2032707D01*
X3075430Y2032439D01*
X3079047Y2032342D01*
X3082676Y2032419D01*
X3086310Y2032672D01*
X3089946Y2033101D01*
X3093576Y2033710D01*
X3097198Y2034499D01*
X3100804Y2035470D01*
X3104391Y2036627D01*
X3107952Y2037969D01*
X3111483Y2039499D01*
X3112228Y2039750D01*
X3112975Y2039803D01*
X3113698Y2039675D01*
X3114372Y2039381D01*
X3114970Y2038935D01*
X3115467Y2038352D01*
X3115837Y2037647D01*
X3116054Y2036836D01*
X3117200Y2031371D01*
X3118128Y2025876D01*
X3118840Y2020357D01*
X3119337Y2014824D01*
X3119618Y2009282D01*
X3119685Y2003740D01*
X3119539Y1998203D02*
X3119685Y2003740D01*
X3119179Y1992681D02*
X3119539Y1998203D01*
X3118606Y1987180D02*
X3119179Y1992681D01*
X3117822Y1981707D02*
X3118606Y1987180D01*
X3116826Y1976270D02*
X3117822Y1981707D01*
X3115620Y1970876D02*
X3116826Y1976270D01*
X3114203Y1965532D02*
X3115620Y1970876D01*
X3112577Y1960246D02*
X3114203Y1965532D01*
X3110742Y1955024D02*
X3112577Y1960246D01*
X3108699Y1949875D02*
X3110742Y1955024D01*
X3108435Y1948948D02*
X3108699Y1949875D01*
X3108293Y1948023D02*
X3108435Y1948948D01*
X3108264Y1947110D02*
X3108293Y1948023D01*
X3108264Y1947110D02*
X3108345Y1946218D01*
X3108528Y1945355D01*
X3108807Y1944530D01*
X3109177Y1943751D01*
X3109630Y1943029D01*
X3110160Y1942370D01*
X3110763Y1941785D01*
X3111430Y1941281D01*
X3112157Y1940868D01*
X3112936Y1940555D01*
X3113763Y1940349D01*
X3114630Y1940261D01*
X3115532Y1940298D01*
X3117564Y1940713D01*
X3119576Y1941207D01*
X3121566Y1941777D01*
X3123532Y1942424D01*
X3125472Y1943145D01*
X3127384Y1943940D01*
X3129268Y1944809D01*
X3131120Y1945750D01*
X3132939Y1946762D01*
X3134724Y1947845D01*
X3136472Y1948997D01*
X3138183Y1950217D01*
X3139853Y1951505D01*
X3141482Y1952860D01*
X3143068Y1954280D01*
X3144609Y1955764D01*
X3145004Y1956176D01*
X3145431Y1956498D01*
X3145883Y1956733D01*
X3146351Y1956885D01*
X3146828Y1956957D01*
X3147305Y1956952D01*
X3148229Y1956725D01*
X3149059Y1956230D01*
X3149731Y1955495D01*
X3149988Y1955044D01*
X3150181Y1954543D01*
X3150303Y1953996D01*
X3150345Y1953404D01*
X3150453Y1947814D01*
X3150332Y1942270D02*
X3150453Y1947814D01*
X3149985Y1936778D02*
X3150332Y1942270D01*
X3149416Y1931343D02*
X3149985Y1936778D01*
X3148631Y1925973D02*
X3149416Y1931343D01*
X3147633Y1920672D02*
X3148631Y1925973D01*
X3146426Y1915447D02*
X3147633Y1920672D01*
X3145016Y1910305D02*
X3146426Y1915447D01*
X3143405Y1905251D02*
X3145016Y1910305D01*
X3141600Y1900291D02*
X3143405Y1905251D01*
X3139603Y1895432D02*
X3141600Y1900291D01*
X3137419Y1890679D02*
X3139603Y1895432D01*
X3135053Y1886038D02*
X3137419Y1890679D01*
X3132509Y1881517D02*
X3135053Y1886038D01*
X3129791Y1877120D02*
X3132509Y1881517D01*
X3126903Y1872854D02*
X3129791Y1877120D01*
X3123850Y1868725D02*
X3126903Y1872854D01*
X3120637Y1864740D02*
X3123850Y1868725D01*
X3117266Y1860903D02*
X3120637Y1864740D01*
X3113743Y1857221D02*
X3117266Y1860903D01*
X3110073Y1853701D02*
X3113743Y1857221D01*
X3106258Y1850349D02*
X3110073Y1853701D01*
X3102304Y1847170D02*
X3106258Y1850349D01*
X3098216Y1844170D02*
X3102304Y1847170D01*
X3093996Y1841356D02*
X3098216Y1844170D01*
X3089650Y1838734D02*
X3093996Y1841356D01*
X3085182Y1836310D02*
X3089650Y1838734D01*
X3080596Y1834090D02*
X3085182Y1836310D01*
X3075897Y1832080D02*
X3080596Y1834090D01*
X3071088Y1830286D02*
X3075897Y1832080D01*
X3066175Y1828714D02*
X3071088Y1830286D01*
X3061161Y1827370D02*
X3066175Y1828714D01*
X3060353Y1827004D02*
X3061161Y1827370D01*
X3059621Y1826542D02*
X3060353Y1827004D01*
X3058966Y1825997D02*
X3059621Y1826542D01*
X3058391Y1825376D02*
X3058966Y1825997D01*
X3057897Y1824692D02*
X3058391Y1825376D01*
X3057488Y1823953D02*
X3057897Y1824692D01*
X3057166Y1823171D02*
X3057488Y1823953D01*
X3056933Y1822354D02*
X3057166Y1823171D01*
X3056791Y1821513D02*
X3056933Y1822354D01*
X3056744Y1820658D02*
X3056791Y1821513D01*
X3056744Y1820658D02*
X3056793Y1819798D01*
X3056940Y1818946D01*
X3057189Y1818109D01*
X3057541Y1817298D01*
X3057999Y1816524D01*
X3058565Y1815796D01*
X3061567Y1813411D01*
X3064639Y1811186D01*
X3067774Y1809120D01*
X3070969Y1807212D01*
X3074218Y1805463D01*
X3077516Y1803873D01*
X3080860Y1802442D01*
X3084244Y1801169D01*
X3087663Y1800055D01*
X3091113Y1799099D01*
X3094589Y1798301D01*
X3098085Y1797661D01*
X3101598Y1797179D01*
X3105123Y1796856D01*
X3108654Y1796690D01*
X3112187Y1796682D01*
X3115717Y1796831D01*
X3119240Y1797139D01*
X3122750Y1797603D01*
X3126243Y1798225D01*
X3129714Y1799005D01*
X3133159Y1799941D01*
X3136572Y1801035D01*
X3139948Y1802286D01*
X3143284Y1803694D01*
X3146573Y1805258D01*
X3149813Y1806980D01*
X3152997Y1808858D01*
X3156120Y1810892D01*
X3159178Y1813083D01*
X3162167Y1815431D01*
X3165082Y1817934D01*
X3165836Y1818510D01*
X3166657Y1818822D01*
X3167502Y1818887D01*
X3168327Y1818719D01*
X3169088Y1818335D01*
X3169740Y1817749D01*
X3170239Y1816977D01*
X3170541Y1816034D01*
X3171210Y1811133D01*
X3171709Y1806222D01*
X3172038Y1801304D01*
X3172198Y1796384D01*
X3172188Y1791468D02*
X3172198Y1796384D01*
X3172011Y1786561D02*
X3172188Y1791468D01*
X3171667Y1781667D02*
X3172011Y1786561D01*
X3171155Y1776793D02*
X3171667Y1781667D01*
X3170477Y1771942D02*
X3171155Y1776793D01*
X3169633Y1767120D02*
X3170477Y1771942D01*
X3168624Y1762332D02*
X3169633Y1767120D01*
X3167451Y1757583D02*
X3168624Y1762332D01*
X3166114Y1752879D02*
X3167451Y1757583D01*
X3164613Y1748223D02*
X3166114Y1752879D01*
X3162950Y1743622D02*
X3164613Y1748223D01*
X3161124Y1739079D02*
X3162950Y1743622D01*
X3160881Y1738103D02*
X3161124Y1739079D01*
X3160769Y1737138D02*
X3160881Y1738103D01*
X3160769Y1737138D02*
X3160780Y1736192D01*
X3160907Y1735274D01*
X3161142Y1734395D01*
X3161477Y1733562D01*
X3161906Y1732787D01*
X3162420Y1732076D01*
X3163011Y1731441D01*
X3163674Y1730889D01*
X3164399Y1730431D01*
X3165179Y1730075D01*
X3166007Y1729830D01*
X3166875Y1729707D01*
X3167776Y1729713D01*
X3168701Y1729859D01*
X3172374Y1730729D01*
X3175973Y1731854D01*
X3179489Y1733230D01*
X3182910Y1734850D01*
X3186225Y1736708D01*
X3189423Y1738801D01*
X3192494Y1741121D01*
X3195427Y1743663D01*
X3195852Y1744103D01*
X3196311Y1744439D01*
X3196794Y1744675D01*
X3197294Y1744816D01*
X3197799Y1744867D01*
X3198301Y1744833D01*
X3198792Y1744718D01*
X3199260Y1744526D01*
X3199698Y1744263D01*
X3200096Y1743933D01*
X3200445Y1743540D01*
X3200736Y1743089D01*
X3200959Y1742586D01*
X3201105Y1742034D01*
X3201165Y1741437D01*
X3201130Y1740802D02*
X3201165Y1741437D01*
X3200333Y1735082D02*
X3201130Y1740802D01*
X3199381Y1729442D02*
X3200333Y1735082D01*
X3198278Y1723883D02*
X3199381Y1729442D01*
X3197026Y1718406D02*
X3198278Y1723883D01*
X3195629Y1713014D02*
X3197026Y1718406D01*
X3194089Y1707707D02*
X3195629Y1713014D01*
X3192410Y1702489D02*
X3194089Y1707707D01*
X3190593Y1697359D02*
X3192410Y1702489D01*
X3188643Y1692321D02*
X3190593Y1697359D01*
X3186562Y1687376D02*
X3188643Y1692321D01*
X3184354Y1682525D02*
X3186562Y1687376D01*
X3182020Y1677769D02*
X3184354Y1682525D01*
X3179564Y1673112D02*
X3182020Y1677769D01*
X3176989Y1668554D02*
X3179564Y1673112D01*
X3174297Y1664097D02*
X3176989Y1668554D01*
X3171492Y1659742D02*
X3174297Y1664097D01*
X3168577Y1655492D02*
X3171492Y1659742D01*
X3165554Y1651348D02*
X3168577Y1655492D01*
X3162426Y1647311D02*
X3165554Y1651348D01*
X3159198Y1643384D02*
X3162426Y1647311D01*
X3155870Y1639568D02*
X3159198Y1643384D01*
X3152446Y1635864D02*
X3155870Y1639568D01*
X3148930Y1632275D02*
X3152446Y1635864D01*
X3145324Y1628802D02*
X3148930Y1632275D01*
X3141630Y1625446D02*
X3145324Y1628802D01*
X3137853Y1622210D02*
X3141630Y1625446D01*
X3133994Y1619095D02*
X3137853Y1622210D01*
X3130058Y1616102D02*
X3133994Y1619095D01*
X3126046Y1613233D02*
X3130058Y1616102D01*
X3121961Y1610491D02*
X3126046Y1613233D01*
X3117807Y1607876D02*
X3121961Y1610491D01*
X3113586Y1605391D02*
X3117807Y1607876D01*
X3109302Y1603037D02*
X3113586Y1605391D01*
X3104958Y1600815D02*
X3109302Y1603037D01*
X3100555Y1598727D02*
X3104958Y1600815D01*
X3096098Y1596776D02*
X3100555Y1598727D01*
X3091588Y1594962D02*
X3096098Y1596776D01*
X3087030Y1593287D02*
X3091588Y1594962D01*
X3082426Y1591753D02*
X3087030Y1593287D01*
X3077778Y1590362D02*
X3082426Y1591753D01*
X3073091Y1589115D02*
X3077778Y1590362D01*
X3068365Y1588015D02*
X3073091Y1589115D01*
X3063606Y1587061D02*
X3068365Y1588015D01*
X3058815Y1586258D02*
X3063606Y1587061D01*
X3053996Y1585605D02*
X3058815Y1586258D01*
X3049151Y1585104D02*
X3053996Y1585605D01*
X3044284Y1584758D02*
X3049151Y1585104D01*
X3039396Y1584568D02*
X3044284Y1584758D01*
X3034492Y1584535D02*
X3039396Y1584568D01*
X3029574Y1584662D02*
X3034492Y1584535D01*
X3024646Y1584950D02*
X3029574Y1584662D01*
X3019709Y1585400D02*
X3024646Y1584950D01*
X3014767Y1586015D02*
X3019709Y1585400D01*
X3009822Y1586795D02*
X3014767Y1586015D01*
X3004879Y1587743D02*
X3009822Y1586795D01*
X2999939Y1588860D02*
X3004879Y1587743D01*
X2995006Y1590148D02*
X2999939Y1588860D01*
X2990082Y1591609D02*
X2995006Y1590148D01*
X2985172Y1593244D02*
X2990082Y1591609D01*
X2980276Y1595055D02*
X2985172Y1593244D01*
X2975398Y1597044D02*
X2980276Y1595055D01*
X2970542Y1599211D02*
X2975398Y1597044D01*
X2965710Y1601560D02*
X2970542Y1599211D01*
X2960905Y1604091D02*
X2965710Y1601560D01*
X2953813Y1607435D02*
X2960905Y1604091D01*
X2946650Y1610568D02*
X2953813Y1607435D01*
X2939420Y1613492D02*
X2946650Y1610568D01*
X2932127Y1616203D02*
X2939420Y1613492D01*
X2924775Y1618703D02*
X2932127Y1616203D01*
X2917369Y1620989D02*
X2924775Y1618703D01*
X2742897Y1613491D02*
X2750191Y1616203D01*
X2735666Y1610568D02*
X2742897Y1613491D01*
X2728502Y1607434D02*
X2735666Y1610568D01*
X2721409Y1604090D02*
X2728502Y1607434D01*
X2716603Y1601559D02*
X2721409Y1604090D01*
X2711770Y1599210D02*
X2716603Y1601559D01*
X2706913Y1597042D02*
X2711770Y1599210D01*
X2702034Y1595053D02*
X2706913Y1597042D01*
X2697137Y1593242D02*
X2702034Y1595053D01*
X2692225Y1591606D02*
X2697137Y1593242D01*
X2687300Y1590146D02*
X2692225Y1591606D01*
X2682366Y1588857D02*
X2687300Y1590146D01*
X2677426Y1587740D02*
X2682366Y1588857D01*
X2672481Y1586792D02*
X2677426Y1587740D01*
X2667536Y1586012D02*
X2672481Y1586792D01*
X2662593Y1585397D02*
X2667536Y1586012D01*
X2657656Y1584947D02*
X2662593Y1585397D01*
X2652726Y1584660D02*
X2657656Y1584947D01*
X2647807Y1584534D02*
X2652726Y1584660D01*
X2642903Y1584566D02*
X2647807Y1584534D01*
X2638015Y1584757D02*
X2642903Y1584566D01*
X2633146Y1585103D02*
X2638015Y1584757D01*
X2628301Y1585604D02*
X2633146Y1585103D01*
X2623481Y1586258D02*
X2628301Y1585604D01*
X2618689Y1587062D02*
X2623481Y1586258D01*
X2613929Y1588016D02*
X2618689Y1587062D01*
X2609204Y1589117D02*
X2613929Y1588016D01*
X2604516Y1590365D02*
X2609204Y1589117D01*
X2599868Y1591756D02*
X2604516Y1590365D01*
X2595263Y1593291D02*
X2599868Y1591756D01*
X2590704Y1594966D02*
X2595263Y1593291D01*
X2586194Y1596781D02*
X2590704Y1594966D01*
X2581736Y1598733D02*
X2586194Y1596781D01*
X2577334Y1600821D02*
X2581736Y1598733D01*
X2572989Y1603044D02*
X2577334Y1600821D01*
X2568704Y1605399D02*
X2572989Y1603044D01*
X2564484Y1607886D02*
X2568704Y1605399D01*
X2560329Y1610501D02*
X2564484Y1607886D01*
X2556245Y1613244D02*
X2560329Y1610501D01*
X2552233Y1616114D02*
X2556245Y1613244D01*
X2548296Y1619107D02*
X2552233Y1616114D01*
X2544437Y1622224D02*
X2548296Y1619107D01*
X2540660Y1625461D02*
X2544437Y1622224D01*
X2536967Y1628817D02*
X2540660Y1625461D01*
X2533360Y1632292D02*
X2536967Y1628817D01*
X2529844Y1635882D02*
X2533360Y1632292D01*
X2526421Y1639587D02*
X2529844Y1635882D01*
X2523094Y1643404D02*
X2526421Y1639587D01*
X2519865Y1647332D02*
X2523094Y1643404D01*
X2516738Y1651370D02*
X2519865Y1647332D01*
X2513716Y1655515D02*
X2516738Y1651370D01*
X2510801Y1659766D02*
X2513716Y1655515D01*
X2507997Y1664122D02*
X2510801Y1659766D01*
X2505306Y1668580D02*
X2507997Y1664122D01*
X2502731Y1673139D02*
X2505306Y1668580D01*
X2500276Y1677798D02*
X2502731Y1673139D01*
X2497943Y1682554D02*
X2500276Y1677798D01*
X2495735Y1687407D02*
X2497943Y1682554D01*
X2493655Y1692354D02*
X2495735Y1687407D01*
X2491706Y1697393D02*
X2493655Y1692354D01*
X2489891Y1702523D02*
X2491706Y1697393D01*
X2488212Y1707743D02*
X2489891Y1702523D01*
X2486674Y1713050D02*
X2488212Y1707743D01*
X2485278Y1718444D02*
X2486674Y1713050D01*
X2484028Y1723922D02*
X2485278Y1718444D01*
X2482926Y1729482D02*
X2484028Y1723922D01*
X2481976Y1735123D02*
X2482926Y1729482D01*
X2481180Y1740844D02*
X2481976Y1735123D01*
X2129514Y2404731D02*
X2122234Y2397451D01*
X2129514Y2573970D02*
Y2404731D01*
X2275513Y2573970D02*
X2129514D01*
X2289412Y2402237D02*
X2281246D01*
X2275513Y2407970D01*
Y2573970D02*
Y2407970D01*
X2558450Y2277003D02*
X2558423Y2277596D01*
X2558450Y2277003D02*
X2558394Y2276443D01*
X2558261Y2275920D01*
X2558059Y2275438D01*
X2557480Y2274614D01*
X2556717Y2274007D01*
X2555828Y2273651D01*
X2555356Y2273579D01*
X2554875Y2273583D01*
X2554393Y2273667D01*
X2553916Y2273836D01*
X2553454Y2274094D01*
X2553013Y2274446D01*
X2550054Y2277051D01*
X2546951Y2279427D01*
X2543716Y2281571D01*
X2540359Y2283474D01*
X2536894Y2285132D01*
X2533330Y2286539D01*
X2529680Y2287690D01*
X2525955Y2288578D01*
X2525032Y2288722D01*
X2524134Y2288727D01*
X2523268Y2288602D01*
X2522443Y2288357D01*
X2521665Y2288000D01*
X2520942Y2287542D01*
X2520282Y2286990D01*
X2519691Y2286355D01*
X2519178Y2285645D01*
X2518750Y2284871D01*
X2518414Y2284040D01*
X2518178Y2283162D01*
X2518049Y2282246D01*
X2518036Y2281302D01*
X2518145Y2280338D02*
X2518036Y2281302D01*
X2518383Y2279365D02*
X2518145Y2280338D01*
X2520216Y2274795D02*
X2518383Y2279365D01*
X2521885Y2270166D02*
X2520216Y2274795D01*
X2523389Y2265481D02*
X2521885Y2270166D01*
X2524729Y2260747D02*
X2523389Y2265481D01*
X2525902Y2255969D02*
X2524729Y2260747D01*
X2526910Y2251151D02*
X2525902Y2255969D01*
X2527751Y2246299D02*
X2526910Y2251151D01*
X2528424Y2241418D02*
X2527751Y2246299D01*
X2528929Y2236514D02*
X2528424Y2241418D01*
X2529265Y2231590D02*
X2528929Y2236514D01*
X2529433Y2226653D02*
X2529265Y2231590D01*
X2529433Y2226653D02*
X2529429Y2221707D01*
X2529256Y2216759D01*
X2528911Y2211812D01*
X2528394Y2206872D01*
X2527705Y2201944D01*
X2527340Y2201119D01*
X2526822Y2200452D01*
X2526184Y2199955D01*
X2525463Y2199637D01*
X2524693Y2199509D01*
X2523910Y2199582D01*
X2523148Y2199866D01*
X2522444Y2200372D01*
X2519530Y2202891D01*
X2516540Y2205253D01*
X2513480Y2207458D01*
X2510354Y2209507D01*
X2507168Y2211398D01*
X2503926Y2213131D01*
X2500632Y2214707D01*
X2497293Y2216126D01*
X2493912Y2217388D01*
X2490494Y2218491D01*
X2487044Y2219437D01*
X2483568Y2220225D01*
X2480069Y2220855D01*
X2476553Y2221327D01*
X2473024Y2221640D01*
X2469488Y2221796D01*
X2465949Y2221793D01*
X2462411Y2221631D01*
X2458881Y2221311D01*
X2455362Y2220832D01*
X2451859Y2220194D01*
X2448378Y2219397D01*
X2444922Y2218442D01*
X2441498Y2217327D01*
X2438109Y2216053D01*
X2434760Y2214619D01*
X2431457Y2213026D01*
X2428204Y2211274D01*
X2425006Y2209361D01*
X2421867Y2207289D01*
X2418794Y2205058D01*
X2415789Y2202666D01*
X2415233Y2201934D01*
X2414784Y2201156D01*
X2414440Y2200343D01*
X2414198Y2199503D01*
X2414055Y2198649D01*
X2414011Y2197788D01*
X2414061Y2196931D02*
X2414011Y2197788D01*
X2414205Y2196089D02*
X2414061Y2196931D01*
X2414439Y2195271D02*
X2414205Y2196089D01*
X2414762Y2194488D02*
X2414439Y2195271D01*
X2415170Y2193749D02*
X2414762Y2194488D01*
X2415662Y2193064D02*
X2415170Y2193749D01*
X2416236Y2192444D02*
X2415662Y2193064D01*
X2416888Y2191898D02*
X2416236Y2192444D01*
X2417618Y2191437D02*
X2416888Y2191898D01*
X2418421Y2191071D02*
X2417618Y2191437D01*
X2423449Y2189723D02*
X2418421Y2191071D01*
X2428376Y2188145D02*
X2423449Y2189723D01*
X2433198Y2186344D02*
X2428376Y2188145D01*
X2437909Y2184325D02*
X2433198Y2186344D01*
X2442506Y2182095D02*
X2437909Y2184325D01*
X2446985Y2179660D02*
X2442506Y2182095D01*
X2451340Y2177026D02*
X2446985Y2179660D01*
X2455569Y2174199D02*
X2451340Y2177026D01*
X2459665Y2171185D02*
X2455569Y2174199D01*
X2463626Y2167991D02*
X2459665Y2171185D01*
X2467446Y2164623D02*
X2463626Y2167991D01*
X2471122Y2161087D02*
X2467446Y2164623D01*
X2474648Y2157388D02*
X2471122Y2161087D01*
X2478021Y2153534D02*
X2474648Y2157388D01*
X2481237Y2149530D02*
X2478021Y2153534D01*
X2484290Y2145382D02*
X2481237Y2149530D01*
X2487177Y2141097D02*
X2484290Y2145382D01*
X2489894Y2136681D02*
X2487177Y2141097D01*
X2492435Y2132140D02*
X2489894Y2136681D01*
X2494797Y2127480D02*
X2492435Y2132140D01*
X2496975Y2122706D02*
X2494797Y2127480D01*
X2498965Y2117827D02*
X2496975Y2122706D01*
X2500762Y2112847D02*
X2498965Y2117827D01*
X2502363Y2107772D02*
X2500762Y2112847D01*
X2503762Y2102610D02*
X2502363Y2107772D01*
X2504957Y2097365D02*
X2503762Y2102610D01*
X2505941Y2092045D02*
X2504957Y2097365D01*
X2506711Y2086655D02*
X2505941Y2092045D01*
X2507263Y2081201D02*
X2506711Y2086655D01*
X2507591Y2075690D02*
X2507263Y2081201D01*
X2507693Y2070128D02*
X2507591Y2075690D01*
X2507693Y2070128D02*
X2507563Y2064521D01*
X2507374Y2063619D01*
X2507000Y2062838D01*
X2506472Y2062197D01*
X2505825Y2061714D01*
X2505091Y2061410D01*
X2504304Y2061303D01*
X2503498Y2061411D01*
X2502704Y2061755D01*
X2501136Y2063331D01*
X2499519Y2064839D01*
X2497853Y2066277D01*
X2496142Y2067643D01*
X2494388Y2068939D01*
X2492591Y2070161D01*
X2490755Y2071309D01*
X2488882Y2072381D01*
X2486973Y2073378D01*
X2485030Y2074298D01*
X2483056Y2075139D01*
X2481052Y2075901D01*
X2479021Y2076582D01*
X2476964Y2077182D01*
X2474883Y2077700D01*
X2472781Y2078134D01*
X2471885Y2078172D01*
X2471023Y2078085D01*
X2470201Y2077881D01*
X2469425Y2077568D01*
X2468701Y2077156D01*
X2468037Y2076653D01*
X2467437Y2076068D01*
X2466908Y2075410D01*
X2466457Y2074688D01*
X2466090Y2073909D01*
X2465812Y2073084D01*
X2465630Y2072221D01*
X2465551Y2071328D01*
X2465580Y2070415D02*
X2465551Y2071328D01*
X2465724Y2069490D02*
X2465580Y2070415D01*
X2465990Y2068562D02*
X2465724Y2069490D01*
X2468039Y2063401D02*
X2465990Y2068562D01*
X2469879Y2058166D02*
X2468039Y2063401D01*
X2471509Y2052867D02*
X2469879Y2058166D01*
X2472929Y2047510D02*
X2471509Y2052867D01*
X2474137Y2042102D02*
X2472929Y2047510D01*
X2475133Y2036652D02*
X2474137Y2042102D01*
X2475916Y2031165D02*
X2475133Y2036652D01*
X2476487Y2025651D02*
X2475916Y2031165D01*
X2476844Y2020116D02*
X2476487Y2025651D01*
X2476986Y2014567D02*
X2476844Y2020116D01*
X2476986Y2014567D02*
X2476914Y2009011D01*
X2476626Y2003457D01*
X2476122Y1997911D01*
X2475402Y1992381D01*
X2474464Y1986874D01*
X2473309Y1981398D01*
X2473051Y1980608D01*
X2472648Y1979932D01*
X2472126Y1979383D01*
X2471511Y1978974D01*
X2470830Y1978720D01*
X2470107Y1978633D01*
X2469369Y1978726D01*
X2468641Y1979013D01*
X2465113Y1980535D01*
X2461555Y1981869D01*
X2457971Y1983018D01*
X2454368Y1983983D01*
X2450751Y1984765D01*
X2447124Y1985367D01*
X2443492Y1985791D01*
X2439862Y1986038D01*
X2436238Y1986110D01*
X2432625Y1986009D01*
X2429029Y1985736D01*
X2425455Y1985294D01*
X2421907Y1984684D01*
X2418391Y1983908D01*
X2414912Y1982968D01*
X2411476Y1981866D01*
X2408087Y1980603D01*
X2404751Y1979181D01*
X2401472Y1977602D01*
X2398257Y1975868D01*
X2395110Y1973980D01*
X2392036Y1971941D01*
X2389041Y1969752D01*
X2386129Y1967415D01*
X2383307Y1964932D01*
X2380578Y1962304D01*
X2377948Y1959534D01*
X2375423Y1956622D01*
X2373008Y1953572D01*
X2370707Y1950384D01*
X2368526Y1947061D01*
X2366470Y1943604D01*
X2366084Y1942154D01*
X2365989Y1940698D01*
X2366167Y1939276D02*
X2365989Y1940698D01*
X2366599Y1937930D02*
X2366167Y1939276D01*
X2367268Y1936703D02*
X2366599Y1937930D01*
X2368156Y1935635D02*
X2367268Y1936703D01*
X2369243Y1934768D02*
X2368156Y1935635D01*
X2369856Y1934423D02*
X2369243Y1934768D01*
X2370512Y1934143D02*
X2369856Y1934423D01*
X2374024Y1933099D02*
X2370512Y1934143D01*
X2377468Y1931905D02*
X2374024Y1933099D01*
X2380841Y1930566D02*
X2377468Y1931905D01*
X2384142Y1929085D02*
X2380841Y1930566D01*
X2387367Y1927465D02*
X2384142Y1929085D01*
X2390513Y1925712D02*
X2387367Y1927465D01*
X2393578Y1923827D02*
X2390513Y1925712D01*
X2396560Y1921816D02*
X2393578Y1923827D01*
X2399454Y1919681D02*
X2396560Y1921816D01*
X2402259Y1917427D02*
X2399454Y1919681D01*
X2404972Y1915057D02*
X2402259Y1917427D01*
X2407590Y1912575D02*
X2404972Y1915057D01*
X2410110Y1909985D02*
X2407590Y1912575D01*
X2412529Y1907290D02*
X2410110Y1909985D01*
X2414846Y1904494D02*
X2412529Y1907290D01*
X2417056Y1901602D02*
X2414846Y1904494D01*
X2419158Y1898615D02*
X2417056Y1901602D01*
X2421148Y1895540D02*
X2419158Y1898615D01*
X2423024Y1892378D02*
X2421148Y1895540D01*
X2424784Y1889134D02*
X2423024Y1892378D01*
X2426423Y1885811D02*
X2424784Y1889134D01*
X2427940Y1882414D02*
X2426423Y1885811D01*
X2429332Y1878946D02*
X2427940Y1882414D01*
X2430596Y1875411D02*
X2429332Y1878946D01*
X2431730Y1871812D02*
X2430596Y1875411D01*
X2432730Y1868153D02*
X2431730Y1871812D01*
X2433594Y1864438D02*
X2432730Y1868153D01*
X2434319Y1860671D02*
X2433594Y1864438D01*
X2434902Y1856855D02*
X2434319Y1860671D01*
X2435341Y1852995D02*
X2434902Y1856855D01*
X2435633Y1849093D02*
X2435341Y1852995D01*
X2435775Y1845154D02*
X2435633Y1849093D01*
X2435775Y1845154D02*
X2435481Y1844229D01*
X2434996Y1843467D01*
X2434363Y1842882D01*
X2433621Y1842490D01*
X2432814Y1842307D01*
X2431982Y1842347D01*
X2431167Y1842627D01*
X2430410Y1843162D01*
X2427962Y1844660D01*
X2425456Y1846030D01*
X2422896Y1847271D01*
X2420286Y1848379D01*
X2417631Y1849353D01*
X2414936Y1850192D01*
X2412204Y1850894D01*
X2409439Y1851456D01*
X2408340Y1851458D01*
X2407309Y1851282D01*
X2406354Y1850943D01*
X2405482Y1850459D01*
X2404700Y1849847D01*
X2404016Y1849123D01*
X2403438Y1848303D01*
X2402971Y1847406D01*
X2402625Y1846448D01*
X2402406Y1845445D01*
X2402321Y1844415D01*
X2402378Y1843374D02*
X2402321Y1844415D01*
X2402585Y1842339D02*
X2402378Y1843374D01*
X2402948Y1841327D02*
X2402585Y1842339D01*
X2403474Y1840354D02*
X2402948Y1841327D01*
X2404172Y1839439D02*
X2403474Y1840354D01*
X2405582Y1837858D02*
X2404172Y1839439D01*
X2406929Y1836231D02*
X2405582Y1837858D01*
X2408213Y1834560D02*
X2406929Y1836231D01*
X2409435Y1832846D02*
X2408213Y1834560D01*
X2411688Y1829300D02*
X2409435Y1832846D01*
X2413686Y1825610D02*
X2411688Y1829300D01*
X2415424Y1821791D02*
X2413686Y1825610D01*
X2416899Y1817861D02*
X2415424Y1821791D01*
X2418109Y1813835D02*
X2416899Y1817861D01*
X2419050Y1809731D02*
X2418109Y1813835D01*
X2419718Y1805565D02*
X2419050Y1809731D01*
X2420111Y1801352D02*
X2419718Y1805565D01*
X2420226Y1797111D02*
X2420111Y1801352D01*
X2420226Y1797111D02*
X2420058Y1792856D01*
X2419606Y1788606D01*
X2418865Y1784375D01*
X2417832Y1780181D01*
X2417206Y1778103D01*
X2416505Y1776040D01*
X2416066Y1775542D01*
X2415560Y1775154D01*
X2415006Y1774880D01*
X2414419Y1774722D01*
X2413814Y1774683D01*
X2413210Y1774766D01*
X2412621Y1774973D01*
X2412064Y1775307D01*
X2409456Y1777522D01*
X2406782Y1779597D01*
X2404046Y1781531D01*
X2401253Y1783324D01*
X2398407Y1784976D01*
X2395512Y1786487D01*
X2392573Y1787856D01*
X2389594Y1789085D01*
X2386579Y1790172D01*
X2383533Y1791119D01*
X2380460Y1791924D01*
X2377364Y1792588D01*
X2374250Y1793111D01*
X2371121Y1793492D01*
X2367983Y1793732D01*
X2364840Y1793831D01*
X2361695Y1793788D01*
X2358554Y1793604D01*
X2355420Y1793278D01*
X2352298Y1792811D01*
X2349193Y1792202D01*
X2346108Y1791451D01*
X2343047Y1790559D01*
X2340016Y1789525D01*
X2337019Y1788350D01*
X2334059Y1787032D01*
X2331142Y1785573D01*
X2328271Y1783972D01*
X2325451Y1782230D01*
X2322686Y1780345D01*
X2319980Y1778318D01*
X2317339Y1776150D01*
X2316714Y1775520D01*
X2316184Y1774831D01*
X2315750Y1774093D01*
X2315409Y1773315D01*
X2315162Y1772508D01*
X2315007Y1771682D01*
X2314943Y1770844D01*
X2314971Y1770006D02*
X2314943Y1770844D01*
X2315087Y1769177D02*
X2314971Y1770006D01*
X2315293Y1768367D02*
X2315087Y1769177D01*
X2315587Y1767585D02*
X2315293Y1768367D01*
X2315969Y1766842D02*
X2315587Y1767585D01*
X2316436Y1766146D02*
X2315969Y1766842D01*
X2316990Y1765507D02*
X2316436Y1766146D01*
X2317628Y1764935D02*
X2316990Y1765507D01*
X2318350Y1764441D02*
X2317628Y1764935D01*
X2321830Y1763045D02*
X2318350Y1764441D01*
X2325209Y1761483D02*
X2321830Y1763045D01*
X2328485Y1759760D02*
X2325209Y1761483D01*
X2331656Y1757882D02*
X2328485Y1759760D01*
X2334717Y1755854D02*
X2331656Y1757882D01*
X2337667Y1753683D02*
X2334717Y1755854D01*
X2340503Y1751374D02*
X2337667Y1753683D01*
X2343221Y1748932D02*
X2340503Y1751374D01*
X2345820Y1746364D02*
X2343221Y1748932D01*
X2348296Y1743676D02*
X2345820Y1746364D01*
X2350647Y1740872D02*
X2348296Y1743676D01*
X2352869Y1737960D02*
X2350647Y1740872D01*
X2354961Y1734944D02*
X2352869Y1737960D01*
X2356918Y1731830D02*
X2354961Y1734944D01*
X2358739Y1728624D02*
X2356918Y1731830D01*
X2360421Y1725332D02*
X2358739Y1728624D01*
X2361961Y1721960D02*
X2360421Y1725332D01*
X2363356Y1718513D02*
X2361961Y1721960D01*
X2364603Y1714997D02*
X2363356Y1718513D01*
X2365700Y1711417D02*
X2364603Y1714997D01*
X2366644Y1707780D02*
X2365700Y1711417D01*
X2367431Y1704092D02*
X2366644Y1707780D01*
X2368060Y1700357D02*
X2367431Y1704092D01*
X2368527Y1696582D02*
X2368060Y1700357D01*
X2368831Y1692773D02*
X2368527Y1696582D01*
X2368967Y1688935D02*
X2368831Y1692773D01*
X2368967Y1688935D02*
X2368933Y1685074D01*
X2368726Y1681195D01*
X2368344Y1677305D01*
X2367784Y1673410D01*
X2367043Y1669514D01*
X2366118Y1665624D01*
X2365675Y1664961D01*
X2365128Y1664443D01*
X2364501Y1664077D01*
X2363822Y1663865D01*
X2363117Y1663814D01*
X2362413Y1663929D01*
X2361735Y1664214D01*
X2361110Y1664674D01*
X2358618Y1666199D01*
X2356048Y1667464D01*
X2353416Y1668469D01*
X2350737Y1669217D01*
X2348027Y1669711D01*
X2345300Y1669953D01*
X2342572Y1669943D01*
X2339858Y1669686D01*
X2337173Y1669182D01*
X2334532Y1668434D01*
X2331951Y1667443D01*
X2329445Y1666213D01*
X2327029Y1664744D01*
X2324718Y1663040D01*
X2322528Y1661102D01*
X2320473Y1658932D01*
X2319750Y1657667D01*
X2319294Y1656317D01*
X2319098Y1654925D01*
X2319157Y1653531D02*
X2319098Y1654925D01*
X2319465Y1652179D02*
X2319157Y1653531D01*
X2320015Y1650910D02*
X2319465Y1652179D01*
X2320801Y1649766D02*
X2320015Y1650910D01*
X2321818Y1648789D02*
X2320801Y1649766D01*
X2323286Y1647949D02*
X2321818Y1648789D01*
X2324672Y1646998D02*
X2323286Y1647949D01*
X2325974Y1645942D02*
X2324672Y1646998D01*
X2327188Y1644789D02*
X2325974Y1645942D01*
X2328310Y1643545D02*
X2327188Y1644789D01*
X2329338Y1642217D02*
X2328310Y1643545D01*
X2330266Y1640812D02*
X2329338Y1642217D01*
X2331092Y1639337D02*
X2330266Y1640812D01*
X2331813Y1637798D02*
X2331092Y1639337D01*
X2332424Y1636202D02*
X2331813Y1637798D01*
X2332923Y1634556D02*
X2332424Y1636202D01*
X2333306Y1632868D02*
X2332923Y1634556D01*
X2333568Y1631143D02*
X2333306Y1632868D01*
X2333708Y1629389D02*
X2333568Y1631143D01*
X2333721Y1627612D02*
X2333708Y1629389D01*
X2333721Y1627612D02*
X2333603Y1625820D01*
X2333443Y1625177D01*
X2333183Y1624592D01*
X2332836Y1624074D01*
X2332413Y1623634D01*
X2331924Y1623283D01*
X2331383Y1623029D01*
X2330800Y1622884D01*
X2330187Y1622857D01*
X2326100Y1622937D01*
X2322045Y1622826D01*
X2318025Y1622528D01*
X2314046Y1622046D01*
X2310110Y1621383D01*
X2306223Y1620543D01*
X2302390Y1619530D01*
X2298613Y1618346D01*
X2294897Y1616995D01*
X2291247Y1615481D01*
X2287667Y1613806D01*
X2284161Y1611975D01*
X2280733Y1609990D01*
X2277388Y1607856D01*
X2274129Y1605575D01*
X2270962Y1603151D01*
X2267890Y1600587D01*
X2264918Y1597886D01*
X2262049Y1595053D01*
X2259289Y1592090D01*
X2256641Y1589001D01*
X2254110Y1585790D01*
X2251699Y1582459D01*
X2249414Y1579012D01*
X2247258Y1575452D01*
X2245235Y1571784D01*
X2243351Y1568009D01*
X2241609Y1564133D01*
X2240013Y1560157D01*
X2238568Y1556086D01*
X2237277Y1551923D01*
X2236146Y1547670D01*
X2232706Y1534685D01*
X2232571Y1533886D01*
X2232520Y1533084D01*
X2232554Y1532285D02*
X2232520Y1533084D01*
X2232669Y1531498D02*
X2232554Y1532285D01*
X2232866Y1530730D02*
X2232669Y1531498D01*
X2233141Y1529989D02*
X2232866Y1530730D01*
X2233494Y1529281D02*
X2233141Y1529989D01*
X2233923Y1528615D02*
X2233494Y1529281D01*
X2266053Y1497733D02*
X2233923Y1528615D01*
X2266535Y1496843D02*
X2266053Y1497733D01*
X2266751Y1495902D02*
X2266535Y1496843D01*
X2266751Y1495902D02*
X2266722Y1494960D01*
X2266470Y1494067D01*
X2266015Y1493273D01*
X2265379Y1492629D01*
X2264582Y1492184D01*
X2264130Y1492052D01*
X2263646Y1491988D01*
X2221809Y1486771D01*
X2220935Y1486107D01*
X2220177Y1485304D01*
X2219548Y1484379D01*
X2219063Y1483349D01*
X2205665Y1448452D01*
X2201360Y1435784D01*
X2200843Y1434903D01*
X2200157Y1434272D01*
X2199357Y1433891D01*
X2198500Y1433761D01*
X2197641Y1433882D01*
X2196838Y1434254D01*
X2196146Y1434878D01*
X2195860Y1435284D01*
X2195622Y1435754D01*
X2191220Y1448452D01*
X2177822Y1483349D01*
X2177336Y1484379D01*
X2176707Y1485304D01*
X2175949Y1486107D01*
X2175076Y1486771D01*
X2132814Y1492017D01*
X2132325Y1492129D01*
X2131877Y1492312D01*
X2131117Y1492856D01*
X2130549Y1493590D01*
X2130191Y1494456D01*
X2130058Y1495393D01*
X2130166Y1496343D02*
X2130058Y1495393D01*
X2130531Y1497247D02*
X2130166Y1496343D01*
X2130815Y1497663D02*
X2130531Y1497247D01*
X2131170Y1498046D02*
X2130815Y1497663D01*
X2162961Y1528615D02*
X2131170Y1498046D01*
X2163390Y1529281D02*
X2162961Y1528615D01*
X2163743Y1529989D02*
X2163390Y1529281D01*
X2164019Y1530730D02*
X2163743Y1529989D01*
X2164215Y1531498D02*
X2164019Y1530730D01*
X2164330Y1532285D02*
X2164215Y1531498D01*
X2164364Y1533084D02*
X2164330Y1532285D01*
X2164364Y1533084D02*
X2164314Y1533886D01*
X2164178Y1534685D01*
X2159903Y1550860D01*
X2158723Y1554982D01*
X2157391Y1559015D01*
X2155910Y1562957D01*
X2154286Y1566803D01*
X2152521Y1570551D01*
X2150621Y1574197D01*
X2148589Y1577739D01*
X2146429Y1581172D01*
X2144146Y1584495D01*
X2141743Y1587703D01*
X2139225Y1590794D01*
X2136597Y1593764D01*
X2133861Y1596610D01*
X2131022Y1599329D01*
X2128085Y1601917D01*
X2125052Y1604373D01*
X2121930Y1606691D01*
X2118721Y1608870D01*
X2115430Y1610905D01*
X2112061Y1612795D01*
X2108617Y1614535D01*
X2105104Y1616122D01*
X2101525Y1617553D01*
X2097885Y1618826D01*
X2094187Y1619936D01*
X2090435Y1620880D01*
X2086635Y1621656D01*
X2082789Y1622260D01*
X2078902Y1622690D01*
X2074978Y1622941D01*
X2071022Y1623010D01*
X2067037Y1622895D01*
X2066371Y1622855D01*
X2065730Y1622957D01*
X2065130Y1623189D01*
X2064586Y1623539D01*
X2064113Y1623996D01*
X2063727Y1624545D01*
X2063442Y1625177D01*
X2063274Y1625877D01*
X2063161Y1627666D01*
X2063178Y1629439D02*
X2063161Y1627666D01*
X2063321Y1631189D02*
X2063178Y1629439D01*
X2063586Y1632910D02*
X2063321Y1631189D01*
X2063971Y1634594D02*
X2063586Y1632910D01*
X2064471Y1636235D02*
X2063971Y1634594D01*
X2065084Y1637827D02*
X2064471Y1636235D01*
X2065805Y1639362D02*
X2065084Y1637827D01*
X2066631Y1640833D02*
X2065805Y1639362D01*
X2067559Y1642234D02*
X2066631Y1640833D01*
X2068585Y1643559D02*
X2067559Y1642234D01*
X2069706Y1644799D02*
X2068585Y1643559D01*
X2070918Y1645950D02*
X2069706Y1644799D01*
X2072218Y1647002D02*
X2070918Y1645950D01*
X2073602Y1647951D02*
X2072218Y1647002D01*
X2075066Y1648789D02*
X2073602Y1647951D01*
X2076083Y1649766D02*
X2075066Y1648789D01*
X2076869Y1650910D02*
X2076083Y1649766D01*
X2077419Y1652179D02*
X2076869Y1650910D01*
X2077727Y1653531D02*
X2077419Y1652179D01*
X2077786Y1654925D02*
X2077727Y1653531D01*
X2077786Y1654925D02*
X2077591Y1656317D01*
X2077135Y1657667D01*
X2076412Y1658932D01*
X2074310Y1661147D01*
X2072068Y1663120D01*
X2069701Y1664848D01*
X2067227Y1666329D01*
X2064660Y1667561D01*
X2062018Y1668542D01*
X2059317Y1669271D01*
X2056573Y1669746D01*
X2053802Y1669963D01*
X2051019Y1669922D01*
X2048243Y1669621D01*
X2045488Y1669056D01*
X2042770Y1668228D01*
X2040107Y1667132D01*
X2037514Y1665769D01*
X2035008Y1664135D01*
X2034377Y1663909D01*
X2033736Y1663827D01*
X2033104Y1663881D01*
X2032497Y1664064D01*
X2031934Y1664369D01*
X2031432Y1664787D01*
X2031008Y1665313D01*
X2030680Y1665939D01*
X2029772Y1669821D01*
X2029048Y1673709D01*
X2028503Y1677596D01*
X2028135Y1681477D01*
X2027941Y1685346D01*
X2027920Y1689197D01*
X2028067Y1693024D02*
X2027920Y1689197D01*
X2028380Y1696823D02*
X2028067Y1693024D01*
X2028857Y1700586D02*
X2028380Y1696823D01*
X2029494Y1704309D02*
X2028857Y1700586D01*
X2030289Y1707986D02*
X2029494Y1704309D01*
X2031239Y1711611D02*
X2030289Y1707986D01*
X2032341Y1715178D02*
X2031239Y1711611D01*
X2033592Y1718682D02*
X2032341Y1715178D01*
X2034991Y1722117D02*
X2033592Y1718682D01*
X2036533Y1725478D02*
X2034991Y1722117D01*
X2038217Y1728757D02*
X2036533Y1725478D01*
X2040039Y1731951D02*
X2038217Y1728757D01*
X2041996Y1735054D02*
X2040039Y1731951D01*
X2044087Y1738058D02*
X2041996Y1735054D01*
X2046308Y1740960D02*
X2044087Y1738058D01*
X2048656Y1743752D02*
X2046308Y1740960D01*
X2051128Y1746431D02*
X2048656Y1743752D01*
X2053723Y1748988D02*
X2051128Y1746431D01*
X2056437Y1751420D02*
X2053723Y1748988D01*
X2059267Y1753721D02*
X2056437Y1751420D01*
X2062210Y1755884D02*
X2059267Y1753721D01*
X2065265Y1757904D02*
X2062210Y1755884D01*
X2068427Y1759775D02*
X2065265Y1757904D01*
X2071695Y1761492D02*
X2068427Y1759775D01*
X2075065Y1763049D02*
X2071695Y1761492D01*
X2078535Y1764441D02*
X2075065Y1763049D01*
X2079256Y1764935D02*
X2078535Y1764441D01*
X2079895Y1765507D02*
X2079256Y1764935D01*
X2080448Y1766146D02*
X2079895Y1765507D01*
X2080916Y1766842D02*
X2080448Y1766146D01*
X2081297Y1767585D02*
X2080916Y1766842D01*
X2081591Y1768367D02*
X2081297Y1767585D01*
X2081797Y1769177D02*
X2081591Y1768367D01*
X2081914Y1770006D02*
X2081797Y1769177D01*
X2081941Y1770844D02*
X2081914Y1770006D01*
X2081941Y1770844D02*
X2081877Y1771682D01*
X2081723Y1772508D01*
X2081475Y1773315D01*
X2081135Y1774093D01*
X2080700Y1774831D01*
X2080171Y1775520D01*
X2079546Y1776150D01*
X2076897Y1778324D01*
X2074185Y1780354D01*
X2071414Y1782243D01*
X2068586Y1783988D01*
X2065708Y1785592D01*
X2062783Y1787052D01*
X2059816Y1788370D01*
X2056811Y1789546D01*
X2053773Y1790580D01*
X2050705Y1791470D01*
X2047613Y1792219D01*
X2044500Y1792825D01*
X2041370Y1793290D01*
X2038229Y1793612D01*
X2035081Y1793792D01*
X2031930Y1793830D01*
X2028779Y1793725D01*
X2025635Y1793479D01*
X2022500Y1793091D01*
X2019380Y1792561D01*
X2016279Y1791889D01*
X2013200Y1791076D01*
X2010149Y1790120D01*
X2007130Y1789023D01*
X2004147Y1787784D01*
X2001204Y1786404D01*
X1998306Y1784882D01*
X1995458Y1783218D01*
X1992663Y1781413D01*
X1989926Y1779466D01*
X1987251Y1777378D01*
X1984642Y1775149D01*
X1984086Y1774866D01*
X1983505Y1774704D01*
X1982916Y1774659D01*
X1982332Y1774728D01*
X1981769Y1774907D01*
X1981241Y1775194D01*
X1980762Y1775586D01*
X1980347Y1776078D01*
X1979026Y1780216D01*
X1977998Y1784406D01*
X1977262Y1788633D01*
X1976813Y1792879D01*
X1976649Y1797129D01*
X1976766Y1801366D02*
X1976649Y1797129D01*
X1977162Y1805574D02*
X1976766Y1801366D01*
X1977832Y1809736D02*
X1977162Y1805574D01*
X1978774Y1813836D02*
X1977832Y1809736D01*
X1979985Y1817858D02*
X1978774Y1813836D01*
X1981461Y1821784D02*
X1979985Y1817858D01*
X1983199Y1825600D02*
X1981461Y1821784D01*
X1985195Y1829287D02*
X1983199Y1825600D01*
X1987448Y1832831D02*
X1985195Y1829287D01*
X1988669Y1834544D02*
X1987448Y1832831D01*
X1989953Y1836215D02*
X1988669Y1834544D01*
X1991299Y1837841D02*
X1989953Y1836215D01*
X1992706Y1839421D02*
X1991299Y1837841D01*
X1993405Y1840340D02*
X1992706Y1839421D01*
X1993933Y1841315D02*
X1993405Y1840340D01*
X1994296Y1842329D02*
X1993933Y1841315D01*
X1994503Y1843366D02*
X1994296Y1842329D01*
X1994561Y1844409D02*
X1994503Y1843366D01*
X1994561Y1844409D02*
X1994476Y1845441D01*
X1994256Y1846445D01*
X1993909Y1847405D01*
X1993442Y1848303D01*
X1992861Y1849123D01*
X1992176Y1849849D01*
X1991392Y1850462D01*
X1990517Y1850947D01*
X1989558Y1851287D01*
X1988523Y1851464D01*
X1987419Y1851463D01*
X1984555Y1850882D01*
X1981729Y1850152D01*
X1978943Y1849275D01*
X1976204Y1848254D01*
X1973514Y1847090D01*
X1970879Y1845785D01*
X1968304Y1844342D01*
X1965791Y1842763D01*
X1965074Y1842461D01*
X1964342Y1842349D01*
X1963621Y1842416D01*
X1962937Y1842649D01*
X1962315Y1843036D01*
X1961781Y1843565D01*
X1961361Y1844223D01*
X1961080Y1844999D01*
X1961215Y1848945D02*
X1961080Y1844999D01*
X1961500Y1852855D02*
X1961215Y1848945D01*
X1961932Y1856723D02*
X1961500Y1852855D01*
X1962510Y1860547D02*
X1961932Y1856723D01*
X1963230Y1864322D02*
X1962510Y1860547D01*
X1964089Y1868044D02*
X1963230Y1864322D01*
X1965085Y1871711D02*
X1964089Y1868044D01*
X1966214Y1875318D02*
X1965085Y1871711D01*
X1967475Y1878861D02*
X1966214Y1875318D01*
X1968865Y1882337D02*
X1967475Y1878861D01*
X1970380Y1885742D02*
X1968865Y1882337D01*
X1972018Y1889072D02*
X1970380Y1885742D01*
X1973777Y1892324D02*
X1972018Y1889072D01*
X1975652Y1895493D02*
X1973777Y1892324D01*
X1977643Y1898576D02*
X1975652Y1895493D01*
X1979745Y1901569D02*
X1977643Y1898576D01*
X1981957Y1904468D02*
X1979745Y1901569D01*
X1984275Y1907270D02*
X1981957Y1904468D01*
X1986696Y1909971D02*
X1984275Y1907270D01*
X1989219Y1912567D02*
X1986696Y1909971D01*
X1991839Y1915055D02*
X1989219Y1912567D01*
X1994556Y1917430D02*
X1991839Y1915055D01*
X1997365Y1919688D02*
X1994556Y1917430D01*
X2000263Y1921827D02*
X1997365Y1919688D01*
X2003249Y1923842D02*
X2000263Y1921827D01*
X2006319Y1925730D02*
X2003249Y1923842D01*
X2009471Y1927487D02*
X2006319Y1925730D01*
X2012702Y1929108D02*
X2009471Y1927487D01*
X2016009Y1930591D02*
X2012702Y1929108D01*
X2019389Y1931931D02*
X2016009Y1930591D01*
X2022840Y1933125D02*
X2019389Y1931931D01*
X2026359Y1934169D02*
X2022840Y1933125D01*
X2027018Y1934444D02*
X2026359Y1934169D01*
X2027633Y1934785D02*
X2027018Y1934444D01*
X2028723Y1935646D02*
X2027633Y1934785D01*
X2029613Y1936709D02*
X2028723Y1935646D01*
X2030284Y1937933D02*
X2029613Y1936709D01*
X2030719Y1939275D02*
X2030284Y1937933D01*
X2030899Y1940695D02*
X2030719Y1939275D01*
X2030899Y1940695D02*
X2030806Y1942149D01*
X2030651Y1942877D01*
X2030422Y1943597D01*
X2028364Y1947058D01*
X2026181Y1950385D01*
X2023877Y1953575D01*
X2021458Y1956629D01*
X2018930Y1959543D01*
X2016296Y1962315D01*
X2013564Y1964945D01*
X2010737Y1967429D01*
X2007821Y1969767D01*
X2004821Y1971957D01*
X2001743Y1973996D01*
X1998591Y1975884D01*
X1995371Y1977617D01*
X1992087Y1979195D01*
X1988746Y1980616D01*
X1985352Y1981877D01*
X1981911Y1982977D01*
X1978427Y1983915D01*
X1974906Y1984688D01*
X1971353Y1985294D01*
X1967774Y1985733D01*
X1964173Y1986001D01*
X1960555Y1986098D01*
X1956927Y1986021D01*
X1953292Y1985768D01*
X1949657Y1985339D01*
X1946026Y1984731D01*
X1942405Y1983941D01*
X1938798Y1982970D01*
X1935212Y1981813D01*
X1931650Y1980471D01*
X1928120Y1978941D01*
X1927374Y1978690D01*
X1926627Y1978637D01*
X1925904Y1978764D01*
X1925231Y1979059D01*
X1924632Y1979505D01*
X1924135Y1980088D01*
X1923765Y1980793D01*
X1923548Y1981604D01*
X1922403Y1987069D01*
X1921475Y1992565D01*
X1920762Y1998083D01*
X1920266Y2003616D01*
X1919984Y2009158D01*
X1919917Y2014700D01*
X1920064Y2020237D02*
X1919917Y2014700D01*
X1920424Y2025759D02*
X1920064Y2020237D01*
X1920996Y2031260D02*
X1920424Y2025759D01*
X1921781Y2036733D02*
X1920996Y2031260D01*
X1922776Y2042170D02*
X1921781Y2036733D01*
X1923983Y2047564D02*
X1922776Y2042170D01*
X1925399Y2052908D02*
X1923983Y2047564D01*
X1927025Y2058194D02*
X1925399Y2052908D01*
X1928861Y2063416D02*
X1927025Y2058194D01*
X1930904Y2068565D02*
X1928861Y2063416D01*
X1931167Y2069492D02*
X1930904Y2068565D01*
X1931310Y2070417D02*
X1931167Y2069492D01*
X1931338Y2071330D02*
X1931310Y2070417D01*
X1931338Y2071330D02*
X1931257Y2072222D01*
X1931074Y2073085D01*
X1930795Y2073910D01*
X1930426Y2074689D01*
X1929973Y2075411D01*
X1929442Y2076070D01*
X1928840Y2076655D01*
X1928172Y2077159D01*
X1927446Y2077572D01*
X1926666Y2077885D01*
X1925840Y2078091D01*
X1924973Y2078179D01*
X1924071Y2078142D01*
X1922038Y2077727D01*
X1920026Y2077233D01*
X1918036Y2076663D01*
X1916071Y2076017D01*
X1914131Y2075295D01*
X1912218Y2074500D01*
X1910335Y2073631D01*
X1908483Y2072690D01*
X1906664Y2071678D01*
X1904879Y2070595D01*
X1903130Y2069443D01*
X1901420Y2068223D01*
X1899749Y2066935D01*
X1898120Y2065580D01*
X1896534Y2064160D01*
X1894994Y2062675D01*
X1894599Y2062264D01*
X1894171Y2061942D01*
X1893720Y2061707D01*
X1893251Y2061555D01*
X1892775Y2061483D01*
X1892297Y2061488D01*
X1891373Y2061715D01*
X1890544Y2062209D01*
X1889872Y2062946D01*
X1889615Y2063396D01*
X1889422Y2063896D01*
X1889300Y2064444D01*
X1889257Y2065036D01*
X1889149Y2070626D01*
X1889271Y2076170D02*
X1889149Y2070626D01*
X1889618Y2081662D02*
X1889271Y2076170D01*
X1890186Y2087097D02*
X1889618Y2081662D01*
X1890972Y2092467D02*
X1890186Y2087097D01*
X1891970Y2097768D02*
X1890972Y2092467D01*
X1893177Y2102993D02*
X1891970Y2097768D01*
X1894587Y2108135D02*
X1893177Y2102993D01*
X1896197Y2113189D02*
X1894587Y2108135D01*
X1898003Y2118149D02*
X1896197Y2113189D01*
X1900000Y2123009D02*
X1898003Y2118149D01*
X1902183Y2127761D02*
X1900000Y2123009D01*
X1904549Y2132402D02*
X1902183Y2127761D01*
X1907094Y2136923D02*
X1904549Y2132402D01*
X1909812Y2141320D02*
X1907094Y2136923D01*
X1912699Y2145586D02*
X1909812Y2141320D01*
X1915752Y2149715D02*
X1912699Y2145586D01*
X1918966Y2153701D02*
X1915752Y2149715D01*
X1922336Y2157537D02*
X1918966Y2153701D01*
X1925859Y2161219D02*
X1922336Y2157537D01*
X1929530Y2164739D02*
X1925859Y2161219D01*
X1933344Y2168091D02*
X1929530Y2164739D01*
X1937298Y2171270D02*
X1933344Y2168091D01*
X1941387Y2174270D02*
X1937298Y2171270D01*
X1945606Y2177084D02*
X1941387Y2174270D01*
X1949952Y2179706D02*
X1945606Y2177084D01*
X1954421Y2182130D02*
X1949952Y2179706D01*
X1959007Y2184350D02*
X1954421Y2182130D01*
X1963706Y2186360D02*
X1959007Y2184350D01*
X1968515Y2188154D02*
X1963706Y2186360D01*
X1973428Y2189726D02*
X1968515Y2188154D01*
X1978442Y2191069D02*
X1973428Y2189726D01*
X1979249Y2191436D02*
X1978442Y2191069D01*
X1979982Y2191898D02*
X1979249Y2191436D01*
X1980637Y2192444D02*
X1979982Y2191898D01*
X1981212Y2193064D02*
X1980637Y2192444D01*
X1981705Y2193748D02*
X1981212Y2193064D01*
X1982115Y2194487D02*
X1981705Y2193748D01*
X1982437Y2195269D02*
X1982115Y2194487D01*
X1982670Y2196086D02*
X1982437Y2195269D01*
X1982811Y2196927D02*
X1982670Y2196086D01*
X1982858Y2197782D02*
X1982811Y2196927D01*
X1982858Y2197782D02*
X1982810Y2198642D01*
X1982662Y2199494D01*
X1982413Y2200331D01*
X1982061Y2201142D01*
X1981604Y2201916D01*
X1981037Y2202644D01*
X1978035Y2205029D01*
X1974964Y2207254D01*
X1971829Y2209320D01*
X1968634Y2211228D01*
X1965385Y2212977D01*
X1962086Y2214567D01*
X1958743Y2215998D01*
X1955359Y2217271D01*
X1951940Y2218385D01*
X1948490Y2219341D01*
X1945014Y2220139D01*
X1941517Y2220779D01*
X1938004Y2221261D01*
X1934480Y2221584D01*
X1930949Y2221750D01*
X1927416Y2221758D01*
X1923885Y2221609D01*
X1920363Y2221302D01*
X1916853Y2220837D01*
X1913359Y2220215D01*
X1909888Y2219435D01*
X1906444Y2218499D01*
X1903031Y2217405D01*
X1899654Y2216154D01*
X1896319Y2214746D01*
X1893029Y2213182D01*
X1889790Y2211461D01*
X1886606Y2209583D01*
X1883483Y2207548D01*
X1880424Y2205357D01*
X1877435Y2203009D01*
X1874521Y2200506D01*
X1873767Y2199930D01*
X1872946Y2199618D01*
X1872100Y2199553D01*
X1871275Y2199721D01*
X1870515Y2200105D01*
X1869863Y2200691D01*
X1869364Y2201463D01*
X1869062Y2202406D01*
X1868392Y2207307D01*
X1867894Y2212218D01*
X1867565Y2217137D01*
X1867405Y2222056D01*
X1867414Y2226972D02*
X1867405Y2222056D01*
X1867591Y2231879D02*
X1867414Y2226972D01*
X1867936Y2236773D02*
X1867591Y2231879D01*
X1868448Y2241647D02*
X1867936Y2236773D01*
X1869126Y2246498D02*
X1868448Y2241647D01*
X1869969Y2251320D02*
X1869126Y2246498D01*
X1870978Y2256108D02*
X1869969Y2251320D01*
X1872151Y2260857D02*
X1870978Y2256108D01*
X1873489Y2265561D02*
X1872151Y2260857D01*
X1874990Y2270217D02*
X1873489Y2265561D01*
X1876653Y2274818D02*
X1874990Y2270217D01*
X1878479Y2279361D02*
X1876653Y2274818D01*
X1878722Y2280337D02*
X1878479Y2279361D01*
X1878834Y2281302D02*
X1878722Y2280337D01*
X1878834Y2281302D02*
X1878823Y2282248D01*
X1878696Y2283166D01*
X1878461Y2284045D01*
X1878125Y2284877D01*
X1877697Y2285654D01*
X1877183Y2286364D01*
X1876591Y2286999D01*
X1875929Y2287551D01*
X1875204Y2288009D01*
X1874424Y2288365D01*
X1873596Y2288610D01*
X1872728Y2288733D01*
X1871827Y2288727D01*
X1870901Y2288581D01*
X1867229Y2287711D01*
X1863629Y2286586D01*
X1860114Y2285211D01*
X1856693Y2283591D01*
X1853378Y2281732D01*
X1850179Y2279639D01*
X1847108Y2277319D01*
X1844176Y2274777D01*
X1843751Y2274337D01*
X1843292Y2274001D01*
X1842808Y2273765D01*
X1842309Y2273624D01*
X1841803Y2273573D01*
X1841301Y2273607D01*
X1840811Y2273722D01*
X1840342Y2273914D01*
X1839904Y2274177D01*
X1839506Y2274507D01*
X1839157Y2274900D01*
X1838867Y2275351D01*
X1838644Y2275854D01*
X1838498Y2276407D01*
X1838437Y2277003D01*
X1838473Y2277638D02*
X1838437Y2277003D01*
X1839270Y2283358D02*
X1838473Y2277638D01*
X1840222Y2288998D02*
X1839270Y2283358D01*
X1841325Y2294557D02*
X1840222Y2288998D01*
X1842577Y2300034D02*
X1841325Y2294557D01*
X1843974Y2305426D02*
X1842577Y2300034D01*
X1845514Y2310733D02*
X1843974Y2305426D01*
X1847193Y2315951D02*
X1845514Y2310733D01*
X1849009Y2321080D02*
X1847193Y2315951D01*
X1850959Y2326119D02*
X1849009Y2321080D01*
X1853040Y2331064D02*
X1850959Y2326119D01*
X1855249Y2335916D02*
X1853040Y2331064D01*
X1857583Y2340671D02*
X1855249Y2335916D01*
X1860039Y2345328D02*
X1857583Y2340671D01*
X1862614Y2349886D02*
X1860039Y2345328D01*
X1865306Y2354344D02*
X1862614Y2349886D01*
X1868111Y2358698D02*
X1865306Y2354344D01*
X1871026Y2362948D02*
X1868111Y2358698D01*
X1874049Y2367092D02*
X1871026Y2362948D01*
X1877176Y2371129D02*
X1874049Y2367092D01*
X1880405Y2375056D02*
X1877176Y2371129D01*
X1883733Y2378872D02*
X1880405Y2375056D01*
X1887156Y2382576D02*
X1883733Y2378872D01*
X1890672Y2386165D02*
X1887156Y2382576D01*
X1894279Y2389638D02*
X1890672Y2386165D01*
X1897972Y2392994D02*
X1894279Y2389638D01*
X1901750Y2396230D02*
X1897972Y2392994D01*
X1905608Y2399346D02*
X1901750Y2396230D01*
X1909545Y2402338D02*
X1905608Y2399346D01*
X1913557Y2405206D02*
X1909545Y2402338D01*
X1917642Y2407949D02*
X1913557Y2405206D01*
X1921796Y2410564D02*
X1917642Y2407949D01*
X1926016Y2413049D02*
X1921796Y2410564D01*
X1930300Y2415403D02*
X1926016Y2413049D01*
X1934645Y2417625D02*
X1930300Y2415403D01*
X1939048Y2419713D02*
X1934645Y2417625D01*
X1943505Y2421664D02*
X1939048Y2419713D01*
X1948014Y2423478D02*
X1943505Y2421664D01*
X1952573Y2425153D02*
X1948014Y2423478D01*
X1957177Y2426687D02*
X1952573Y2425153D01*
X1961824Y2428078D02*
X1957177Y2426687D01*
X1966512Y2429324D02*
X1961824Y2428078D01*
X1971237Y2430425D02*
X1966512Y2429324D01*
X1975997Y2431379D02*
X1971237Y2430425D01*
X1980787Y2432182D02*
X1975997Y2431379D01*
X1985607Y2432836D02*
X1980787Y2432182D01*
X1990451Y2433336D02*
X1985607Y2432836D01*
X1995319Y2433682D02*
X1990451Y2433336D01*
X2000206Y2433872D02*
X1995319Y2433682D01*
X2005110Y2433905D02*
X2000206Y2433872D01*
X2010028Y2433778D02*
X2005110Y2433905D01*
X2014957Y2433490D02*
X2010028Y2433778D01*
X2019894Y2433040D02*
X2014957Y2433490D01*
X2024836Y2432426D02*
X2019894Y2433040D01*
X2029780Y2431645D02*
X2024836Y2432426D01*
X2034724Y2430697D02*
X2029780Y2431645D01*
X2039663Y2429580D02*
X2034724Y2430697D01*
X2044596Y2428292D02*
X2039663Y2429580D01*
X2049520Y2426831D02*
X2044596Y2428292D01*
X2054431Y2425196D02*
X2049520Y2426831D01*
X2059327Y2423385D02*
X2054431Y2425196D01*
X2064205Y2421396D02*
X2059327Y2423385D01*
X2069061Y2419229D02*
X2064205Y2421396D01*
X2073893Y2416880D02*
X2069061Y2419229D01*
X2078698Y2414349D02*
X2073893Y2416880D01*
X2085790Y2411005D02*
X2078698Y2414349D01*
X2092953Y2407872D02*
X2085790Y2411005D01*
X2100183Y2404948D02*
X2092953Y2407872D01*
X2107475Y2402237D02*
X2100183Y2404948D01*
X2114827Y2399737D02*
X2107475Y2402237D01*
X2122234Y2397451D02*
X2114827Y2399737D01*
X2296706Y2404949D02*
X2289412Y2402237D01*
X2303936Y2407872D02*
X2296706Y2404949D01*
X2311100Y2411006D02*
X2303936Y2407872D01*
X2318194Y2414350D02*
X2311100Y2411006D01*
X2323000Y2416881D02*
X2318194Y2414350D01*
X2327833Y2419230D02*
X2323000Y2416881D01*
X2332690Y2421398D02*
X2327833Y2419230D01*
X2337569Y2423387D02*
X2332690Y2421398D01*
X2342465Y2425198D02*
X2337569Y2423387D01*
X2347377Y2426834D02*
X2342465Y2425198D01*
X2352302Y2428294D02*
X2347377Y2426834D01*
X2357236Y2429583D02*
X2352302Y2428294D01*
X2362177Y2430700D02*
X2357236Y2429583D01*
X2367121Y2431648D02*
X2362177Y2430700D01*
X2372066Y2432428D02*
X2367121Y2431648D01*
X2377009Y2433043D02*
X2372066Y2432428D01*
X2381947Y2433493D02*
X2377009Y2433043D01*
X2386877Y2433780D02*
X2381947Y2433493D01*
X2391795Y2433907D02*
X2386877Y2433780D01*
X2396700Y2433874D02*
X2391795Y2433907D01*
X2401588Y2433683D02*
X2396700Y2433874D01*
X2406456Y2433337D02*
X2401588Y2433683D01*
X2411302Y2432836D02*
X2406456Y2433337D01*
X2416122Y2432182D02*
X2411302Y2432836D01*
X2420913Y2431378D02*
X2416122Y2432182D01*
X2425673Y2430424D02*
X2420913Y2431378D01*
X2430399Y2429323D02*
X2425673Y2430424D01*
X2435087Y2428075D02*
X2430399Y2429323D01*
X2439735Y2426684D02*
X2435087Y2428075D01*
X2444340Y2425149D02*
X2439735Y2426684D01*
X2448898Y2423474D02*
X2444340Y2425149D01*
X2453408Y2421659D02*
X2448898Y2423474D01*
X2457866Y2419707D02*
X2453408Y2421659D01*
X2462269Y2417619D02*
X2457866Y2419707D01*
X2466614Y2415396D02*
X2462269Y2417619D01*
X2470898Y2413041D02*
X2466614Y2415396D01*
X2475119Y2410554D02*
X2470898Y2413041D01*
X2479273Y2407939D02*
X2475119Y2410554D01*
X2483358Y2405195D02*
X2479273Y2407939D01*
X2487370Y2402326D02*
X2483358Y2405195D01*
X2491307Y2399333D02*
X2487370Y2402326D01*
X2495166Y2396216D02*
X2491307Y2399333D01*
X2498943Y2392979D02*
X2495166Y2396216D01*
X2502636Y2389623D02*
X2498943Y2392979D01*
X2506242Y2386148D02*
X2502636Y2389623D01*
X2509758Y2382558D02*
X2506242Y2386148D01*
X2513182Y2378853D02*
X2509758Y2382558D01*
X2516509Y2375036D02*
X2513182Y2378853D01*
X2519738Y2371108D02*
X2516509Y2375036D01*
X2522865Y2367070D02*
X2519738Y2371108D01*
X2525887Y2362925D02*
X2522865Y2367070D01*
X2528802Y2358674D02*
X2525887Y2362925D01*
X2531606Y2354318D02*
X2528802Y2358674D01*
X2534297Y2349860D02*
X2531606Y2354318D01*
X2536871Y2345300D02*
X2534297Y2349860D01*
X2539327Y2340642D02*
X2536871Y2345300D01*
X2541660Y2335886D02*
X2539327Y2340642D01*
X2543868Y2331033D02*
X2541660Y2335886D01*
X2545948Y2326087D02*
X2543868Y2331033D01*
X2547897Y2321047D02*
X2545948Y2326087D01*
X2549712Y2315917D02*
X2547897Y2321047D01*
X2551390Y2310697D02*
X2549712Y2315917D01*
X2552929Y2305390D02*
X2551390Y2310697D01*
X2554324Y2299996D02*
X2552929Y2305390D01*
X2555575Y2294518D02*
X2554324Y2299996D01*
X2556677Y2288958D02*
X2555575Y2294518D01*
X2557627Y2283316D02*
X2556677Y2288958D01*
X2558423Y2277596D02*
X2557627Y2283316D01*
M02*
