G04*
G04 #@! TF.GenerationSoftware,Altium Limited,Altium Designer,21.2.2 (38)*
G04*
G04 Layer_Color=65535*
%FSLAX44Y44*%
%MOMM*%
G71*
G04*
G04 #@! TF.SameCoordinates,5FF3B01B-9308-42A9-B2BD-2142B56AF961*
G04*
G04*
G04 #@! TF.FilePolarity,Positive*
G04*
G01*
G75*
%ADD10C,0.2540*%
%ADD42C,2.0000*%
D10*
X1200000Y1470000D02*
Y1485235D01*
X1207617D01*
X1210157Y1482696D01*
Y1477617D01*
X1207617Y1475078D01*
X1200000D01*
X1205078D02*
X1210157Y1470000D01*
X1217774D02*
X1222853D01*
X1225392Y1472539D01*
Y1477617D01*
X1222853Y1480157D01*
X1217774D01*
X1215235Y1477617D01*
Y1472539D01*
X1217774Y1470000D01*
X1230470Y1480157D02*
Y1472539D01*
X1233009Y1470000D01*
X1240627D01*
Y1480157D01*
X1248244Y1482696D02*
Y1480157D01*
X1245705D01*
X1250784D01*
X1248244D01*
Y1472539D01*
X1250784Y1470000D01*
X1258401D02*
X1263479D01*
X1260940D01*
Y1480157D01*
X1258401D01*
X1271097Y1470000D02*
Y1480157D01*
X1278715D01*
X1281254Y1477617D01*
Y1470000D01*
X1291410Y1464922D02*
X1293950D01*
X1296489Y1467461D01*
Y1480157D01*
X1288871D01*
X1286332Y1477617D01*
Y1472539D01*
X1288871Y1470000D01*
X1296489D01*
X1316802Y1485235D02*
X1326959D01*
X1321880D01*
Y1470000D01*
X1334577D02*
X1339655D01*
X1342194Y1472539D01*
Y1477617D01*
X1339655Y1480157D01*
X1334577D01*
X1332037Y1477617D01*
Y1472539D01*
X1334577Y1470000D01*
X1349812D02*
X1354890D01*
X1357429Y1472539D01*
Y1477617D01*
X1354890Y1480157D01*
X1349812D01*
X1347272Y1477617D01*
Y1472539D01*
X1349812Y1470000D01*
X1362507D02*
X1367586D01*
X1365047D01*
Y1485235D01*
X1362507D01*
X1390438Y1470000D02*
Y1485235D01*
X1398056D01*
X1400595Y1482696D01*
Y1477617D01*
X1398056Y1475078D01*
X1390438D01*
X1408213Y1480157D02*
X1413291D01*
X1415830Y1477617D01*
Y1470000D01*
X1408213D01*
X1405673Y1472539D01*
X1408213Y1475078D01*
X1415830D01*
X1423448Y1482696D02*
Y1480157D01*
X1420909D01*
X1425987D01*
X1423448D01*
Y1472539D01*
X1425987Y1470000D01*
X1433604Y1485235D02*
Y1470000D01*
Y1477617D01*
X1436144Y1480157D01*
X1441222D01*
X1443761Y1477617D01*
Y1470000D01*
X1454126Y1604790D02*
Y1607266D01*
X2754139Y1604790D02*
Y1607266D01*
X2285464Y2413650D02*
Y2411174D01*
D42*
X1647166Y1599710D02*
X1644789Y1600878D01*
X1642400Y1602021D01*
X1639998Y1603138D01*
X1637586Y1604232D01*
X1635162Y1605300D01*
X1632727Y1606342D01*
X1630282Y1607360D01*
X1627826Y1608352D01*
X1625360Y1609318D01*
X1622884Y1610259D01*
X1620399Y1611174D01*
X1873226Y1741950D02*
X1875575Y1742672D01*
X1877865Y1743561D01*
X1880085Y1744614D01*
X1882223Y1745825D01*
X1884267Y1747188D01*
X1886208Y1748695D01*
X1888034Y1750339D01*
X1889736Y1752110D01*
X1873226Y1741950D02*
X1873974Y1744367D01*
X1874686Y1746795D01*
X1875364Y1749232D01*
X1876008Y1751679D01*
X1876616Y1754134D01*
X1877189Y1756599D01*
X1877728Y1759070D01*
X1878230Y1761550D01*
X1878698Y1764036D01*
X1879130Y1766529D01*
X1879527Y1769028D01*
X1879888Y1771532D01*
X1880214Y1774040D01*
X1880504Y1776554D01*
X1880757Y1779071D01*
X1880976Y1781591D01*
X1881158Y1784115D01*
X1881304Y1786640D01*
X1881414Y1789168D01*
X1881489Y1791697D01*
X1881527Y1794226D01*
X1881530Y1796756D01*
X1881496Y1799286D01*
X1881426Y1801815D01*
X1881321Y1804343D01*
X1881179Y1806868D01*
X1881002Y1809392D01*
X1880788Y1811913D01*
X1880539Y1814431D01*
X1880254Y1816944D01*
X1879933Y1819454D01*
X1879577Y1821959D01*
X1879577Y1821960D02*
X1877984Y1823965D01*
X1876060Y1825656D01*
X1873867Y1826978D01*
X1871474Y1827890D01*
X1868957Y1828362D01*
X1866396Y1828379D01*
X1863873Y1827941D01*
X1861467Y1827062D01*
X1859256Y1825770D01*
X1770356Y1819420D02*
X1772457Y1817992D01*
X1774608Y1816641D01*
X1776806Y1815368D01*
X1779049Y1814175D01*
X1781334Y1813065D01*
X1783657Y1812037D01*
X1786015Y1811094D01*
X1788407Y1810237D01*
X1790827Y1809467D01*
X1793274Y1808785D01*
X1795744Y1808192D01*
X1798233Y1807688D01*
X1800740Y1807274D01*
X1803259Y1806951D01*
X1805789Y1806720D01*
X1808325Y1806580D01*
X1810865Y1806532D01*
X1813405Y1806575D01*
X1815941Y1806710D01*
X1818471Y1806937D01*
X1820991Y1807255D01*
X1823498Y1807664D01*
X1825989Y1808163D01*
X1828460Y1808751D01*
X1830908Y1809429D01*
X1833330Y1810195D01*
X1835723Y1811047D01*
X1838083Y1811985D01*
X1840408Y1813009D01*
X1842695Y1814115D01*
X1844940Y1815303D01*
X1847141Y1816572D01*
X1849294Y1817919D01*
X1851398Y1819343D01*
X1853448Y1820842D01*
X1855443Y1822415D01*
X1857380Y1824058D01*
X1859256Y1825770D01*
X1770356Y1819420D02*
X1772762Y1820295D01*
X1775151Y1821215D01*
X1777522Y1822180D01*
X1779874Y1823189D01*
X1782207Y1824243D01*
X1784520Y1825341D01*
X1786811Y1826482D01*
X1789081Y1827666D01*
X1791328Y1828892D01*
X1793551Y1830161D01*
X1795750Y1831472D01*
X1797923Y1832824D01*
X1800071Y1834216D01*
X1802193Y1835649D01*
X1804286Y1837122D01*
X1806352Y1838634D01*
X1808389Y1840185D01*
X1810396Y1841773D01*
X1812372Y1843400D01*
X1814318Y1845063D01*
X1816232Y1846763D01*
X1818114Y1848499D01*
X1819962Y1850270D01*
X1821777Y1852075D01*
X1823557Y1853915D01*
X1825302Y1855787D01*
X1827012Y1857693D01*
X1828685Y1859630D01*
X1830322Y1861598D01*
X1831920Y1863597D01*
X1833482Y1865626D01*
X1835004Y1867684D01*
X1836487Y1869770D01*
X1837931Y1871884D01*
X1839335Y1874025D01*
X1840697Y1876192D01*
X1842019Y1878384D01*
X1843300Y1880600D01*
X1844538Y1882841D01*
X1845733Y1885104D01*
X1846886Y1887390D01*
X1847995Y1889697D01*
X1849061Y1892025D01*
X1850082Y1894372D01*
X1851059Y1896738D01*
X1851991Y1899122D01*
X1860139Y1958142D02*
X1859117Y1960539D01*
X1857645Y1962688D01*
X1855779Y1964507D01*
X1853592Y1965923D01*
X1851170Y1966883D01*
X1848606Y1967348D01*
X1846001Y1967301D01*
X1843456Y1966742D01*
X1841070Y1965695D01*
X1838936Y1964200D01*
X1819886Y1951500D02*
X1822282Y1952430D01*
X1824623Y1953488D01*
X1826903Y1954673D01*
X1829115Y1955979D01*
X1831252Y1957405D01*
X1833309Y1958944D01*
X1835280Y1960593D01*
X1837157Y1962347D01*
X1838936Y1964200D01*
X1819886Y1951500D02*
X1820719Y1953900D01*
X1821515Y1956313D01*
X1822274Y1958739D01*
X1822995Y1961175D01*
X1823679Y1963622D01*
X1824325Y1966079D01*
X1824933Y1968546D01*
X1825503Y1971023D01*
X1826035Y1973507D01*
X1826528Y1976000D01*
X1826983Y1978499D01*
X1827400Y1981006D01*
X1827778Y1983519D01*
X1828117Y1986037D01*
X1828418Y1988560D01*
X1828679Y1991087D01*
X1828902Y1993618D01*
X1829085Y1996152D01*
X1829230Y1998689D01*
X1829336Y2001228D01*
X1829402Y2003768D01*
X1829429Y2006309D01*
X1829418Y2008849D01*
X1829367Y2011390D01*
X1829277Y2013929D01*
X1829148Y2016467D01*
X1828980Y2019002D01*
X1828773Y2021534D01*
X1828527Y2024063D01*
X1828242Y2026588D01*
X1827918Y2029108D01*
X1827556Y2031623D01*
X1827154Y2034132D01*
X1826715Y2036635D01*
X1826237Y2039130D01*
X1826237D02*
X1825569Y2041617D01*
X1824395Y2043909D01*
X1822766Y2045904D01*
X1820755Y2047513D01*
X1818452Y2048665D01*
X1815958Y2049308D01*
X1813385Y2049414D01*
X1810847Y2048978D01*
X1808457Y2048020D01*
X1720827Y2075960D02*
X1722150Y2073822D01*
X1723550Y2071734D01*
X1725025Y2069697D01*
X1726573Y2067716D01*
X1728192Y2065792D01*
X1729880Y2063928D01*
X1731634Y2062127D01*
X1733452Y2060390D01*
X1735333Y2058721D01*
X1737272Y2057121D01*
X1739268Y2055592D01*
X1741319Y2054137D01*
X1743421Y2052757D01*
X1745572Y2051454D01*
X1747768Y2050231D01*
X1750008Y2049087D01*
X1752287Y2048026D01*
X1754604Y2047048D01*
X1756954Y2046155D01*
X1759335Y2045348D01*
X1761745Y2044628D01*
X1764178Y2043996D01*
X1766633Y2043452D01*
X1769106Y2042998D01*
X1771594Y2042634D01*
X1774093Y2042360D01*
X1776601Y2042178D01*
X1779114Y2042086D01*
X1781628Y2042086D01*
X1784141Y2042177D01*
X1786649Y2042359D01*
X1789149Y2042632D01*
X1791636Y2042995D01*
X1794110Y2043449D01*
X1796565Y2043992D01*
X1798998Y2044624D01*
X1801408Y2045344D01*
X1803789Y2046150D01*
X1806140Y2047043D01*
X1808457Y2048020D01*
X1720827Y2075960D02*
X1723192Y2076862D01*
X1725534Y2077822D01*
X1727852Y2078839D01*
X1730144Y2079913D01*
X1732410Y2081043D01*
X1734646Y2082229D01*
X1736853Y2083469D01*
X1739028Y2084763D01*
X1741171Y2086111D01*
X1743280Y2087511D01*
X1745354Y2088962D01*
X1747391Y2090464D01*
X1749391Y2092016D01*
X1751352Y2093617D01*
X1753273Y2095266D01*
X1755153Y2096961D01*
X1756990Y2098702D01*
X1758784Y2100488D01*
X1760534Y2102318D01*
X1762238Y2104190D01*
X1763895Y2106103D01*
X1765504Y2108057D01*
X1767065Y2110050D01*
X1768577Y2112081D01*
X1770037Y2114148D01*
X1771447Y2116250D01*
X1772804Y2118387D01*
X1774108Y2120557D01*
X1775358Y2122758D01*
X1776554Y2124989D01*
X1777694Y2127249D01*
X1778779Y2129536D01*
X1779806Y2131850D01*
X1780777Y2134188D01*
X1781689Y2136549D01*
X1782543Y2138932D01*
X1783338Y2141335D01*
X1784073Y2143757D01*
X1784749Y2146197D01*
X1785365Y2148652D01*
X1785919Y2151122D01*
X1786413Y2153605D01*
X1786845Y2156099D01*
X1787216Y2158603D01*
X1787525Y2161116D01*
X1787771Y2163635D01*
X1787956Y2166160D01*
X1788079Y2168688D01*
X1788139Y2171219D01*
X1788136Y2173750D01*
Y2173750D02*
X1787956Y2176169D01*
X1787296Y2178503D01*
X1786183Y2180657D01*
X1784661Y2182546D01*
X1782792Y2184092D01*
X1780652Y2185234D01*
X1778327Y2185924D01*
X1775911Y2186136D01*
X1773501Y2185860D01*
X1771196Y2185108D01*
X1769086Y2183910D01*
X1760197Y2180100D02*
X1762633Y2180462D01*
X1764971Y2181235D01*
X1767144Y2182396D01*
X1769086Y2183910D01*
X1760197Y2180100D02*
X1761651Y2182181D01*
X1763027Y2184315D01*
X1764324Y2186498D01*
X1765538Y2188728D01*
X1766669Y2191001D01*
X1767715Y2193315D01*
X1768674Y2195666D01*
X1769546Y2198051D01*
X1770328Y2200466D01*
X1771021Y2202909D01*
X1771622Y2205376D01*
X1772131Y2207864D01*
X1772548Y2210368D01*
X1772871Y2212887D01*
X1773101Y2215415D01*
X1773237Y2217951D01*
X1773279Y2220490D01*
X1773227Y2223028D01*
X1773080Y2225563D01*
X1772840Y2228091D01*
X1772506Y2230608D01*
X1772079Y2233111D01*
X1771559Y2235596D01*
X1770947Y2238060D01*
X1770245Y2240500D01*
X1769452Y2242913D01*
X1768571Y2245294D01*
X1767602Y2247641D01*
X1766546Y2249950D01*
X1764505Y2251625D01*
X1762176Y2252870D01*
X1759649Y2253637D01*
X1757021Y2253895D01*
X1754394Y2253637D01*
X1751867Y2252870D01*
X1749538Y2251625D01*
X1747496Y2249950D01*
X1670027Y2247410D02*
X1672072Y2245891D01*
X1674179Y2244460D01*
X1676344Y2243117D01*
X1678564Y2241867D01*
X1680834Y2240712D01*
X1683151Y2239652D01*
X1685510Y2238691D01*
X1687907Y2237829D01*
X1690339Y2237069D01*
X1692800Y2236412D01*
X1695286Y2235858D01*
X1697794Y2235409D01*
X1700318Y2235066D01*
X1702855Y2234829D01*
X1705399Y2234699D01*
X1707946Y2234676D01*
X1710492Y2234759D01*
X1713033Y2234949D01*
X1715563Y2235246D01*
X1718078Y2235649D01*
X1720575Y2236156D01*
X1723047Y2236768D01*
X1725493Y2237484D01*
X1727905Y2238301D01*
X1730282Y2239219D01*
X1732617Y2240235D01*
X1734908Y2241349D01*
X1737151Y2242558D01*
X1739341Y2243860D01*
X1741474Y2245253D01*
X1743546Y2246734D01*
X1745555Y2248300D01*
X1747496Y2249950D01*
X1670027Y2247410D02*
X1672240Y2248593D01*
X1674422Y2249834D01*
X1676570Y2251132D01*
X1678683Y2252487D01*
X1680759Y2253896D01*
X1682798Y2255359D01*
X1684798Y2256876D01*
X1686757Y2258445D01*
X1688674Y2260065D01*
X1690548Y2261735D01*
X1692377Y2263453D01*
X1694160Y2265220D01*
X1695896Y2267032D01*
X1697584Y2268890D01*
X1699222Y2270791D01*
X1700810Y2272735D01*
X1702346Y2274720D01*
X1703829Y2276745D01*
X1705258Y2278808D01*
X1706633Y2280908D01*
X1707951Y2283043D01*
X1709213Y2285213D01*
X1710418Y2287415D01*
X1711564Y2289648D01*
X1712650Y2291910D01*
X1713677Y2294200D01*
X1714644Y2296517D01*
X1715548Y2298857D01*
X1716977Y2358757D02*
X1715334Y2360604D01*
X1713396Y2362139D01*
X1711221Y2363313D01*
X1708875Y2364093D01*
X1706429Y2364454D01*
X1703958Y2364385D01*
X1701536Y2363889D01*
X1699236Y2362980D01*
X1673837Y2364250D02*
X1675607Y2362322D01*
X1677655Y2360691D01*
X1679931Y2359398D01*
X1682380Y2358473D01*
X1684942Y2357939D01*
X1687557Y2357808D01*
X1690160Y2358084D01*
X1692689Y2358760D01*
X1695082Y2359820D01*
X1697283Y2361238D01*
X1699236Y2362980D01*
X1673837Y2364250D02*
X1675961Y2365740D01*
X1677937Y2367422D01*
X1679747Y2369282D01*
X1681375Y2371302D01*
X1682808Y2373466D01*
X1684032Y2375754D01*
X1685037Y2378147D01*
X1685814Y2380622D01*
X1686356Y2383160D01*
X1686658Y2385737D01*
X1686719Y2388331D01*
X1686537Y2390920D01*
Y2390920D02*
X1686466Y2393428D01*
X1685932Y2395879D01*
X1684951Y2398188D01*
X1683559Y2400275D01*
X1681803Y2402067D01*
X1679745Y2403501D01*
X1677457Y2404529D01*
X1675017Y2405114D01*
X1672511Y2405236D01*
X1670027Y2404890D01*
X1586207Y2484900D02*
X1586452Y2482378D01*
X1586772Y2479864D01*
X1587163Y2477360D01*
X1587628Y2474868D01*
X1588164Y2472392D01*
X1588773Y2469931D01*
X1589452Y2467490D01*
X1590202Y2465069D01*
X1591022Y2462671D01*
X1591911Y2460298D01*
X1592869Y2457952D01*
X1593895Y2455634D01*
X1594987Y2453348D01*
X1596146Y2451094D01*
X1597369Y2448874D01*
X1598656Y2446691D01*
X1600006Y2444547D01*
X1601418Y2442442D01*
X1602890Y2440379D01*
X1604422Y2438360D01*
X1606011Y2436386D01*
X1607657Y2434459D01*
X1609359Y2432581D01*
X1611114Y2430753D01*
X1612922Y2428977D01*
X1614780Y2427254D01*
X1616688Y2425585D01*
X1618643Y2423973D01*
X1620644Y2422418D01*
X1622690Y2420922D01*
X1624778Y2419486D01*
X1626907Y2418111D01*
X1629075Y2416799D01*
X1631280Y2415550D01*
X1633521Y2414366D01*
X1635794Y2413247D01*
X1638100Y2412195D01*
X1640435Y2411210D01*
X1642798Y2410293D01*
X1645186Y2409445D01*
X1647598Y2408667D01*
X1650031Y2407960D01*
X1652484Y2407323D01*
X1654955Y2406758D01*
X1657440Y2406264D01*
X1659940Y2405844D01*
X1662450Y2405495D01*
X1664969Y2405220D01*
X1667495Y2405018D01*
X1670026Y2404890D01*
X1615417Y2512840D02*
X1613521Y2511169D01*
X1611634Y2509488D01*
X1609756Y2507796D01*
X1607888Y2506095D01*
X1606029Y2504383D01*
X1604179Y2502661D01*
X1602339Y2500929D01*
X1600508Y2499187D01*
X1598686Y2497435D01*
X1596875Y2495674D01*
X1595072Y2493902D01*
X1593280Y2492121D01*
X1591496Y2490330D01*
X1589723Y2488530D01*
X1587960Y2486720D01*
X1586207Y2484900D01*
X1615417Y2512840D02*
X1617169Y2514698D01*
X1618526Y2516862D01*
X1619436Y2519248D01*
X1619864Y2521766D01*
X1619793Y2524319D01*
X1619227Y2526810D01*
X1618186Y2529142D01*
X1616710Y2531228D01*
X1614857Y2532985D01*
X1612697Y2534349D01*
X1610313Y2535265D01*
X1607796Y2535700D01*
X1569697Y2540780D02*
X1572224Y2540357D01*
X1574754Y2539946D01*
X1577286Y2539547D01*
X1579820Y2539161D01*
X1582355Y2538786D01*
X1584893Y2538423D01*
X1587432Y2538072D01*
X1589972Y2537734D01*
X1592514Y2537407D01*
X1595058Y2537092D01*
X1597603Y2536790D01*
X1600150Y2536499D01*
X1602698Y2536221D01*
X1605247Y2535954D01*
X1607797Y2535700D01*
X1569697Y2540780D02*
X1568864Y2543214D01*
X1568026Y2545645D01*
X1567182Y2548074D01*
X1566331Y2550501D01*
X1565475Y2552926D01*
X1564613Y2555349D01*
X1563745Y2557770D01*
X1562871Y2560189D01*
X1561991Y2562606D01*
X1561104Y2565020D01*
X1560212Y2567432D01*
X1559314Y2569842D01*
X1558410Y2572249D01*
X1557500Y2574655D01*
X1556585Y2577058D01*
X1555663Y2579459D01*
X1554735Y2581858D01*
X1553802Y2584254D01*
X1552862Y2586648D01*
X1551917Y2589040D01*
X1551917D02*
X1550554Y2591104D01*
X1548792Y2592840D01*
X1546708Y2594172D01*
X1544393Y2595043D01*
X1541948Y2595413D01*
X1539479Y2595268D01*
X1537094Y2594613D01*
X1534897Y2593477D01*
X1532984Y2591910D01*
X1531438Y2589980D01*
X1530327Y2587770D01*
X1530327Y2587770D02*
X1529426Y2585425D01*
X1528527Y2583080D01*
X1527628Y2580733D01*
X1526731Y2578387D01*
X1525836Y2576040D01*
X1524941Y2573693D01*
X1524048Y2571345D01*
X1523156Y2568996D01*
X1522265Y2566648D01*
X1521375Y2564298D01*
X1520487Y2561949D01*
X1519600Y2559598D01*
X1518714Y2557247D01*
X1517829Y2554896D01*
X1516946Y2552545D01*
X1516063Y2550193D01*
X1515182Y2547840D01*
X1514303Y2545487D01*
X1513424Y2543134D01*
X1512547Y2540780D01*
X1512547Y2540780D02*
X1510002Y2540499D01*
X1507458Y2540214D01*
X1504915Y2539923D01*
X1502372Y2539628D01*
X1499830Y2539327D01*
X1497288Y2539022D01*
X1494747Y2538712D01*
X1492206Y2538397D01*
X1489666Y2538077D01*
X1487127Y2537752D01*
X1484589Y2537422D01*
X1482051Y2537088D01*
X1479513Y2536748D01*
X1476977Y2536404D01*
X1474441Y2536054D01*
X1471906Y2535700D01*
X1471906Y2535700D02*
X1469606Y2534635D01*
X1467538Y2533167D01*
X1465773Y2531346D01*
X1464371Y2529233D01*
X1463378Y2526900D01*
X1462828Y2524424D01*
X1462739Y2521890D01*
X1463115Y2519382D01*
X1463942Y2516985D01*
X1465193Y2514780D01*
X1466826Y2512840D01*
X1466826Y2512840D02*
X1468719Y2511080D01*
X1470613Y2509323D01*
X1472509Y2507567D01*
X1474406Y2505812D01*
X1476305Y2504060D01*
X1478206Y2502309D01*
X1480108Y2500560D01*
X1482012Y2498813D01*
X1483918Y2497068D01*
X1485825Y2495325D01*
X1487734Y2493583D01*
X1489645Y2491843D01*
X1491557Y2490105D01*
X1493471Y2488369D01*
X1495387Y2486635D01*
X1497304Y2484902D01*
X1408407Y2406160D02*
X1410953Y2406191D01*
X1413498Y2406295D01*
X1416039Y2406471D01*
X1418574Y2406720D01*
X1421100Y2407041D01*
X1423617Y2407434D01*
X1426121Y2407898D01*
X1428611Y2408433D01*
X1431085Y2409039D01*
X1433540Y2409716D01*
X1435975Y2410462D01*
X1438388Y2411277D01*
X1440777Y2412161D01*
X1443139Y2413112D01*
X1445474Y2414131D01*
X1447778Y2415215D01*
X1450051Y2416365D01*
X1452290Y2417579D01*
X1454494Y2418856D01*
X1456660Y2420196D01*
X1458787Y2421596D01*
X1460873Y2423057D01*
X1462917Y2424577D01*
X1464917Y2426154D01*
X1466871Y2427788D01*
X1468777Y2429477D01*
X1470635Y2431219D01*
X1472442Y2433013D01*
X1474197Y2434859D01*
X1475900Y2436754D01*
X1477547Y2438696D01*
X1479138Y2440685D01*
X1480672Y2442718D01*
X1482148Y2444794D01*
X1483564Y2446911D01*
X1484918Y2449068D01*
X1486211Y2451262D01*
X1487441Y2453492D01*
X1488606Y2455757D01*
X1489707Y2458054D01*
X1490742Y2460381D01*
X1491710Y2462737D01*
X1492610Y2465119D01*
X1493442Y2467526D01*
X1494206Y2469956D01*
X1494899Y2472407D01*
X1495523Y2474876D01*
X1496076Y2477362D01*
X1496558Y2479863D01*
X1496968Y2482377D01*
X1497307Y2484900D01*
X1408407Y2406160D02*
X1405817Y2405780D01*
X1403352Y2404902D01*
X1401105Y2403560D01*
X1399163Y2401805D01*
X1397601Y2399706D01*
X1396479Y2397341D01*
X1395839Y2394804D01*
X1395706Y2392190D01*
X1395661Y2389651D01*
X1395797Y2387115D01*
X1396113Y2384595D01*
X1396608Y2382104D01*
X1397279Y2379655D01*
X1398123Y2377260D01*
X1399136Y2374931D01*
X1400312Y2372680D01*
X1401645Y2370518D01*
X1403129Y2368457D01*
X1404757Y2366508D01*
X1406519Y2364679D01*
X1408407Y2362980D01*
X1381736Y2362980D02*
X1383826Y2361348D01*
X1386114Y2360007D01*
X1388558Y2358979D01*
X1391117Y2358284D01*
X1393746Y2357934D01*
X1396397D01*
X1399026Y2358284D01*
X1401585Y2358979D01*
X1404029Y2360007D01*
X1406317Y2361348D01*
X1408407Y2362980D01*
X1381736D02*
X1379590Y2364060D01*
X1377271Y2364689D01*
X1374873Y2364841D01*
X1372493Y2364512D01*
X1370227Y2363713D01*
X1368166Y2362477D01*
X1366394Y2360854D01*
X1364982Y2358910D01*
X1366983Y2297636D02*
X1367936Y2295260D01*
X1368954Y2292912D01*
X1370035Y2290591D01*
X1371178Y2288301D01*
X1372383Y2286042D01*
X1373648Y2283817D01*
X1374973Y2281627D01*
X1376356Y2279473D01*
X1377797Y2277357D01*
X1379295Y2275282D01*
X1380848Y2273247D01*
X1382456Y2271255D01*
X1384117Y2269308D01*
X1385830Y2267406D01*
X1387594Y2265551D01*
X1389407Y2263744D01*
X1391269Y2261987D01*
X1393177Y2260281D01*
X1395130Y2258627D01*
X1397128Y2257026D01*
X1399168Y2255480D01*
X1401249Y2253990D01*
X1403370Y2252556D01*
X1405529Y2251181D01*
X1407724Y2249864D01*
X1409953Y2248607D01*
X1412216Y2247410D01*
X1333477Y2251220D02*
X1335343Y2249518D01*
X1337280Y2247896D01*
X1339283Y2246356D01*
X1341349Y2244901D01*
X1343473Y2243534D01*
X1345653Y2242257D01*
X1347885Y2241073D01*
X1350164Y2239982D01*
X1352487Y2238989D01*
X1354849Y2238093D01*
X1357247Y2237297D01*
X1359676Y2236602D01*
X1362132Y2236010D01*
X1364610Y2235520D01*
X1367107Y2235135D01*
X1369618Y2234855D01*
X1372138Y2234680D01*
X1374664Y2234611D01*
X1377190Y2234648D01*
X1379713Y2234790D01*
X1382227Y2235037D01*
X1384728Y2235390D01*
X1387213Y2235847D01*
X1389677Y2236408D01*
X1392114Y2237071D01*
X1394522Y2237836D01*
X1396896Y2238701D01*
X1399231Y2239665D01*
X1401525Y2240725D01*
X1403771Y2241880D01*
X1405968Y2243129D01*
X1408110Y2244468D01*
X1410194Y2245896D01*
X1412216Y2247410D01*
X1333477Y2251220D02*
X1331282Y2252294D01*
X1328931Y2252961D01*
X1326499Y2253199D01*
X1324064Y2252999D01*
X1321703Y2252370D01*
X1319492Y2251330D01*
X1317501Y2249913D01*
X1315795Y2248165D01*
X1314427Y2246140D01*
X1314427D02*
X1313591Y2243727D01*
X1312839Y2241287D01*
X1312172Y2238823D01*
X1311590Y2236337D01*
X1311094Y2233832D01*
X1310685Y2231312D01*
X1310363Y2228779D01*
X1310128Y2226237D01*
X1309981Y2223687D01*
X1309922Y2221135D01*
X1309951Y2218582D01*
X1310069Y2216031D01*
X1310274Y2213486D01*
X1310566Y2210950D01*
X1310946Y2208425D01*
X1311413Y2205915D01*
X1311966Y2203422D01*
X1312605Y2200950D01*
X1313328Y2198501D01*
X1314136Y2196079D01*
X1315026Y2193686D01*
X1315999Y2191325D01*
X1317052Y2188999D01*
X1318185Y2186711D01*
X1319396Y2184464D01*
X1320684Y2182259D01*
X1322047Y2180100D01*
X1311886Y2185180D02*
X1313539Y2183537D01*
X1315432Y2182177D01*
X1317517Y2181135D01*
X1319740Y2180436D01*
X1322047Y2180100D01*
X1311886Y2185180D02*
X1309403Y2185629D01*
X1306879Y2185641D01*
X1304391Y2185213D01*
X1302015Y2184361D01*
X1299824Y2183108D01*
X1297883Y2181495D01*
X1296252Y2179568D01*
X1294980Y2177388D01*
X1294106Y2175020D01*
X1294077Y2172464D01*
X1294112Y2169908D01*
X1294209Y2167354D01*
X1294371Y2164803D01*
X1294595Y2162256D01*
X1294883Y2159716D01*
X1295233Y2157184D01*
X1295647Y2154662D01*
X1296122Y2152150D01*
X1296660Y2149651D01*
X1297260Y2147166D01*
X1297921Y2144697D01*
X1298644Y2142245D01*
X1299427Y2139812D01*
X1300270Y2137399D01*
X1301173Y2135007D01*
X1302135Y2132639D01*
X1303155Y2130295D01*
X1304233Y2127978D01*
X1305369Y2125688D01*
X1306561Y2123426D01*
X1307809Y2121195D01*
X1309111Y2118996D01*
X1310468Y2116830D01*
X1311879Y2114698D01*
X1313341Y2112601D01*
X1314856Y2110542D01*
X1316421Y2108521D01*
X1318035Y2106539D01*
X1319699Y2104598D01*
X1321410Y2102699D01*
X1323167Y2100843D01*
X1324971Y2099032D01*
X1326818Y2097265D01*
X1328709Y2095545D01*
X1330642Y2093872D01*
X1332616Y2092248D01*
X1334630Y2090674D01*
X1336682Y2089149D01*
X1338771Y2087677D01*
X1340896Y2086256D01*
X1343056Y2084889D01*
X1345249Y2083576D01*
X1347474Y2082318D01*
X1349730Y2081115D01*
X1352014Y2079968D01*
X1354327Y2078879D01*
X1356666Y2077847D01*
X1359030Y2076874D01*
X1361416Y2075960D01*
X1276327Y2048020D02*
X1278643Y2047020D01*
X1280995Y2046109D01*
X1283380Y2045289D01*
X1285795Y2044560D01*
X1288236Y2043924D01*
X1290700Y2043381D01*
X1293182Y2042933D01*
X1295680Y2042579D01*
X1298189Y2042321D01*
X1300707Y2042159D01*
X1303228Y2042094D01*
X1305751Y2042124D01*
X1308270Y2042251D01*
X1310783Y2042473D01*
X1313285Y2042792D01*
X1315774Y2043205D01*
X1318245Y2043713D01*
X1320694Y2044315D01*
X1323119Y2045010D01*
X1325516Y2045797D01*
X1327881Y2046675D01*
X1330211Y2047643D01*
X1332502Y2048698D01*
X1334751Y2049840D01*
X1336955Y2051067D01*
X1339111Y2052377D01*
X1341215Y2053769D01*
X1343264Y2055240D01*
X1345256Y2056788D01*
X1347188Y2058410D01*
X1349056Y2060106D01*
X1350858Y2061871D01*
X1352591Y2063703D01*
X1354253Y2065601D01*
X1355842Y2067560D01*
X1357355Y2069579D01*
X1358790Y2071654D01*
X1360144Y2073782D01*
X1361416Y2075960D01*
X1276327Y2048020D02*
X1273821Y2048878D01*
X1271198Y2049242D01*
X1268553Y2049101D01*
X1265984Y2048458D01*
X1263584Y2047338D01*
X1261441Y2045782D01*
X1259634Y2043846D01*
X1258229Y2041601D01*
X1257277Y2039130D01*
X1257277Y2039130D02*
X1256716Y2036650D01*
X1256196Y2034160D01*
X1255717Y2031663D01*
X1255279Y2029158D01*
X1254883Y2026646D01*
X1254528Y2024127D01*
X1254215Y2021604D01*
X1253943Y2019075D01*
X1253714Y2016543D01*
X1253526Y2014007D01*
X1253380Y2011468D01*
X1253275Y2008927D01*
X1253213Y2006384D01*
X1253192Y2003842D01*
X1253214Y2001299D01*
X1253277Y1998756D01*
X1253382Y1996215D01*
X1253530Y1993677D01*
X1253719Y1991141D01*
X1253950Y1988608D01*
X1254222Y1986080D01*
X1254536Y1983556D01*
X1254892Y1981038D01*
X1255289Y1978526D01*
X1255728Y1976021D01*
X1256208Y1973524D01*
X1256729Y1971035D01*
X1257290Y1968555D01*
X1257893Y1966084D01*
X1258537Y1963624D01*
X1259220Y1961174D01*
X1259945Y1958737D01*
X1260709Y1956311D01*
X1261513Y1953898D01*
X1262356Y1951500D01*
X1243307Y1964200D02*
X1245170Y1962447D01*
X1247106Y1960773D01*
X1249109Y1959181D01*
X1251177Y1957675D01*
X1253306Y1956255D01*
X1255492Y1954926D01*
X1257732Y1953689D01*
X1260021Y1952546D01*
X1262356Y1951500D01*
X1243307Y1964200D02*
X1241278Y1965776D01*
X1238961Y1966884D01*
X1236461Y1967473D01*
X1233892Y1967516D01*
X1231374Y1967011D01*
X1229021Y1965981D01*
X1226941Y1964474D01*
X1225229Y1962559D01*
X1223965Y1960323D01*
X1223206Y1957869D01*
X1222987Y1955310D01*
X1232140Y1894250D02*
X1233130Y1891885D01*
X1234166Y1889540D01*
X1235247Y1887216D01*
X1236375Y1884913D01*
X1237546Y1882633D01*
X1238763Y1880376D01*
X1240023Y1878143D01*
X1241327Y1875935D01*
X1242673Y1873754D01*
X1244062Y1871599D01*
X1245493Y1869471D01*
X1246966Y1867372D01*
X1248479Y1865303D01*
X1250032Y1863263D01*
X1251625Y1861254D01*
X1253257Y1859277D01*
X1254928Y1857332D01*
X1256636Y1855420D01*
X1258381Y1853542D01*
X1260162Y1851698D01*
X1261980Y1849890D01*
X1263832Y1848117D01*
X1265719Y1846381D01*
X1267639Y1844682D01*
X1269592Y1843021D01*
X1271577Y1841399D01*
X1273594Y1839816D01*
X1275641Y1838273D01*
X1277718Y1836770D01*
X1279825Y1835307D01*
X1281959Y1833887D01*
X1284120Y1832508D01*
X1286309Y1831172D01*
X1288523Y1829879D01*
X1290762Y1828630D01*
X1293024Y1827425D01*
X1295310Y1826264D01*
X1297619Y1825148D01*
X1299948Y1824078D01*
X1302298Y1823053D01*
X1304668Y1822075D01*
X1307057Y1821143D01*
X1309463Y1820258D01*
X1311886Y1819420D01*
X1221717Y1827040D02*
X1223528Y1825283D01*
X1225402Y1823593D01*
X1227335Y1821971D01*
X1229326Y1820421D01*
X1231371Y1818943D01*
X1233468Y1817540D01*
X1235615Y1816213D01*
X1237808Y1814965D01*
X1240045Y1813797D01*
X1242322Y1812710D01*
X1244637Y1811706D01*
X1246987Y1810787D01*
X1249369Y1809953D01*
X1251779Y1809205D01*
X1254214Y1808544D01*
X1256672Y1807972D01*
X1259149Y1807489D01*
X1261641Y1807096D01*
X1264146Y1806793D01*
X1266661Y1806581D01*
X1269181Y1806459D01*
X1271705Y1806428D01*
X1274227Y1806489D01*
X1276746Y1806640D01*
X1279258Y1806883D01*
X1281759Y1807215D01*
X1284247Y1807638D01*
X1286718Y1808150D01*
X1289169Y1808752D01*
X1291596Y1809441D01*
X1293997Y1810217D01*
X1296369Y1811080D01*
X1298707Y1812027D01*
X1301010Y1813058D01*
X1303275Y1814172D01*
X1305497Y1815366D01*
X1307675Y1816640D01*
X1309806Y1817992D01*
X1311886Y1819420D01*
X1221717Y1827040D02*
X1219595Y1828185D01*
X1217291Y1828899D01*
X1214894Y1829154D01*
X1212492Y1828941D01*
X1210177Y1828267D01*
X1208036Y1827158D01*
X1206149Y1825656D01*
X1204589Y1823818D01*
X1203413Y1821713D01*
X1202666Y1819420D01*
Y1819420D02*
X1202299Y1816916D01*
X1201969Y1814407D01*
X1201677Y1811893D01*
X1201424Y1809375D01*
X1201208Y1806854D01*
X1201031Y1804330D01*
X1200893Y1801803D01*
X1200792Y1799274D01*
X1200730Y1796744D01*
X1200707Y1794214D01*
X1200722Y1791683D01*
X1200775Y1789153D01*
X1200867Y1786624D01*
X1200997Y1784097D01*
X1201165Y1781571D01*
X1201372Y1779049D01*
X1201617Y1776530D01*
X1201900Y1774016D01*
X1202222Y1771505D01*
X1202581Y1769000D01*
X1202978Y1766501D01*
X1203414Y1764008D01*
X1203887Y1761522D01*
X1204398Y1759044D01*
X1204946Y1756573D01*
X1205531Y1754111D01*
X1206154Y1751658D01*
X1206815Y1749215D01*
X1207512Y1746783D01*
X1208246Y1744361D01*
X1209016Y1741950D01*
X1192507Y1752110D02*
X1194315Y1750471D01*
X1196208Y1748929D01*
X1198179Y1747489D01*
X1200223Y1746156D01*
X1202335Y1744931D01*
X1204509Y1743820D01*
X1206738Y1742826D01*
X1209016Y1741950D01*
X1192506Y1752110D02*
X1190439Y1753528D01*
X1188141Y1754534D01*
X1185696Y1755090D01*
X1183189Y1755177D01*
X1180711Y1754792D01*
X1178350Y1753948D01*
X1176188Y1752677D01*
X1174304Y1751022D01*
X1172763Y1749043D01*
X1171622Y1746811D01*
X1170919Y1744403D01*
X1170682Y1741907D01*
X1170917Y1739410D01*
X1170917D02*
X1171218Y1736877D01*
X1171555Y1734347D01*
X1171926Y1731823D01*
X1172333Y1729304D01*
X1172773Y1726791D01*
X1173249Y1724285D01*
X1173759Y1721785D01*
X1174303Y1719292D01*
X1174881Y1716807D01*
X1175494Y1714330D01*
X1176140Y1711862D01*
X1176821Y1709403D01*
X1177535Y1706954D01*
X1178283Y1704514D01*
X1179065Y1702086D01*
X1179880Y1699668D01*
X1180728Y1697262D01*
X1181609Y1694867D01*
X1182523Y1692485D01*
X1183469Y1690116D01*
X1184448Y1687760D01*
X1185460Y1685417D01*
X1186504Y1683089D01*
X1187579Y1680775D01*
X1188687Y1678477D01*
X1189826Y1676194D01*
X1190996Y1673927D01*
X1192197Y1671676D01*
X1193429Y1669442D01*
X1194692Y1667225D01*
X1195985Y1665025D01*
X1197309Y1662844D01*
X1198662Y1660681D01*
X1200045Y1658537D01*
X1201457Y1656412D01*
X1202898Y1654307D01*
X1204369Y1652222D01*
X1205868Y1650157D01*
X1207395Y1648113D01*
X1208950Y1646090D01*
X1210533Y1644089D01*
X1212143Y1642110D01*
X1213780Y1640153D01*
X1215444Y1638219D01*
X1217135Y1636308D01*
X1218851Y1634420D01*
X1220594Y1632557D01*
X1222362Y1630717D01*
X1224155Y1628902D01*
X1225973Y1627112D01*
X1227815Y1625347D01*
X1229682Y1623608D01*
X1231572Y1621894D01*
X1233486Y1620206D01*
X1235423Y1618546D01*
X1237382Y1616911D01*
X1239364Y1615305D01*
X1241367Y1613725D01*
X1243393Y1612173D01*
X1245439Y1610649D01*
X1247506Y1609154D01*
X1249594Y1607687D01*
X1251701Y1606249D01*
X1253829Y1604840D01*
X1255975Y1603461D01*
X1258140Y1602111D01*
X1260323Y1600791D01*
X1262525Y1599501D01*
X1264744Y1598242D01*
X1266980Y1597014D01*
X1269233Y1595816D01*
X1271502Y1594649D01*
X1273787Y1593514D01*
X1276087Y1592411D01*
X1278403Y1591339D01*
X1280733Y1590299D01*
X1283076Y1589291D01*
X1285434Y1588316D01*
X1287805Y1587373D01*
X1290188Y1586463D01*
X1292584Y1585586D01*
X1294992Y1584742D01*
X1297411Y1583931D01*
X1299841Y1583153D01*
X1302282Y1582409D01*
X1304732Y1581699D01*
X1307192Y1581022D01*
X1309662Y1580379D01*
X1312139Y1579771D01*
X1314625Y1579196D01*
X1317119Y1578656D01*
X1319619Y1578151D01*
X1322127Y1577679D01*
X1324641Y1577243D01*
X1327160Y1576841D01*
X1329685Y1576473D01*
X1332214Y1576141D01*
X1334748Y1575843D01*
X1337286Y1575580D01*
X1337287Y1575580D02*
X1339816Y1575411D01*
X1342348Y1575282D01*
X1344881Y1575194D01*
X1347416Y1575146D01*
X1349951Y1575139D01*
X1352486Y1575173D01*
X1355020Y1575248D01*
X1357552Y1575363D01*
X1360083Y1575518D01*
X1362610Y1575714D01*
X1365134Y1575951D01*
X1367654Y1576228D01*
X1370169Y1576545D01*
X1372679Y1576902D01*
X1375183Y1577300D01*
X1377680Y1577738D01*
X1380170Y1578216D01*
X1382651Y1578733D01*
X1385124Y1579291D01*
X1387588Y1579888D01*
X1390042Y1580524D01*
X1392486Y1581199D01*
X1394918Y1581914D01*
X1397338Y1582668D01*
X1399747Y1583460D01*
X1402142Y1584290D01*
X1404523Y1585159D01*
X1406891Y1586066D01*
X1409243Y1587011D01*
X1411580Y1587993D01*
X1413901Y1589013D01*
X1416205Y1590070D01*
X1418492Y1591164D01*
X1420762Y1592294D01*
X1423013Y1593460D01*
X1425244Y1594662D01*
X1427457Y1595900D01*
X1454225Y1607364D02*
X1451739Y1606449D01*
X1449263Y1605508D01*
X1446797Y1604542D01*
X1444341Y1603550D01*
X1441896Y1602532D01*
X1439461Y1601490D01*
X1437037Y1600421D01*
X1434624Y1599328D01*
X1432223Y1598210D01*
X1429834Y1597068D01*
X1427457Y1595900D01*
X1649707Y1598440D02*
X1651913Y1597236D01*
X1654135Y1596061D01*
X1656371Y1594914D01*
X1658622Y1593796D01*
X1660887Y1592706D01*
X1663166Y1591646D01*
X1665458Y1590615D01*
X1667763Y1589613D01*
X1670081Y1588640D01*
X1672411Y1587698D01*
X1674753Y1586785D01*
X1677106Y1585902D01*
X1679471Y1585050D01*
X1681846Y1584227D01*
X1684231Y1583436D01*
X1686626Y1582674D01*
X1689031Y1581943D01*
X1691445Y1581243D01*
X1693868Y1580574D01*
X1696299Y1579937D01*
X1698738Y1579330D01*
X1701185Y1578754D01*
X1703638Y1578210D01*
X1706099Y1577697D01*
X1708566Y1577215D01*
X1711039Y1576765D01*
X1713517Y1576347D01*
X1716001Y1575961D01*
X1718489Y1575606D01*
X1720981Y1575283D01*
X1723478Y1574992D01*
X1725978Y1574733D01*
X1728481Y1574505D01*
X1730986Y1574310D01*
X1730986D02*
X1733536Y1574353D01*
X1736085Y1574431D01*
X1738632Y1574545D01*
X1741178Y1574695D01*
X1743721Y1574879D01*
X1746261Y1575100D01*
X1748799Y1575355D01*
X1751332Y1575646D01*
X1753861Y1575972D01*
X1756385Y1576334D01*
X1758904Y1576730D01*
X1761417Y1577162D01*
X1763924Y1577628D01*
X1766424Y1578130D01*
X1768917Y1578666D01*
X1771402Y1579237D01*
X1773879Y1579843D01*
X1776348Y1580483D01*
X1778807Y1581157D01*
X1781256Y1581865D01*
X1783696Y1582608D01*
X1786125Y1583384D01*
X1788543Y1584194D01*
X1790949Y1585038D01*
X1793343Y1585916D01*
X1795725Y1586826D01*
X1798094Y1587770D01*
X1800450Y1588746D01*
X1802791Y1589755D01*
X1805119Y1590797D01*
X1807431Y1591871D01*
X1809729Y1592977D01*
X1812011Y1594116D01*
X1814276Y1595285D01*
X1816526Y1596487D01*
X1818758Y1597719D01*
X1820973Y1598983D01*
X1823170Y1600277D01*
X1825349Y1601602D01*
X1827509Y1602956D01*
X1829650Y1604341D01*
X1831772Y1605756D01*
X1833874Y1607200D01*
X1835955Y1608673D01*
X1838016Y1610175D01*
X1840055Y1611705D01*
X1842073Y1613264D01*
X1844069Y1614851D01*
X1846043Y1616465D01*
X1847994Y1618107D01*
X1849922Y1619776D01*
X1851827Y1621472D01*
X1853707Y1623193D01*
X1855564Y1624941D01*
X1857396Y1626715D01*
X1859203Y1628514D01*
X1860985Y1630338D01*
X1862742Y1632186D01*
X1864472Y1634059D01*
X1866176Y1635956D01*
X1867854Y1637876D01*
X1869505Y1639820D01*
X1871128Y1641786D01*
X1872724Y1643775D01*
X1874292Y1645786D01*
X1875832Y1647819D01*
X1877343Y1649872D01*
X1878826Y1651947D01*
X1880280Y1654042D01*
X1881704Y1656157D01*
X1883098Y1658292D01*
X1884463Y1660446D01*
X1885798Y1662619D01*
X1887102Y1664810D01*
X1888376Y1667019D01*
X1889618Y1669246D01*
X1890830Y1671489D01*
X1892010Y1673750D01*
X1893159Y1676026D01*
X1894275Y1678319D01*
X1895360Y1680627D01*
X1896412Y1682949D01*
X1897432Y1685286D01*
X1898420Y1687637D01*
X1899374Y1690002D01*
X1900296Y1692380D01*
X1901184Y1694770D01*
X1902039Y1697172D01*
X1902860Y1699586D01*
X1903647Y1702012D01*
X1904401Y1704448D01*
X1905121Y1706894D01*
X1905806Y1709350D01*
X1906457Y1711815D01*
X1907074Y1714290D01*
X1907656Y1716772D01*
X1908204Y1719263D01*
X1908717Y1721761D01*
X1909195Y1724265D01*
X1909638Y1726776D01*
X1910046Y1729294D01*
X1910419Y1731816D01*
X1910757Y1734344D01*
X1911059Y1736875D01*
X1911326Y1739410D01*
Y1739410D02*
X1911561Y1741907D01*
X1911324Y1744403D01*
X1910621Y1746811D01*
X1909480Y1749043D01*
X1907939Y1751022D01*
X1906055Y1752677D01*
X1903893Y1753948D01*
X1901532Y1754792D01*
X1899054Y1755177D01*
X1896547Y1755089D01*
X1894102Y1754534D01*
X1891805Y1753528D01*
X1889736Y1752110D01*
X1454225Y1434470D02*
Y1607364D01*
X1620399Y1434470D02*
Y1611174D01*
X1454225Y1434470D02*
X1508483D01*
X1568676D02*
X1620399D01*
X2947179Y1599710D02*
X2944802Y1600878D01*
X2942412Y1602021D01*
X2940011Y1603138D01*
X2937598Y1604232D01*
X2935175Y1605300D01*
X2932740Y1606342D01*
X2930294Y1607360D01*
X2927838Y1608352D01*
X2925373Y1609318D01*
X2922896Y1610259D01*
X2920411Y1611174D01*
X3173239Y1741950D02*
X3175588Y1742672D01*
X3177878Y1743561D01*
X3180098Y1744614D01*
X3182235Y1745825D01*
X3184280Y1747188D01*
X3186220Y1748695D01*
X3188047Y1750339D01*
X3189749Y1752110D01*
X3173239Y1741950D02*
X3173986Y1744367D01*
X3174699Y1746795D01*
X3175377Y1749232D01*
X3176020Y1751679D01*
X3176628Y1754134D01*
X3177202Y1756599D01*
X3177740Y1759070D01*
X3178243Y1761550D01*
X3178711Y1764036D01*
X3179143Y1766529D01*
X3179540Y1769028D01*
X3179901Y1771532D01*
X3180226Y1774040D01*
X3180516Y1776554D01*
X3180770Y1779071D01*
X3180988Y1781591D01*
X3181170Y1784115D01*
X3181317Y1786640D01*
X3181427Y1789168D01*
X3181501Y1791697D01*
X3181540Y1794226D01*
X3181542Y1796756D01*
X3181508Y1799286D01*
X3181439Y1801815D01*
X3181333Y1804343D01*
X3181192Y1806868D01*
X3181014Y1809392D01*
X3180801Y1811913D01*
X3180551Y1814431D01*
X3180266Y1816944D01*
X3179946Y1819454D01*
X3179589Y1821959D01*
X3179589Y1821960D02*
X3177997Y1823965D01*
X3176073Y1825656D01*
X3173880Y1826978D01*
X3171487Y1827890D01*
X3168969Y1828362D01*
X3166409Y1828379D01*
X3163885Y1827941D01*
X3161480Y1827062D01*
X3159269Y1825770D01*
X3070369Y1819420D02*
X3072470Y1817992D01*
X3074621Y1816641D01*
X3076819Y1815368D01*
X3079062Y1814175D01*
X3081346Y1813065D01*
X3083669Y1812037D01*
X3086028Y1811094D01*
X3088419Y1810237D01*
X3090840Y1809467D01*
X3093286Y1808785D01*
X3095756Y1808192D01*
X3098246Y1807688D01*
X3100752Y1807274D01*
X3103272Y1806951D01*
X3105801Y1806720D01*
X3108338Y1806580D01*
X3110877Y1806532D01*
X3113417Y1806575D01*
X3115954Y1806710D01*
X3118484Y1806937D01*
X3121004Y1807255D01*
X3123511Y1807664D01*
X3126002Y1808163D01*
X3128473Y1808751D01*
X3130921Y1809429D01*
X3133343Y1810195D01*
X3135735Y1811047D01*
X3138096Y1811985D01*
X3140421Y1813009D01*
X3142708Y1814115D01*
X3144953Y1815303D01*
X3147153Y1816572D01*
X3149307Y1817919D01*
X3151410Y1819343D01*
X3153461Y1820842D01*
X3155456Y1822415D01*
X3157393Y1824058D01*
X3159269Y1825770D01*
X3070369Y1819420D02*
X3072775Y1820295D01*
X3075164Y1821215D01*
X3077534Y1822180D01*
X3079887Y1823189D01*
X3082220Y1824243D01*
X3084532Y1825341D01*
X3086824Y1826482D01*
X3089093Y1827666D01*
X3091340Y1828892D01*
X3093564Y1830161D01*
X3095762Y1831472D01*
X3097936Y1832824D01*
X3100084Y1834216D01*
X3102205Y1835649D01*
X3104299Y1837122D01*
X3106364Y1838634D01*
X3108401Y1840185D01*
X3110408Y1841773D01*
X3112385Y1843400D01*
X3114331Y1845063D01*
X3116245Y1846763D01*
X3118126Y1848499D01*
X3119974Y1850270D01*
X3121789Y1852075D01*
X3123569Y1853915D01*
X3125315Y1855787D01*
X3127024Y1857693D01*
X3128698Y1859630D01*
X3130334Y1861598D01*
X3131933Y1863597D01*
X3133494Y1865626D01*
X3135016Y1867684D01*
X3136500Y1869770D01*
X3137944Y1871884D01*
X3139347Y1874025D01*
X3140710Y1876192D01*
X3142032Y1878384D01*
X3143312Y1880600D01*
X3144550Y1882841D01*
X3145746Y1885104D01*
X3146898Y1887390D01*
X3148008Y1889697D01*
X3149073Y1892025D01*
X3150095Y1894372D01*
X3151072Y1896738D01*
X3152004Y1899122D01*
X3160152Y1958142D02*
X3159130Y1960539D01*
X3157657Y1962688D01*
X3155792Y1964507D01*
X3153605Y1965923D01*
X3151182Y1966883D01*
X3148619Y1967348D01*
X3146014Y1967301D01*
X3143469Y1966742D01*
X3141083Y1965695D01*
X3138949Y1964200D01*
X3119899Y1951500D02*
X3122294Y1952430D01*
X3124635Y1953488D01*
X3126915Y1954673D01*
X3129127Y1955979D01*
X3131265Y1957405D01*
X3133322Y1958944D01*
X3135292Y1960593D01*
X3137170Y1962347D01*
X3138949Y1964200D01*
X3119899Y1951500D02*
X3120732Y1953900D01*
X3121528Y1956313D01*
X3122287Y1958739D01*
X3123008Y1961175D01*
X3123692Y1963622D01*
X3124337Y1966079D01*
X3124946Y1968546D01*
X3125516Y1971023D01*
X3126047Y1973507D01*
X3126541Y1976000D01*
X3126996Y1978499D01*
X3127413Y1981006D01*
X3127791Y1983519D01*
X3128130Y1986037D01*
X3128430Y1988560D01*
X3128692Y1991087D01*
X3128914Y1993618D01*
X3129098Y1996152D01*
X3129243Y1998689D01*
X3129348Y2001228D01*
X3129415Y2003768D01*
X3129442Y2006309D01*
X3129430Y2008849D01*
X3129379Y2011390D01*
X3129290Y2013929D01*
X3129160Y2016467D01*
X3128992Y2019002D01*
X3128785Y2021534D01*
X3128539Y2024063D01*
X3128254Y2026588D01*
X3127931Y2029108D01*
X3127568Y2031623D01*
X3127167Y2034132D01*
X3126727Y2036635D01*
X3126249Y2039130D01*
X3126249D02*
X3125581Y2041617D01*
X3124407Y2043909D01*
X3122779Y2045904D01*
X3120768Y2047513D01*
X3118464Y2048665D01*
X3115971Y2049308D01*
X3113398Y2049414D01*
X3110859Y2048978D01*
X3108469Y2048020D01*
X3020839Y2075960D02*
X3022162Y2073822D01*
X3023563Y2071734D01*
X3025038Y2069697D01*
X3026586Y2067716D01*
X3028205Y2065792D01*
X3029892Y2063928D01*
X3031646Y2062127D01*
X3033465Y2060390D01*
X3035345Y2058721D01*
X3037285Y2057121D01*
X3039281Y2055592D01*
X3041331Y2054137D01*
X3043434Y2052757D01*
X3045584Y2051454D01*
X3047781Y2050231D01*
X3050020Y2049087D01*
X3052300Y2048026D01*
X3054616Y2047048D01*
X3056967Y2046155D01*
X3059348Y2045348D01*
X3061757Y2044628D01*
X3064191Y2043996D01*
X3066646Y2043452D01*
X3069119Y2042998D01*
X3071607Y2042634D01*
X3074106Y2042360D01*
X3076614Y2042178D01*
X3079127Y2042086D01*
X3081641Y2042086D01*
X3084154Y2042177D01*
X3086661Y2042359D01*
X3089161Y2042632D01*
X3091649Y2042995D01*
X3094122Y2043449D01*
X3096577Y2043992D01*
X3099011Y2044624D01*
X3101420Y2045344D01*
X3103802Y2046150D01*
X3106152Y2047043D01*
X3108469Y2048020D01*
X3020839Y2075960D02*
X3023204Y2076862D01*
X3025547Y2077822D01*
X3027865Y2078839D01*
X3030157Y2079913D01*
X3032422Y2081043D01*
X3034659Y2082229D01*
X3036865Y2083469D01*
X3039041Y2084763D01*
X3041183Y2086111D01*
X3043293Y2087511D01*
X3045367Y2088962D01*
X3047404Y2090464D01*
X3049404Y2092016D01*
X3051365Y2093617D01*
X3053286Y2095266D01*
X3055165Y2096961D01*
X3057003Y2098702D01*
X3058797Y2100488D01*
X3060546Y2102318D01*
X3062250Y2104190D01*
X3063907Y2106103D01*
X3065517Y2108057D01*
X3067078Y2110050D01*
X3068589Y2112081D01*
X3070050Y2114148D01*
X3071459Y2116250D01*
X3072816Y2118387D01*
X3074120Y2120557D01*
X3075371Y2122758D01*
X3076566Y2124989D01*
X3077707Y2127249D01*
X3078791Y2129536D01*
X3079819Y2131850D01*
X3080789Y2134188D01*
X3081702Y2136549D01*
X3082556Y2138932D01*
X3083351Y2141335D01*
X3084086Y2143757D01*
X3084762Y2146197D01*
X3085377Y2148652D01*
X3085932Y2151122D01*
X3086425Y2153605D01*
X3086858Y2156099D01*
X3087228Y2158603D01*
X3087537Y2161116D01*
X3087784Y2163635D01*
X3087969Y2166160D01*
X3088091Y2168688D01*
X3088151Y2171219D01*
X3088149Y2173750D01*
Y2173750D02*
X3087969Y2176169D01*
X3087309Y2178503D01*
X3086195Y2180657D01*
X3084673Y2182546D01*
X3082805Y2184092D01*
X3080665Y2185234D01*
X3078340Y2185924D01*
X3075923Y2186136D01*
X3073514Y2185860D01*
X3071208Y2185108D01*
X3069099Y2183910D01*
X3060209Y2180100D02*
X3062645Y2180462D01*
X3064984Y2181235D01*
X3067156Y2182396D01*
X3069099Y2183910D01*
X3060209Y2180100D02*
X3061664Y2182181D01*
X3063040Y2184315D01*
X3064337Y2186498D01*
X3065551Y2188728D01*
X3066682Y2191001D01*
X3067728Y2193315D01*
X3068687Y2195666D01*
X3069558Y2198051D01*
X3070341Y2200466D01*
X3071033Y2202909D01*
X3071635Y2205376D01*
X3072144Y2207864D01*
X3072560Y2210368D01*
X3072884Y2212887D01*
X3073114Y2215415D01*
X3073250Y2217951D01*
X3073292Y2220490D01*
X3073239Y2223028D01*
X3073093Y2225563D01*
X3072852Y2228091D01*
X3072518Y2230608D01*
X3072091Y2233111D01*
X3071571Y2235596D01*
X3070960Y2238060D01*
X3070258Y2240500D01*
X3069465Y2242913D01*
X3068584Y2245294D01*
X3067614Y2247641D01*
X3066559Y2249950D01*
X3064518Y2251625D01*
X3062189Y2252870D01*
X3059662Y2253637D01*
X3057034Y2253895D01*
X3054406Y2253637D01*
X3051879Y2252870D01*
X3049550Y2251625D01*
X3047509Y2249950D01*
X2970039Y2247410D02*
X2972084Y2245891D01*
X2974191Y2244460D01*
X2976357Y2243117D01*
X2978576Y2241867D01*
X2980847Y2240712D01*
X2983163Y2239652D01*
X2985522Y2238691D01*
X2987920Y2237829D01*
X2990351Y2237069D01*
X2992812Y2236412D01*
X2995299Y2235858D01*
X2997807Y2235409D01*
X3000331Y2235066D01*
X3002867Y2234829D01*
X3005411Y2234699D01*
X3007959Y2234676D01*
X3010505Y2234759D01*
X3013045Y2234949D01*
X3015575Y2235246D01*
X3018091Y2235649D01*
X3020587Y2236156D01*
X3023060Y2236768D01*
X3025505Y2237484D01*
X3027918Y2238301D01*
X3030294Y2239219D01*
X3032630Y2240235D01*
X3034921Y2241349D01*
X3037163Y2242558D01*
X3039353Y2243860D01*
X3041486Y2245253D01*
X3043559Y2246734D01*
X3045568Y2248300D01*
X3047509Y2249950D01*
X2970039Y2247410D02*
X2972253Y2248593D01*
X2974434Y2249834D01*
X2976582Y2251132D01*
X2978695Y2252487D01*
X2980772Y2253896D01*
X2982811Y2255359D01*
X2984810Y2256876D01*
X2986770Y2258445D01*
X2988687Y2260065D01*
X2990561Y2261735D01*
X2992390Y2263453D01*
X2994173Y2265220D01*
X2995909Y2267032D01*
X2997597Y2268890D01*
X2999235Y2270791D01*
X3000822Y2272735D01*
X3002358Y2274720D01*
X3003842Y2276745D01*
X3005271Y2278808D01*
X3006645Y2280908D01*
X3007964Y2283043D01*
X3009226Y2285213D01*
X3010430Y2287415D01*
X3011576Y2289648D01*
X3012663Y2291910D01*
X3013690Y2294200D01*
X3014656Y2296517D01*
X3015561Y2298857D01*
X3016990Y2358757D02*
X3015347Y2360604D01*
X3013409Y2362139D01*
X3011233Y2363313D01*
X3008887Y2364093D01*
X3006441Y2364454D01*
X3003970Y2364385D01*
X3001548Y2363889D01*
X2999249Y2362980D01*
X2973849Y2364250D02*
X2975620Y2362322D01*
X2977668Y2360691D01*
X2979943Y2359398D01*
X2982392Y2358473D01*
X2984955Y2357939D01*
X2987569Y2357808D01*
X2990172Y2358084D01*
X2992701Y2358760D01*
X2995095Y2359820D01*
X2997295Y2361238D01*
X2999249Y2362980D01*
X2973849Y2364250D02*
X2975974Y2365740D01*
X2977950Y2367422D01*
X2979760Y2369282D01*
X2981388Y2371302D01*
X2982820Y2373466D01*
X2984044Y2375754D01*
X2985049Y2378147D01*
X2985826Y2380622D01*
X2986368Y2383160D01*
X2986671Y2385737D01*
X2986731Y2388331D01*
X2986549Y2390920D01*
Y2390920D02*
X2986479Y2393428D01*
X2985944Y2395879D01*
X2984963Y2398188D01*
X2983571Y2400275D01*
X2981815Y2402067D01*
X2979758Y2403501D01*
X2977469Y2404529D01*
X2975030Y2405114D01*
X2972524Y2405236D01*
X2970039Y2404890D01*
X2886219Y2484900D02*
X2886465Y2482378D01*
X2886784Y2479864D01*
X2887176Y2477360D01*
X2887640Y2474868D01*
X2888177Y2472392D01*
X2888785Y2469931D01*
X2889465Y2467490D01*
X2890215Y2465069D01*
X2891035Y2462671D01*
X2891924Y2460298D01*
X2892882Y2457952D01*
X2893907Y2455634D01*
X2895000Y2453348D01*
X2896158Y2451094D01*
X2897382Y2448874D01*
X2898669Y2446691D01*
X2900019Y2444547D01*
X2901430Y2442442D01*
X2902903Y2440379D01*
X2904434Y2438360D01*
X2906024Y2436386D01*
X2907670Y2434459D01*
X2909371Y2432581D01*
X2911127Y2430753D01*
X2912934Y2428977D01*
X2914792Y2427254D01*
X2916700Y2425585D01*
X2918655Y2423973D01*
X2920657Y2422418D01*
X2922702Y2420922D01*
X2924791Y2419486D01*
X2926919Y2418111D01*
X2929088Y2416799D01*
X2931293Y2415550D01*
X2933533Y2414366D01*
X2935807Y2413247D01*
X2938112Y2412195D01*
X2940447Y2411210D01*
X2942810Y2410293D01*
X2945198Y2409445D01*
X2947610Y2408667D01*
X2950044Y2407960D01*
X2952497Y2407323D01*
X2954967Y2406758D01*
X2957453Y2406264D01*
X2959952Y2405844D01*
X2962462Y2405495D01*
X2964982Y2405220D01*
X2967508Y2405018D01*
X2970039Y2404890D01*
X2915429Y2512840D02*
X2913533Y2511169D01*
X2911647Y2509488D01*
X2909769Y2507796D01*
X2907901Y2506095D01*
X2906042Y2504383D01*
X2904192Y2502661D01*
X2902351Y2500929D01*
X2900520Y2499187D01*
X2898699Y2497435D01*
X2896887Y2495674D01*
X2895085Y2493902D01*
X2893292Y2492121D01*
X2891509Y2490330D01*
X2889736Y2488530D01*
X2887972Y2486720D01*
X2886219Y2484900D01*
X2915429Y2512840D02*
X2917182Y2514698D01*
X2918539Y2516862D01*
X2919449Y2519248D01*
X2919877Y2521766D01*
X2919806Y2524319D01*
X2919239Y2526810D01*
X2918198Y2529142D01*
X2916723Y2531228D01*
X2914870Y2532985D01*
X2912710Y2534349D01*
X2910326Y2535265D01*
X2907809Y2535700D01*
X2869709Y2540780D02*
X2872237Y2540357D01*
X2874767Y2539946D01*
X2877299Y2539547D01*
X2879832Y2539161D01*
X2882368Y2538786D01*
X2884905Y2538423D01*
X2887444Y2538072D01*
X2889985Y2537734D01*
X2892527Y2537407D01*
X2895071Y2537092D01*
X2897616Y2536790D01*
X2900162Y2536499D01*
X2902710Y2536221D01*
X2905260Y2535954D01*
X2907809Y2535700D01*
X2869709Y2540780D02*
X2868877Y2543214D01*
X2868039Y2545645D01*
X2867194Y2548074D01*
X2866344Y2550501D01*
X2865488Y2552926D01*
X2864626Y2555349D01*
X2863757Y2557770D01*
X2862883Y2560189D01*
X2862003Y2562606D01*
X2861117Y2565020D01*
X2860225Y2567432D01*
X2859327Y2569842D01*
X2858423Y2572249D01*
X2857513Y2574655D01*
X2856597Y2577058D01*
X2855675Y2579459D01*
X2854748Y2581858D01*
X2853814Y2584254D01*
X2852874Y2586648D01*
X2851929Y2589040D01*
X2851929D02*
X2850566Y2591104D01*
X2848805Y2592840D01*
X2846721Y2594172D01*
X2844406Y2595043D01*
X2841960Y2595413D01*
X2839492Y2595268D01*
X2837107Y2594613D01*
X2834910Y2593477D01*
X2832997Y2591910D01*
X2831451Y2589980D01*
X2830339Y2587770D01*
X2830339Y2587770D02*
X2829438Y2585425D01*
X2828539Y2583080D01*
X2827641Y2580733D01*
X2826744Y2578387D01*
X2825848Y2576040D01*
X2824954Y2573693D01*
X2824060Y2571345D01*
X2823168Y2568996D01*
X2822278Y2566648D01*
X2821388Y2564298D01*
X2820500Y2561949D01*
X2819612Y2559598D01*
X2818727Y2557247D01*
X2817842Y2554896D01*
X2816958Y2552545D01*
X2816076Y2550193D01*
X2815195Y2547840D01*
X2814315Y2545487D01*
X2813436Y2543134D01*
X2812559Y2540780D01*
X2812559Y2540780D02*
X2810015Y2540499D01*
X2807471Y2540214D01*
X2804927Y2539923D01*
X2802384Y2539628D01*
X2799842Y2539327D01*
X2797300Y2539022D01*
X2794760Y2538712D01*
X2792219Y2538397D01*
X2789679Y2538077D01*
X2787140Y2537752D01*
X2784601Y2537422D01*
X2782063Y2537088D01*
X2779526Y2536748D01*
X2776989Y2536404D01*
X2774453Y2536054D01*
X2771919Y2535700D01*
X2771919Y2535700D02*
X2769618Y2534635D01*
X2767550Y2533167D01*
X2765786Y2531346D01*
X2764383Y2529233D01*
X2763390Y2526900D01*
X2762840Y2524424D01*
X2762751Y2521890D01*
X2763127Y2519382D01*
X2763954Y2516985D01*
X2765206Y2514780D01*
X2766839Y2512840D01*
X2766839Y2512840D02*
X2768731Y2511080D01*
X2770625Y2509323D01*
X2772521Y2507567D01*
X2774419Y2505812D01*
X2776318Y2504060D01*
X2778218Y2502309D01*
X2780121Y2500560D01*
X2782025Y2498813D01*
X2783930Y2497068D01*
X2785838Y2495325D01*
X2787747Y2493583D01*
X2789658Y2491843D01*
X2791570Y2490105D01*
X2793484Y2488369D01*
X2795399Y2486635D01*
X2797317Y2484902D01*
X2708419Y2406160D02*
X2710966Y2406191D01*
X2713511Y2406295D01*
X2716051Y2406471D01*
X2718586Y2406720D01*
X2721113Y2407041D01*
X2723629Y2407434D01*
X2726133Y2407898D01*
X2728623Y2408433D01*
X2731097Y2409039D01*
X2733553Y2409716D01*
X2735988Y2410462D01*
X2738401Y2411277D01*
X2740789Y2412161D01*
X2743152Y2413112D01*
X2745486Y2414131D01*
X2747791Y2415215D01*
X2750063Y2416365D01*
X2752303Y2417579D01*
X2754506Y2418856D01*
X2756672Y2420196D01*
X2758799Y2421596D01*
X2760886Y2423057D01*
X2762929Y2424577D01*
X2764929Y2426154D01*
X2766883Y2427788D01*
X2768790Y2429477D01*
X2770647Y2431219D01*
X2772455Y2433013D01*
X2774210Y2434859D01*
X2775912Y2436754D01*
X2777560Y2438696D01*
X2779151Y2440685D01*
X2780685Y2442718D01*
X2782160Y2444794D01*
X2783576Y2446911D01*
X2784931Y2449068D01*
X2786223Y2451262D01*
X2787453Y2453492D01*
X2788619Y2455757D01*
X2789720Y2458054D01*
X2790754Y2460381D01*
X2791722Y2462737D01*
X2792623Y2465119D01*
X2793455Y2467526D01*
X2794218Y2469956D01*
X2794912Y2472407D01*
X2795536Y2474876D01*
X2796088Y2477362D01*
X2796570Y2479863D01*
X2796981Y2482377D01*
X2797319Y2484900D01*
X2708419Y2406160D02*
X2705830Y2405780D01*
X2703364Y2404902D01*
X2701118Y2403560D01*
X2699176Y2401805D01*
X2697614Y2399706D01*
X2696491Y2397341D01*
X2695851Y2394804D01*
X2695719Y2392190D01*
X2695674Y2389651D01*
X2695810Y2387115D01*
X2696125Y2384595D01*
X2696620Y2382104D01*
X2697292Y2379655D01*
X2698136Y2377260D01*
X2699148Y2374931D01*
X2700324Y2372680D01*
X2701658Y2370518D01*
X2703142Y2368457D01*
X2704769Y2366508D01*
X2706531Y2364679D01*
X2708419Y2362980D01*
X2681749Y2362980D02*
X2683839Y2361348D01*
X2686126Y2360007D01*
X2688571Y2358979D01*
X2691130Y2358284D01*
X2693758Y2357934D01*
X2696410D01*
X2699038Y2358284D01*
X2701597Y2358979D01*
X2704042Y2360007D01*
X2706329Y2361348D01*
X2708419Y2362980D01*
X2681749D02*
X2679603Y2364060D01*
X2677284Y2364689D01*
X2674886Y2364841D01*
X2672505Y2364512D01*
X2670240Y2363713D01*
X2668179Y2362477D01*
X2666407Y2360854D01*
X2664995Y2358910D01*
X2666995Y2297636D02*
X2667949Y2295260D01*
X2668967Y2292912D01*
X2670048Y2290591D01*
X2671190Y2288301D01*
X2672395Y2286042D01*
X2673660Y2283817D01*
X2674985Y2281627D01*
X2676369Y2279473D01*
X2677810Y2277357D01*
X2679308Y2275282D01*
X2680861Y2273247D01*
X2682469Y2271255D01*
X2684130Y2269308D01*
X2685843Y2267406D01*
X2687607Y2265551D01*
X2689420Y2263744D01*
X2691281Y2261987D01*
X2693189Y2260281D01*
X2695143Y2258627D01*
X2697141Y2257026D01*
X2699181Y2255480D01*
X2701262Y2253990D01*
X2703383Y2252556D01*
X2705541Y2251181D01*
X2707736Y2249864D01*
X2709966Y2248607D01*
X2712229Y2247410D01*
X2633489Y2251220D02*
X2635356Y2249518D01*
X2637293Y2247896D01*
X2639296Y2246356D01*
X2641361Y2244901D01*
X2643486Y2243534D01*
X2645666Y2242257D01*
X2647897Y2241073D01*
X2650176Y2239982D01*
X2652499Y2238989D01*
X2654861Y2238093D01*
X2657260Y2237297D01*
X2659688Y2236602D01*
X2662144Y2236010D01*
X2664623Y2235520D01*
X2667120Y2235135D01*
X2669631Y2234855D01*
X2672151Y2234680D01*
X2674677Y2234611D01*
X2677202Y2234648D01*
X2679725Y2234790D01*
X2682239Y2235037D01*
X2684741Y2235390D01*
X2687226Y2235847D01*
X2689689Y2236408D01*
X2692127Y2237071D01*
X2694535Y2237836D01*
X2696909Y2238701D01*
X2699244Y2239665D01*
X2701537Y2240725D01*
X2703784Y2241880D01*
X2705980Y2243129D01*
X2708122Y2244468D01*
X2710207Y2245896D01*
X2712229Y2247410D01*
X2633489Y2251220D02*
X2631295Y2252294D01*
X2628944Y2252961D01*
X2626512Y2253199D01*
X2624077Y2252999D01*
X2621716Y2252370D01*
X2619505Y2251330D01*
X2617514Y2249913D01*
X2615807Y2248165D01*
X2614439Y2246140D01*
X2614439D02*
X2613604Y2243727D01*
X2612852Y2241287D01*
X2612184Y2238823D01*
X2611602Y2236337D01*
X2611107Y2233832D01*
X2610697Y2231312D01*
X2610375Y2228779D01*
X2610141Y2226237D01*
X2609994Y2223687D01*
X2609935Y2221135D01*
X2609964Y2218582D01*
X2610081Y2216031D01*
X2610286Y2213486D01*
X2610579Y2210950D01*
X2610959Y2208425D01*
X2611426Y2205915D01*
X2611979Y2203422D01*
X2612617Y2200950D01*
X2613341Y2198501D01*
X2614148Y2196079D01*
X2615039Y2193686D01*
X2616011Y2191325D01*
X2617065Y2188999D01*
X2618197Y2186711D01*
X2619408Y2184464D01*
X2620696Y2182259D01*
X2622059Y2180100D01*
X2611899Y2185180D02*
X2613552Y2183537D01*
X2615445Y2182177D01*
X2617529Y2181135D01*
X2619753Y2180436D01*
X2622059Y2180100D01*
X2611899Y2185180D02*
X2609415Y2185629D01*
X2606891Y2185641D01*
X2604404Y2185213D01*
X2602028Y2184361D01*
X2599836Y2183108D01*
X2597896Y2181495D01*
X2596265Y2179568D01*
X2594993Y2177388D01*
X2594119Y2175020D01*
X2594090Y2172464D01*
X2594124Y2169908D01*
X2594222Y2167354D01*
X2594383Y2164803D01*
X2594608Y2162256D01*
X2594895Y2159716D01*
X2595246Y2157184D01*
X2595659Y2154662D01*
X2596135Y2152150D01*
X2596673Y2149651D01*
X2597273Y2147166D01*
X2597934Y2144697D01*
X2598656Y2142245D01*
X2599439Y2139812D01*
X2600283Y2137399D01*
X2601185Y2135007D01*
X2602147Y2132639D01*
X2603168Y2130295D01*
X2604246Y2127978D01*
X2605381Y2125688D01*
X2606573Y2123426D01*
X2607821Y2121195D01*
X2609124Y2118996D01*
X2610481Y2116830D01*
X2611891Y2114698D01*
X2613354Y2112601D01*
X2614868Y2110542D01*
X2616433Y2108521D01*
X2618048Y2106539D01*
X2619711Y2104598D01*
X2621422Y2102699D01*
X2623180Y2100843D01*
X2624983Y2099032D01*
X2626831Y2097265D01*
X2628722Y2095545D01*
X2630655Y2093872D01*
X2632628Y2092248D01*
X2634642Y2090674D01*
X2636694Y2089149D01*
X2638784Y2087677D01*
X2640909Y2086256D01*
X2643069Y2084889D01*
X2645262Y2083576D01*
X2647487Y2082318D01*
X2649742Y2081115D01*
X2652027Y2079968D01*
X2654340Y2078879D01*
X2656678Y2077847D01*
X2659042Y2076874D01*
X2661429Y2075960D01*
X2576339Y2048020D02*
X2578655Y2047020D01*
X2581007Y2046109D01*
X2583393Y2045289D01*
X2585808Y2044560D01*
X2588249Y2043924D01*
X2590712Y2043381D01*
X2593195Y2042933D01*
X2595692Y2042579D01*
X2598202Y2042321D01*
X2600719Y2042159D01*
X2603241Y2042094D01*
X2605764Y2042124D01*
X2608283Y2042251D01*
X2610796Y2042473D01*
X2613298Y2042792D01*
X2615786Y2043205D01*
X2618257Y2043713D01*
X2620707Y2044315D01*
X2623132Y2045010D01*
X2625529Y2045797D01*
X2627894Y2046675D01*
X2630223Y2047643D01*
X2632514Y2048698D01*
X2634763Y2049840D01*
X2636967Y2051067D01*
X2639123Y2052377D01*
X2641227Y2053769D01*
X2643277Y2055240D01*
X2645269Y2056788D01*
X2647200Y2058410D01*
X2649068Y2060106D01*
X2650870Y2061871D01*
X2652604Y2063703D01*
X2654266Y2065601D01*
X2655854Y2067560D01*
X2657367Y2069579D01*
X2658802Y2071654D01*
X2660157Y2073782D01*
X2661429Y2075960D01*
X2576339Y2048020D02*
X2573833Y2048878D01*
X2571210Y2049242D01*
X2568566Y2049101D01*
X2565996Y2048458D01*
X2563596Y2047338D01*
X2561454Y2045782D01*
X2559647Y2043846D01*
X2558241Y2041601D01*
X2557289Y2039130D01*
X2557289Y2039130D02*
X2556728Y2036650D01*
X2556208Y2034160D01*
X2555729Y2031663D01*
X2555292Y2029158D01*
X2554895Y2026646D01*
X2554541Y2024127D01*
X2554228Y2021604D01*
X2553956Y2019075D01*
X2553726Y2016543D01*
X2553538Y2014007D01*
X2553392Y2011468D01*
X2553288Y2008927D01*
X2553225Y2006384D01*
X2553205Y2003842D01*
X2553226Y2001299D01*
X2553290Y1998756D01*
X2553395Y1996215D01*
X2553542Y1993677D01*
X2553731Y1991141D01*
X2553962Y1988608D01*
X2554235Y1986080D01*
X2554549Y1983556D01*
X2554904Y1981038D01*
X2555302Y1978526D01*
X2555740Y1976021D01*
X2556220Y1973524D01*
X2556741Y1971035D01*
X2557303Y1968555D01*
X2557906Y1966084D01*
X2558549Y1963624D01*
X2559233Y1961174D01*
X2559957Y1958737D01*
X2560721Y1956311D01*
X2561526Y1953898D01*
X2562369Y1951500D01*
X2543319Y1964200D02*
X2545183Y1962447D01*
X2547118Y1960773D01*
X2549122Y1959181D01*
X2551190Y1957675D01*
X2553318Y1956255D01*
X2555505Y1954926D01*
X2557744Y1953689D01*
X2560034Y1952546D01*
X2562369Y1951500D01*
X2543319Y1964200D02*
X2541291Y1965776D01*
X2538973Y1966884D01*
X2536473Y1967473D01*
X2533905Y1967516D01*
X2531387Y1967011D01*
X2529033Y1965981D01*
X2526953Y1964474D01*
X2525242Y1962559D01*
X2523978Y1960323D01*
X2523218Y1957869D01*
X2522999Y1955310D01*
X2532152Y1894250D02*
X2533142Y1891885D01*
X2534178Y1889540D01*
X2535260Y1887216D01*
X2536387Y1884913D01*
X2537559Y1882633D01*
X2538775Y1880376D01*
X2540036Y1878143D01*
X2541339Y1875935D01*
X2542686Y1873754D01*
X2544075Y1871599D01*
X2545506Y1869471D01*
X2546978Y1867372D01*
X2548492Y1865303D01*
X2550045Y1863263D01*
X2551638Y1861254D01*
X2553270Y1859277D01*
X2554940Y1857332D01*
X2556648Y1855420D01*
X2558393Y1853542D01*
X2560175Y1851698D01*
X2561992Y1849890D01*
X2563845Y1848117D01*
X2565731Y1846381D01*
X2567651Y1844682D01*
X2569605Y1843021D01*
X2571590Y1841399D01*
X2573607Y1839816D01*
X2575654Y1838273D01*
X2577731Y1836770D01*
X2579837Y1835307D01*
X2581971Y1833887D01*
X2584133Y1832508D01*
X2586321Y1831172D01*
X2588535Y1829879D01*
X2590774Y1828630D01*
X2593037Y1827425D01*
X2595323Y1826264D01*
X2597631Y1825148D01*
X2599961Y1824078D01*
X2602311Y1823053D01*
X2604681Y1822075D01*
X2607069Y1821143D01*
X2609475Y1820258D01*
X2611898Y1819420D01*
X2521729Y1827040D02*
X2523540Y1825283D01*
X2525414Y1823593D01*
X2527348Y1821971D01*
X2529338Y1820421D01*
X2531384Y1818943D01*
X2533481Y1817540D01*
X2535628Y1816213D01*
X2537821Y1814965D01*
X2540058Y1813797D01*
X2542335Y1812710D01*
X2544650Y1811706D01*
X2547000Y1810787D01*
X2549381Y1809953D01*
X2551791Y1809205D01*
X2554227Y1808544D01*
X2556685Y1807972D01*
X2559161Y1807489D01*
X2561654Y1807096D01*
X2564159Y1806793D01*
X2566674Y1806581D01*
X2569194Y1806459D01*
X2571717Y1806428D01*
X2574240Y1806489D01*
X2576759Y1806640D01*
X2579270Y1806883D01*
X2581772Y1807215D01*
X2584260Y1807638D01*
X2586730Y1808150D01*
X2589181Y1808752D01*
X2591609Y1809441D01*
X2594010Y1810217D01*
X2596381Y1811080D01*
X2598720Y1812027D01*
X2601023Y1813058D01*
X2603287Y1814172D01*
X2605510Y1815366D01*
X2607688Y1816640D01*
X2609819Y1817992D01*
X2611899Y1819420D01*
X2521729Y1827040D02*
X2519607Y1828185D01*
X2517304Y1828899D01*
X2514906Y1829154D01*
X2512505Y1828941D01*
X2510189Y1828267D01*
X2508048Y1827158D01*
X2506162Y1825656D01*
X2504601Y1823818D01*
X2503425Y1821713D01*
X2502679Y1819420D01*
Y1819420D02*
X2502311Y1816916D01*
X2501981Y1814407D01*
X2501690Y1811893D01*
X2501436Y1809375D01*
X2501221Y1806854D01*
X2501044Y1804330D01*
X2500905Y1801803D01*
X2500805Y1799274D01*
X2500743Y1796744D01*
X2500719Y1794214D01*
X2500734Y1791683D01*
X2500788Y1789153D01*
X2500880Y1786624D01*
X2501010Y1784097D01*
X2501178Y1781571D01*
X2501385Y1779049D01*
X2501630Y1776530D01*
X2501913Y1774016D01*
X2502234Y1771505D01*
X2502594Y1769000D01*
X2502991Y1766501D01*
X2503426Y1764008D01*
X2503899Y1761522D01*
X2504410Y1759044D01*
X2504958Y1756573D01*
X2505544Y1754111D01*
X2506167Y1751658D01*
X2506827Y1749215D01*
X2507524Y1746783D01*
X2508258Y1744361D01*
X2509029Y1741950D01*
X2492519Y1752110D02*
X2494328Y1750471D01*
X2496220Y1748929D01*
X2498192Y1747489D01*
X2500236Y1746156D01*
X2502348Y1744931D01*
X2504521Y1743820D01*
X2506751Y1742826D01*
X2509029Y1741950D01*
X2492519Y1752110D02*
X2490451Y1753528D01*
X2488154Y1754534D01*
X2485708Y1755090D01*
X2483202Y1755177D01*
X2480724Y1754792D01*
X2478362Y1753948D01*
X2476201Y1752677D01*
X2474316Y1751022D01*
X2472776Y1749043D01*
X2471634Y1746811D01*
X2470932Y1744403D01*
X2470694Y1741907D01*
X2470929Y1739410D01*
X2470929D02*
X2471231Y1736877D01*
X2471568Y1734347D01*
X2471939Y1731823D01*
X2472345Y1729304D01*
X2472786Y1726791D01*
X2473261Y1724285D01*
X2473771Y1721785D01*
X2474315Y1719292D01*
X2474894Y1716807D01*
X2475506Y1714330D01*
X2476153Y1711862D01*
X2476833Y1709403D01*
X2477548Y1706954D01*
X2478296Y1704514D01*
X2479077Y1702086D01*
X2479892Y1699668D01*
X2480740Y1697262D01*
X2481621Y1694867D01*
X2482535Y1692485D01*
X2483482Y1690116D01*
X2484461Y1687760D01*
X2485473Y1685417D01*
X2486516Y1683089D01*
X2487592Y1680775D01*
X2488699Y1678477D01*
X2489838Y1676194D01*
X2491008Y1673927D01*
X2492210Y1671676D01*
X2493442Y1669442D01*
X2494705Y1667225D01*
X2495998Y1665025D01*
X2497321Y1662844D01*
X2498674Y1660681D01*
X2500057Y1658537D01*
X2501470Y1656412D01*
X2502911Y1654307D01*
X2504381Y1652222D01*
X2505880Y1650157D01*
X2507407Y1648113D01*
X2508962Y1646090D01*
X2510545Y1644089D01*
X2512155Y1642110D01*
X2513793Y1640153D01*
X2515457Y1638219D01*
X2517147Y1636308D01*
X2518864Y1634420D01*
X2520606Y1632557D01*
X2522374Y1630717D01*
X2524167Y1628902D01*
X2525985Y1627112D01*
X2527828Y1625347D01*
X2529694Y1623608D01*
X2531585Y1621894D01*
X2533498Y1620206D01*
X2535435Y1618546D01*
X2537395Y1616911D01*
X2539376Y1615305D01*
X2541380Y1613725D01*
X2543405Y1612173D01*
X2545452Y1610649D01*
X2547519Y1609154D01*
X2549606Y1607687D01*
X2551714Y1606249D01*
X2553841Y1604840D01*
X2555987Y1603461D01*
X2558152Y1602111D01*
X2560336Y1600791D01*
X2562538Y1599501D01*
X2564756Y1598242D01*
X2566993Y1597014D01*
X2569246Y1595816D01*
X2571515Y1594649D01*
X2573800Y1593514D01*
X2576100Y1592411D01*
X2578415Y1591339D01*
X2580745Y1590299D01*
X2583089Y1589291D01*
X2585447Y1588316D01*
X2587817Y1587373D01*
X2590201Y1586463D01*
X2592597Y1585586D01*
X2595005Y1584742D01*
X2597424Y1583931D01*
X2599854Y1583153D01*
X2602294Y1582409D01*
X2604745Y1581699D01*
X2607205Y1581022D01*
X2609674Y1580379D01*
X2612152Y1579771D01*
X2614638Y1579196D01*
X2617131Y1578656D01*
X2619632Y1578151D01*
X2622139Y1577679D01*
X2624653Y1577243D01*
X2627173Y1576841D01*
X2629697Y1576473D01*
X2632227Y1576141D01*
X2634761Y1575843D01*
X2637299Y1575580D01*
X2637299Y1575580D02*
X2639828Y1575411D01*
X2642360Y1575282D01*
X2644894Y1575194D01*
X2647429Y1575146D01*
X2649964Y1575139D01*
X2652498Y1575173D01*
X2655032Y1575248D01*
X2657565Y1575363D01*
X2660095Y1575518D01*
X2662623Y1575714D01*
X2665147Y1575951D01*
X2667667Y1576228D01*
X2670182Y1576545D01*
X2672692Y1576902D01*
X2675195Y1577300D01*
X2677693Y1577738D01*
X2680182Y1578216D01*
X2682664Y1578733D01*
X2685137Y1579291D01*
X2687601Y1579888D01*
X2690055Y1580524D01*
X2692498Y1581199D01*
X2694930Y1581914D01*
X2697351Y1582668D01*
X2699759Y1583460D01*
X2702154Y1584290D01*
X2704536Y1585159D01*
X2706903Y1586066D01*
X2709255Y1587011D01*
X2711592Y1587993D01*
X2713914Y1589013D01*
X2716218Y1590070D01*
X2718505Y1591164D01*
X2720774Y1592294D01*
X2723025Y1593460D01*
X2725257Y1594662D01*
X2727469Y1595900D01*
X2754237Y1607364D02*
X2751751Y1606449D01*
X2749276Y1605508D01*
X2746810Y1604542D01*
X2744354Y1603550D01*
X2741908Y1602532D01*
X2739474Y1601490D01*
X2737050Y1600421D01*
X2734637Y1599328D01*
X2732236Y1598210D01*
X2729846Y1597068D01*
X2727469Y1595900D01*
X2949719Y1598440D02*
X2951925Y1597236D01*
X2954147Y1596061D01*
X2956384Y1594914D01*
X2958635Y1593796D01*
X2960900Y1592706D01*
X2963178Y1591646D01*
X2965471Y1590615D01*
X2967776Y1589613D01*
X2970093Y1588640D01*
X2972423Y1587698D01*
X2974765Y1586785D01*
X2977119Y1585902D01*
X2979483Y1585050D01*
X2981858Y1584227D01*
X2984243Y1583436D01*
X2986639Y1582674D01*
X2989044Y1581943D01*
X2991458Y1581243D01*
X2993881Y1580574D01*
X2996312Y1579937D01*
X2998751Y1579330D01*
X3001198Y1578754D01*
X3003651Y1578210D01*
X3006111Y1577697D01*
X3008578Y1577215D01*
X3011051Y1576765D01*
X3013530Y1576347D01*
X3016013Y1575961D01*
X3018501Y1575606D01*
X3020994Y1575283D01*
X3023490Y1574992D01*
X3025990Y1574733D01*
X3028493Y1574505D01*
X3030999Y1574310D01*
X3030999D02*
X3033549Y1574353D01*
X3036097Y1574431D01*
X3038645Y1574545D01*
X3041190Y1574695D01*
X3043734Y1574879D01*
X3046274Y1575100D01*
X3048811Y1575355D01*
X3051344Y1575646D01*
X3053873Y1575972D01*
X3056398Y1576334D01*
X3058917Y1576730D01*
X3061430Y1577162D01*
X3063936Y1577628D01*
X3066437Y1578130D01*
X3068930Y1578666D01*
X3071415Y1579237D01*
X3073892Y1579843D01*
X3076360Y1580483D01*
X3078819Y1581157D01*
X3081269Y1581865D01*
X3083708Y1582608D01*
X3086137Y1583384D01*
X3088555Y1584194D01*
X3090961Y1585038D01*
X3093356Y1585916D01*
X3095738Y1586826D01*
X3098106Y1587770D01*
X3100462Y1588746D01*
X3102804Y1589755D01*
X3105131Y1590797D01*
X3107444Y1591871D01*
X3109742Y1592977D01*
X3112023Y1594116D01*
X3114289Y1595285D01*
X3116538Y1596487D01*
X3118771Y1597719D01*
X3120985Y1598983D01*
X3123183Y1600277D01*
X3125362Y1601602D01*
X3127522Y1602956D01*
X3129663Y1604341D01*
X3131784Y1605756D01*
X3133886Y1607200D01*
X3135967Y1608673D01*
X3138028Y1610175D01*
X3140068Y1611705D01*
X3142086Y1613264D01*
X3144082Y1614851D01*
X3146056Y1616465D01*
X3148007Y1618107D01*
X3149935Y1619776D01*
X3151839Y1621472D01*
X3153720Y1623193D01*
X3155577Y1624941D01*
X3157409Y1626715D01*
X3159216Y1628514D01*
X3160998Y1630338D01*
X3162755Y1632186D01*
X3164485Y1634059D01*
X3166189Y1635956D01*
X3167867Y1637876D01*
X3169517Y1639820D01*
X3171141Y1641786D01*
X3172737Y1643775D01*
X3174305Y1645786D01*
X3175844Y1647819D01*
X3177356Y1649872D01*
X3178839Y1651947D01*
X3180292Y1654042D01*
X3181716Y1656157D01*
X3183111Y1658292D01*
X3184476Y1660446D01*
X3185811Y1662619D01*
X3187115Y1664810D01*
X3188388Y1667019D01*
X3189631Y1669246D01*
X3190843Y1671489D01*
X3192023Y1673750D01*
X3193171Y1676026D01*
X3194288Y1678319D01*
X3195373Y1680627D01*
X3196425Y1682949D01*
X3197445Y1685286D01*
X3198432Y1687637D01*
X3199387Y1690002D01*
X3200308Y1692380D01*
X3201196Y1694770D01*
X3202051Y1697172D01*
X3202872Y1699586D01*
X3203660Y1702012D01*
X3204413Y1704448D01*
X3205133Y1706894D01*
X3205819Y1709350D01*
X3206470Y1711815D01*
X3207087Y1714290D01*
X3207669Y1716772D01*
X3208217Y1719263D01*
X3208730Y1721761D01*
X3209207Y1724265D01*
X3209651Y1726776D01*
X3210059Y1729294D01*
X3210432Y1731816D01*
X3210769Y1734344D01*
X3211072Y1736875D01*
X3211339Y1739410D01*
Y1739410D02*
X3211574Y1741907D01*
X3211336Y1744403D01*
X3210634Y1746811D01*
X3209492Y1749043D01*
X3207952Y1751022D01*
X3206068Y1752677D01*
X3203906Y1753948D01*
X3201544Y1754792D01*
X3199066Y1755177D01*
X3196560Y1755089D01*
X3194115Y1754534D01*
X3191817Y1753528D01*
X3189749Y1752110D01*
X2754237Y1434470D02*
Y1607364D01*
X2920411Y1434470D02*
Y1611174D01*
X2754237Y1434470D02*
X2808495D01*
X2868689D02*
X2920411D01*
X2092424Y2418730D02*
X2094801Y2417562D01*
X2097190Y2416420D01*
X2099592Y2415302D01*
X2102004Y2414209D01*
X2104428Y2413141D01*
X2106863Y2412098D01*
X2109308Y2411080D01*
X2111764Y2410088D01*
X2114230Y2409122D01*
X2116706Y2408181D01*
X2119191Y2407266D01*
X1866364Y2276490D02*
X1864015Y2275768D01*
X1861725Y2274879D01*
X1859505Y2273826D01*
X1857367Y2272615D01*
X1855323Y2271252D01*
X1853382Y2269745D01*
X1851556Y2268102D01*
X1849854Y2266330D01*
X1866364Y2276490D02*
X1865616Y2274073D01*
X1864904Y2271645D01*
X1864226Y2269208D01*
X1863582Y2266761D01*
X1862974Y2264305D01*
X1862401Y2261841D01*
X1861862Y2259369D01*
X1861359Y2256890D01*
X1860892Y2254403D01*
X1860459Y2251911D01*
X1860063Y2249412D01*
X1859702Y2246908D01*
X1859376Y2244399D01*
X1859086Y2241886D01*
X1858833Y2239368D01*
X1858614Y2236848D01*
X1858432Y2234325D01*
X1858286Y2231799D01*
X1858176Y2229271D01*
X1858101Y2226742D01*
X1858063Y2224213D01*
X1858060Y2221683D01*
X1858094Y2219153D01*
X1858164Y2216624D01*
X1858269Y2214096D01*
X1858411Y2211570D01*
X1858589Y2209047D01*
X1858802Y2206526D01*
X1859051Y2204008D01*
X1859336Y2201494D01*
X1859657Y2198985D01*
X1860013Y2196480D01*
X1860013D02*
X1861606Y2194474D01*
X1863530Y2192784D01*
X1865723Y2191462D01*
X1868116Y2190550D01*
X1870633Y2190078D01*
X1873194Y2190061D01*
X1875717Y2190499D01*
X1878123Y2191378D01*
X1880334Y2192670D01*
X1969234Y2199020D02*
X1967133Y2200448D01*
X1964982Y2201799D01*
X1962784Y2203072D01*
X1960541Y2204265D01*
X1958256Y2205375D01*
X1955933Y2206403D01*
X1953575Y2207346D01*
X1951183Y2208203D01*
X1948763Y2208973D01*
X1946316Y2209655D01*
X1943846Y2210249D01*
X1941357Y2210752D01*
X1938850Y2211166D01*
X1936331Y2211489D01*
X1933801Y2211720D01*
X1931265Y2211860D01*
X1928725Y2211909D01*
X1926185Y2211865D01*
X1923649Y2211730D01*
X1921119Y2211503D01*
X1918599Y2211185D01*
X1916092Y2210776D01*
X1913601Y2210277D01*
X1911130Y2209689D01*
X1908682Y2209011D01*
X1906260Y2208246D01*
X1903867Y2207393D01*
X1901507Y2206454D01*
X1899182Y2205432D01*
X1896895Y2204325D01*
X1894650Y2203137D01*
X1892449Y2201868D01*
X1890296Y2200521D01*
X1888192Y2199097D01*
X1886142Y2197598D01*
X1884147Y2196026D01*
X1882210Y2194382D01*
X1880334Y2192670D01*
X1969234Y2199020D02*
X1966828Y2198145D01*
X1964439Y2197225D01*
X1962068Y2196260D01*
X1959716Y2195251D01*
X1957383Y2194197D01*
X1955070Y2193100D01*
X1952779Y2191958D01*
X1950509Y2190774D01*
X1948262Y2189548D01*
X1946039Y2188279D01*
X1943840Y2186968D01*
X1941667Y2185616D01*
X1939519Y2184224D01*
X1937397Y2182791D01*
X1935304Y2181318D01*
X1933238Y2179806D01*
X1931201Y2178255D01*
X1929194Y2176667D01*
X1927218Y2175040D01*
X1925272Y2173377D01*
X1923358Y2171677D01*
X1921476Y2169941D01*
X1919628Y2168170D01*
X1917813Y2166365D01*
X1916033Y2164525D01*
X1914288Y2162653D01*
X1912578Y2160748D01*
X1910905Y2158810D01*
X1909268Y2156842D01*
X1907669Y2154843D01*
X1906108Y2152814D01*
X1904586Y2150756D01*
X1903103Y2148670D01*
X1901659Y2146556D01*
X1900255Y2144415D01*
X1898892Y2142249D01*
X1897571Y2140056D01*
X1896290Y2137840D01*
X1895052Y2135599D01*
X1893857Y2133336D01*
X1892704Y2131050D01*
X1891595Y2128743D01*
X1890529Y2126416D01*
X1889508Y2124068D01*
X1888531Y2121702D01*
X1887599Y2119318D01*
X1879451Y2060298D02*
X1880473Y2057901D01*
X1881945Y2055752D01*
X1883811Y2053933D01*
X1885998Y2052517D01*
X1888420Y2051557D01*
X1890984Y2051092D01*
X1893589Y2051140D01*
X1896134Y2051698D01*
X1898520Y2052745D01*
X1900654Y2054240D01*
X1919704Y2066940D02*
X1917308Y2066010D01*
X1914967Y2064952D01*
X1912687Y2063767D01*
X1910475Y2062461D01*
X1908338Y2061035D01*
X1906281Y2059496D01*
X1904310Y2057847D01*
X1902433Y2056093D01*
X1900654Y2054240D01*
X1919704Y2066940D02*
X1918871Y2064539D01*
X1918075Y2062126D01*
X1917316Y2059702D01*
X1916595Y2057265D01*
X1915911Y2054818D01*
X1915265Y2052361D01*
X1914657Y2049894D01*
X1914087Y2047417D01*
X1913555Y2044933D01*
X1913062Y2042440D01*
X1912607Y2039941D01*
X1912190Y2037434D01*
X1911812Y2034922D01*
X1911473Y2032403D01*
X1911172Y2029880D01*
X1910911Y2027353D01*
X1910688Y2024822D01*
X1910505Y2022288D01*
X1910360Y2019751D01*
X1910254Y2017212D01*
X1910188Y2014672D01*
X1910161Y2012131D01*
X1910172Y2009590D01*
X1910223Y2007050D01*
X1910313Y2004511D01*
X1910442Y2001973D01*
X1910610Y1999438D01*
X1910817Y1996906D01*
X1911063Y1994377D01*
X1911348Y1991852D01*
X1911672Y1989332D01*
X1912034Y1986817D01*
X1912436Y1984308D01*
X1912875Y1981805D01*
X1913353Y1979310D01*
X1913353Y1979310D02*
X1914021Y1976823D01*
X1915195Y1974531D01*
X1916824Y1972536D01*
X1918835Y1970927D01*
X1921138Y1969775D01*
X1923632Y1969132D01*
X1926205Y1969026D01*
X1928743Y1969462D01*
X1931134Y1970420D01*
X2018763Y1942480D02*
X2017440Y1944618D01*
X2016040Y1946706D01*
X2014565Y1948743D01*
X2013017Y1950724D01*
X2011398Y1952648D01*
X2009710Y1954512D01*
X2007956Y1956313D01*
X2006138Y1958050D01*
X2004257Y1959719D01*
X2002318Y1961319D01*
X2000322Y1962848D01*
X1998271Y1964303D01*
X1996169Y1965683D01*
X1994018Y1966986D01*
X1991822Y1968209D01*
X1989582Y1969353D01*
X1987303Y1970414D01*
X1984986Y1971392D01*
X1982636Y1972285D01*
X1980255Y1973092D01*
X1977845Y1973812D01*
X1975412Y1974444D01*
X1972957Y1974988D01*
X1970484Y1975442D01*
X1967996Y1975806D01*
X1965497Y1976080D01*
X1962989Y1976262D01*
X1960476Y1976354D01*
X1957962Y1976354D01*
X1955449Y1976263D01*
X1952941Y1976081D01*
X1950441Y1975808D01*
X1947953Y1975444D01*
X1945480Y1974991D01*
X1943025Y1974448D01*
X1940592Y1973816D01*
X1938182Y1973096D01*
X1935801Y1972290D01*
X1933450Y1971397D01*
X1931134Y1970420D01*
X2018763Y1942480D02*
X2016398Y1941578D01*
X2014056Y1940618D01*
X2011738Y1939601D01*
X2009446Y1938527D01*
X2007180Y1937397D01*
X2004944Y1936212D01*
X2002737Y1934971D01*
X2000562Y1933677D01*
X1998419Y1932329D01*
X1996310Y1930929D01*
X1994236Y1929478D01*
X1992199Y1927976D01*
X1990199Y1926424D01*
X1988238Y1924823D01*
X1986317Y1923174D01*
X1984437Y1921479D01*
X1982600Y1919738D01*
X1980806Y1917952D01*
X1979056Y1916122D01*
X1977352Y1914250D01*
X1975695Y1912337D01*
X1974086Y1910383D01*
X1972525Y1908390D01*
X1971013Y1906360D01*
X1969553Y1904292D01*
X1968143Y1902190D01*
X1966786Y1900053D01*
X1965482Y1897883D01*
X1964232Y1895682D01*
X1963036Y1893451D01*
X1961896Y1891191D01*
X1960811Y1888904D01*
X1959784Y1886590D01*
X1958813Y1884252D01*
X1957901Y1881891D01*
X1957047Y1879508D01*
X1956252Y1877105D01*
X1955517Y1874683D01*
X1954841Y1872243D01*
X1954225Y1869788D01*
X1953671Y1867318D01*
X1953177Y1864835D01*
X1952745Y1862341D01*
X1952374Y1859837D01*
X1952065Y1857324D01*
X1951819Y1854805D01*
X1951634Y1852280D01*
X1951511Y1849752D01*
X1951451Y1847221D01*
X1951454Y1844690D01*
Y1844690D02*
X1951634Y1842271D01*
X1952294Y1839937D01*
X1953407Y1837783D01*
X1954929Y1835894D01*
X1956798Y1834348D01*
X1958938Y1833206D01*
X1961263Y1832516D01*
X1963679Y1832304D01*
X1966089Y1832580D01*
X1968394Y1833332D01*
X1970504Y1834530D01*
X1979393Y1838340D02*
X1976957Y1837978D01*
X1974619Y1837205D01*
X1972446Y1836044D01*
X1970504Y1834530D01*
X1979393Y1838340D02*
X1977939Y1836259D01*
X1976562Y1834125D01*
X1975266Y1831942D01*
X1974052Y1829712D01*
X1972921Y1827439D01*
X1971875Y1825125D01*
X1970916Y1822774D01*
X1970044Y1820389D01*
X1969262Y1817974D01*
X1968569Y1815531D01*
X1967968Y1813064D01*
X1967459Y1810576D01*
X1967042Y1808072D01*
X1966719Y1805553D01*
X1966489Y1803025D01*
X1966353Y1800489D01*
X1966311Y1797950D01*
X1966364Y1795412D01*
X1966510Y1792877D01*
X1966750Y1790349D01*
X1967084Y1787832D01*
X1967511Y1785329D01*
X1968031Y1782844D01*
X1968643Y1780380D01*
X1969345Y1777940D01*
X1970138Y1775527D01*
X1971019Y1773146D01*
X1971988Y1770799D01*
X1973044Y1768490D01*
X1975085Y1766815D01*
X1977414Y1765570D01*
X1979941Y1764803D01*
X1982569Y1764545D01*
X1985196Y1764803D01*
X1987723Y1765570D01*
X1990052Y1766815D01*
X1992094Y1768490D01*
X2069563Y1771030D02*
X2067518Y1772549D01*
X2065411Y1773981D01*
X2063246Y1775323D01*
X2061026Y1776573D01*
X2058756Y1777728D01*
X2056439Y1778788D01*
X2054080Y1779749D01*
X2051683Y1780611D01*
X2049251Y1781371D01*
X2046790Y1782028D01*
X2044304Y1782582D01*
X2041796Y1783031D01*
X2039272Y1783374D01*
X2036735Y1783611D01*
X2034191Y1783741D01*
X2031644Y1783764D01*
X2029098Y1783681D01*
X2026557Y1783491D01*
X2024027Y1783194D01*
X2021512Y1782791D01*
X2019015Y1782284D01*
X2016543Y1781672D01*
X2014097Y1780956D01*
X2011685Y1780139D01*
X2009308Y1779221D01*
X2006973Y1778205D01*
X2004681Y1777091D01*
X2002439Y1775882D01*
X2000249Y1774580D01*
X1998116Y1773187D01*
X1996044Y1771706D01*
X1994035Y1770140D01*
X1992094Y1768490D01*
X2069563Y1771030D02*
X2067350Y1769847D01*
X2065169Y1768606D01*
X2063020Y1767308D01*
X2060907Y1765954D01*
X2058831Y1764544D01*
X2056792Y1763081D01*
X2054792Y1761564D01*
X2052833Y1759995D01*
X2050916Y1758375D01*
X2049042Y1756705D01*
X2047213Y1754987D01*
X2045430Y1753221D01*
X2043694Y1751408D01*
X2042006Y1749551D01*
X2040368Y1747649D01*
X2038780Y1745706D01*
X2037244Y1743721D01*
X2035761Y1741696D01*
X2034332Y1739633D01*
X2032958Y1737533D01*
X2031639Y1735397D01*
X2030377Y1733228D01*
X2029173Y1731026D01*
X2028027Y1728793D01*
X2026940Y1726531D01*
X2025913Y1724241D01*
X2024947Y1721924D01*
X2024042Y1719583D01*
X2022613Y1659683D02*
X2024256Y1657836D01*
X2026194Y1656301D01*
X2028369Y1655127D01*
X2030715Y1654347D01*
X2033161Y1653986D01*
X2035632Y1654055D01*
X2038054Y1654551D01*
X2040354Y1655460D01*
X2065753Y1654190D02*
X2063983Y1656118D01*
X2061935Y1657749D01*
X2059659Y1659042D01*
X2057210Y1659967D01*
X2054648Y1660502D01*
X2052033Y1660632D01*
X2049430Y1660356D01*
X2046901Y1659680D01*
X2044508Y1658620D01*
X2042307Y1657202D01*
X2040354Y1655460D01*
X2065753Y1654190D02*
X2063629Y1652700D01*
X2061653Y1651018D01*
X2059843Y1649158D01*
X2058215Y1647138D01*
X2056782Y1644974D01*
X2055558Y1642686D01*
X2054553Y1640294D01*
X2053777Y1637818D01*
X2053234Y1635280D01*
X2052932Y1632703D01*
X2052871Y1630109D01*
X2053053Y1627520D01*
Y1627520D02*
X2053124Y1625012D01*
X2053659Y1622561D01*
X2054639Y1620252D01*
X2056031Y1618165D01*
X2057787Y1616373D01*
X2059845Y1614939D01*
X2062133Y1613911D01*
X2064573Y1613326D01*
X2067079Y1613204D01*
X2069563Y1613550D01*
X2153383Y1533540D02*
X2153138Y1536062D01*
X2152819Y1538576D01*
X2152427Y1541080D01*
X2151962Y1543572D01*
X2151426Y1546048D01*
X2150817Y1548509D01*
X2150138Y1550950D01*
X2149388Y1553371D01*
X2148568Y1555769D01*
X2147679Y1558142D01*
X2146721Y1560488D01*
X2145695Y1562806D01*
X2144603Y1565092D01*
X2143444Y1567346D01*
X2142221Y1569566D01*
X2140934Y1571749D01*
X2139584Y1573894D01*
X2138172Y1575998D01*
X2136700Y1578061D01*
X2135168Y1580080D01*
X2133579Y1582054D01*
X2131933Y1583981D01*
X2130231Y1585859D01*
X2128476Y1587687D01*
X2126668Y1589463D01*
X2124810Y1591186D01*
X2122902Y1592855D01*
X2120947Y1594467D01*
X2118946Y1596022D01*
X2116900Y1597518D01*
X2114812Y1598954D01*
X2112683Y1600329D01*
X2110515Y1601641D01*
X2108310Y1602890D01*
X2106069Y1604074D01*
X2103795Y1605193D01*
X2101490Y1606246D01*
X2099155Y1607230D01*
X2096792Y1608147D01*
X2094404Y1608995D01*
X2091992Y1609773D01*
X2089559Y1610480D01*
X2087106Y1611117D01*
X2084635Y1611682D01*
X2082149Y1612176D01*
X2079650Y1612597D01*
X2077140Y1612945D01*
X2074621Y1613220D01*
X2072094Y1613422D01*
X2069563Y1613550D01*
X2124173Y1505600D02*
X2126069Y1507271D01*
X2127956Y1508952D01*
X2129833Y1510643D01*
X2131702Y1512345D01*
X2133561Y1514057D01*
X2135410Y1515779D01*
X2137251Y1517510D01*
X2139081Y1519252D01*
X2140903Y1521004D01*
X2142715Y1522765D01*
X2144517Y1524537D01*
X2146310Y1526318D01*
X2148092Y1528109D01*
X2149866Y1529909D01*
X2151629Y1531719D01*
X2153382Y1533539D01*
X2124173Y1505600D02*
X2122421Y1503742D01*
X2121064Y1501578D01*
X2120154Y1499192D01*
X2119726Y1496674D01*
X2119797Y1494120D01*
X2120363Y1491630D01*
X2121404Y1489298D01*
X2122880Y1487213D01*
X2124733Y1485455D01*
X2126893Y1484091D01*
X2129277Y1483175D01*
X2131794Y1482740D01*
X2169893Y1477660D02*
X2167366Y1478083D01*
X2164836Y1478494D01*
X2162304Y1478893D01*
X2159770Y1479279D01*
X2157235Y1479654D01*
X2154698Y1480017D01*
X2152159Y1480368D01*
X2149618Y1480706D01*
X2147076Y1481033D01*
X2144532Y1481348D01*
X2141987Y1481650D01*
X2139441Y1481941D01*
X2136893Y1482219D01*
X2134344Y1482486D01*
X2131794Y1482740D01*
X2169893Y1477660D02*
X2170726Y1475226D01*
X2171564Y1472795D01*
X2172408Y1470366D01*
X2173259Y1467939D01*
X2174115Y1465514D01*
X2174977Y1463091D01*
X2175845Y1460670D01*
X2176719Y1458251D01*
X2177599Y1455835D01*
X2178485Y1453421D01*
X2179377Y1451009D01*
X2180276Y1448599D01*
X2181179Y1446191D01*
X2182089Y1443786D01*
X2183005Y1441383D01*
X2183927Y1438982D01*
X2184854Y1436583D01*
X2185788Y1434187D01*
X2186728Y1431793D01*
X2187673Y1429401D01*
X2187673Y1429400D02*
X2189036Y1427336D01*
X2190798Y1425600D01*
X2192882Y1424268D01*
X2195197Y1423398D01*
X2197642Y1423027D01*
X2200111Y1423172D01*
X2202496Y1423827D01*
X2204693Y1424963D01*
X2206606Y1426530D01*
X2208152Y1428461D01*
X2209263Y1430670D01*
X2209263Y1430670D02*
X2210164Y1433015D01*
X2211063Y1435361D01*
X2211962Y1437707D01*
X2212859Y1440053D01*
X2213754Y1442400D01*
X2214649Y1444747D01*
X2215542Y1447095D01*
X2216434Y1449444D01*
X2217325Y1451793D01*
X2218215Y1454142D01*
X2219103Y1456492D01*
X2219990Y1458842D01*
X2220876Y1461192D01*
X2221761Y1463544D01*
X2222644Y1465895D01*
X2223527Y1468247D01*
X2224408Y1470600D01*
X2225287Y1472953D01*
X2226166Y1475306D01*
X2227043Y1477660D01*
X2227043Y1477660D02*
X2229588Y1477941D01*
X2232132Y1478226D01*
X2234675Y1478517D01*
X2237217Y1478812D01*
X2239759Y1479113D01*
X2242301Y1479418D01*
X2244842Y1479728D01*
X2247382Y1480043D01*
X2249922Y1480363D01*
X2252461Y1480688D01*
X2254999Y1481017D01*
X2257537Y1481352D01*
X2260074Y1481692D01*
X2262611Y1482036D01*
X2265146Y1482386D01*
X2267681Y1482740D01*
X2267684Y1482740D02*
X2269984Y1483806D01*
X2272052Y1485273D01*
X2273817Y1487094D01*
X2275219Y1489207D01*
X2276212Y1491540D01*
X2276763Y1494016D01*
X2276851Y1496550D01*
X2276475Y1499058D01*
X2275648Y1501455D01*
X2274397Y1503660D01*
X2272764Y1505600D01*
Y1505600D02*
X2270871Y1507360D01*
X2268977Y1509118D01*
X2267081Y1510874D01*
X2265183Y1512628D01*
X2263284Y1514381D01*
X2261383Y1516132D01*
X2259481Y1517881D01*
X2257577Y1519628D01*
X2255671Y1521373D01*
X2253763Y1523117D01*
X2251854Y1524859D01*
X2249943Y1526598D01*
X2248031Y1528336D01*
X2246117Y1530073D01*
X2244201Y1531807D01*
X2242284Y1533540D01*
X2331183Y1612280D02*
X2328637Y1612249D01*
X2326092Y1612145D01*
X2323551Y1611969D01*
X2321017Y1611720D01*
X2318490Y1611399D01*
X2315974Y1611006D01*
X2313469Y1610542D01*
X2310979Y1610007D01*
X2308506Y1609401D01*
X2306050Y1608724D01*
X2303615Y1607978D01*
X2301202Y1607163D01*
X2298813Y1606279D01*
X2296451Y1605328D01*
X2294116Y1604310D01*
X2291812Y1603225D01*
X2289539Y1602076D01*
X2287300Y1600862D01*
X2285097Y1599584D01*
X2282931Y1598245D01*
X2280804Y1596844D01*
X2278717Y1595383D01*
X2276673Y1593864D01*
X2274674Y1592286D01*
X2272720Y1590652D01*
X2270813Y1588964D01*
X2268956Y1587222D01*
X2267148Y1585427D01*
X2265393Y1583582D01*
X2263691Y1581687D01*
X2262044Y1579745D01*
X2260452Y1577756D01*
X2258918Y1575723D01*
X2257443Y1573647D01*
X2256027Y1571530D01*
X2254672Y1569373D01*
X2253379Y1567179D01*
X2252150Y1564949D01*
X2250984Y1562684D01*
X2249883Y1560387D01*
X2248849Y1558060D01*
X2247881Y1555704D01*
X2246980Y1553322D01*
X2246148Y1550915D01*
X2245385Y1548485D01*
X2244691Y1546034D01*
X2244067Y1543565D01*
X2243514Y1541079D01*
X2243033Y1538578D01*
X2242622Y1536064D01*
X2242283Y1533540D01*
X2331183Y1612280D02*
X2333773Y1612660D01*
X2336238Y1613538D01*
X2338485Y1614880D01*
X2340427Y1616635D01*
X2341989Y1618734D01*
X2343111Y1621099D01*
X2343751Y1623636D01*
X2343884Y1626250D01*
X2343929Y1628789D01*
X2343793Y1631325D01*
X2343477Y1633845D01*
X2342982Y1636336D01*
X2342311Y1638785D01*
X2341467Y1641181D01*
X2340454Y1643510D01*
X2339278Y1645760D01*
X2337945Y1647922D01*
X2336461Y1649983D01*
X2334833Y1651933D01*
X2333071Y1653761D01*
X2331183Y1655460D01*
X2357854Y1655460D02*
X2355764Y1657092D01*
X2353476Y1658433D01*
X2351032Y1659461D01*
X2348473Y1660156D01*
X2345844Y1660506D01*
X2343193D01*
X2340564Y1660156D01*
X2338005Y1659461D01*
X2335561Y1658433D01*
X2333273Y1657092D01*
X2331183Y1655460D01*
X2357854D02*
X2360000Y1654380D01*
X2362319Y1653751D01*
X2364717Y1653598D01*
X2367097Y1653928D01*
X2369363Y1654727D01*
X2371424Y1655963D01*
X2373196Y1657586D01*
X2374608Y1659530D01*
X2372607Y1720804D02*
X2371654Y1723180D01*
X2370636Y1725529D01*
X2369555Y1727849D01*
X2368412Y1730139D01*
X2367207Y1732398D01*
X2365942Y1734623D01*
X2364617Y1736813D01*
X2363234Y1738967D01*
X2361793Y1741082D01*
X2360295Y1743158D01*
X2358742Y1745193D01*
X2357134Y1747185D01*
X2355473Y1749132D01*
X2353760Y1751034D01*
X2351996Y1752889D01*
X2350183Y1754696D01*
X2348321Y1756453D01*
X2346413Y1758159D01*
X2344459Y1759813D01*
X2342462Y1761414D01*
X2340422Y1762960D01*
X2338341Y1764450D01*
X2336220Y1765884D01*
X2334061Y1767260D01*
X2331866Y1768577D01*
X2329637Y1769834D01*
X2327374Y1771030D01*
X2406113Y1767220D02*
X2404247Y1768922D01*
X2402310Y1770544D01*
X2400307Y1772084D01*
X2398241Y1773539D01*
X2396117Y1774906D01*
X2393937Y1776183D01*
X2391705Y1777368D01*
X2389426Y1778458D01*
X2387103Y1779451D01*
X2384741Y1780347D01*
X2382343Y1781143D01*
X2379914Y1781838D01*
X2377458Y1782430D01*
X2374980Y1782920D01*
X2372483Y1783305D01*
X2369972Y1783585D01*
X2367452Y1783760D01*
X2364926Y1783829D01*
X2362400Y1783793D01*
X2359878Y1783650D01*
X2357363Y1783403D01*
X2354862Y1783050D01*
X2352377Y1782593D01*
X2349913Y1782032D01*
X2347476Y1781369D01*
X2345068Y1780604D01*
X2342694Y1779739D01*
X2340359Y1778775D01*
X2338065Y1777715D01*
X2335819Y1776559D01*
X2333622Y1775311D01*
X2331480Y1773972D01*
X2329396Y1772544D01*
X2327374Y1771030D01*
X2406113Y1767220D02*
X2408308Y1766145D01*
X2410659Y1765479D01*
X2413091Y1765241D01*
X2415526Y1765441D01*
X2417887Y1766070D01*
X2420098Y1767110D01*
X2422089Y1768527D01*
X2423795Y1770276D01*
X2425164Y1772300D01*
X2425164D02*
X2425999Y1774713D01*
X2426751Y1777153D01*
X2427418Y1779617D01*
X2428000Y1782103D01*
X2428496Y1784608D01*
X2428905Y1787128D01*
X2429227Y1789661D01*
X2429462Y1792204D01*
X2429609Y1794753D01*
X2429668Y1797305D01*
X2429639Y1799858D01*
X2429521Y1802409D01*
X2429316Y1804954D01*
X2429024Y1807490D01*
X2428644Y1810015D01*
X2428177Y1812525D01*
X2427624Y1815018D01*
X2426985Y1817490D01*
X2426262Y1819939D01*
X2425454Y1822361D01*
X2424564Y1824754D01*
X2423591Y1827115D01*
X2422538Y1829441D01*
X2421405Y1831729D01*
X2420194Y1833976D01*
X2418906Y1836181D01*
X2417543Y1838340D01*
X2427704Y1833260D02*
X2426051Y1834903D01*
X2424158Y1836263D01*
X2422073Y1837305D01*
X2419850Y1838004D01*
X2417543Y1838340D01*
X2427704Y1833260D02*
X2430187Y1832811D01*
X2432711Y1832799D01*
X2435199Y1833227D01*
X2437575Y1834079D01*
X2439766Y1835332D01*
X2441707Y1836945D01*
X2443338Y1838872D01*
X2444610Y1841052D01*
X2445484Y1843420D01*
X2445513Y1845976D01*
X2445478Y1848532D01*
X2445381Y1851086D01*
X2445219Y1853637D01*
X2444995Y1856184D01*
X2444707Y1858724D01*
X2444357Y1861256D01*
X2443944Y1863778D01*
X2443468Y1866290D01*
X2442930Y1868789D01*
X2442330Y1871273D01*
X2441669Y1873743D01*
X2440946Y1876194D01*
X2440163Y1878628D01*
X2439320Y1881041D01*
X2438417Y1883432D01*
X2437455Y1885801D01*
X2436435Y1888144D01*
X2435357Y1890462D01*
X2434221Y1892752D01*
X2433029Y1895013D01*
X2431782Y1897244D01*
X2430479Y1899444D01*
X2429122Y1901610D01*
X2427712Y1903742D01*
X2426249Y1905838D01*
X2424735Y1907897D01*
X2423170Y1909919D01*
X2421555Y1911900D01*
X2419892Y1913841D01*
X2418181Y1915740D01*
X2416423Y1917596D01*
X2414620Y1919408D01*
X2412772Y1921174D01*
X2410882Y1922894D01*
X2408949Y1924567D01*
X2406975Y1926191D01*
X2404961Y1927766D01*
X2402909Y1929290D01*
X2400820Y1930763D01*
X2398695Y1932183D01*
X2396535Y1933550D01*
X2394342Y1934864D01*
X2392117Y1936122D01*
X2389861Y1937325D01*
X2387577Y1938471D01*
X2385264Y1939561D01*
X2382925Y1940592D01*
X2380562Y1941565D01*
X2378175Y1942480D01*
X2463264Y1970420D02*
X2460948Y1971420D01*
X2458595Y1972331D01*
X2456210Y1973151D01*
X2453795Y1973880D01*
X2451354Y1974516D01*
X2448890Y1975059D01*
X2446408Y1975508D01*
X2443910Y1975861D01*
X2441401Y1976119D01*
X2438883Y1976281D01*
X2436362Y1976346D01*
X2433839Y1976316D01*
X2431320Y1976189D01*
X2428807Y1975967D01*
X2426305Y1975648D01*
X2423816Y1975235D01*
X2421345Y1974727D01*
X2418896Y1974125D01*
X2416471Y1973430D01*
X2414074Y1972643D01*
X2411709Y1971765D01*
X2409379Y1970798D01*
X2407088Y1969742D01*
X2404839Y1968600D01*
X2402635Y1967373D01*
X2400479Y1966062D01*
X2398375Y1964671D01*
X2396326Y1963200D01*
X2394334Y1961652D01*
X2392402Y1960030D01*
X2390534Y1958335D01*
X2388732Y1956569D01*
X2386999Y1954737D01*
X2385337Y1952839D01*
X2383748Y1950880D01*
X2382235Y1948861D01*
X2380800Y1946786D01*
X2379446Y1944658D01*
X2378174Y1942480D01*
X2463264Y1970420D02*
X2465769Y1969563D01*
X2468392Y1969198D01*
X2471037Y1969339D01*
X2473606Y1969982D01*
X2476006Y1971102D01*
X2478149Y1972658D01*
X2479956Y1974594D01*
X2481361Y1976839D01*
X2482314Y1979310D01*
X2482314Y1979310D02*
X2482874Y1981790D01*
X2483394Y1984280D01*
X2483873Y1986777D01*
X2484311Y1989283D01*
X2484707Y1991794D01*
X2485062Y1994313D01*
X2485375Y1996836D01*
X2485647Y1999365D01*
X2485876Y2001897D01*
X2486064Y2004434D01*
X2486210Y2006972D01*
X2486315Y2009513D01*
X2486377Y2012056D01*
X2486398Y2014599D01*
X2486376Y2017142D01*
X2486313Y2019684D01*
X2486207Y2022225D01*
X2486060Y2024763D01*
X2485871Y2027299D01*
X2485641Y2029832D01*
X2485368Y2032360D01*
X2485054Y2034884D01*
X2484698Y2037402D01*
X2484301Y2039914D01*
X2483862Y2042419D01*
X2483382Y2044916D01*
X2482861Y2047405D01*
X2482300Y2049886D01*
X2481697Y2052356D01*
X2481053Y2054816D01*
X2480370Y2057266D01*
X2479646Y2059704D01*
X2478881Y2062129D01*
X2478077Y2064542D01*
X2477233Y2066940D01*
X2496284Y2054240D02*
X2494420Y2055993D01*
X2492484Y2057667D01*
X2490481Y2059259D01*
X2488413Y2060766D01*
X2486284Y2062185D01*
X2484098Y2063514D01*
X2481858Y2064751D01*
X2479569Y2065894D01*
X2477233Y2066940D01*
X2496284Y2054240D02*
X2498312Y2052664D01*
X2500629Y2051557D01*
X2503129Y2050968D01*
X2505698Y2050925D01*
X2508216Y2051429D01*
X2510569Y2052459D01*
X2512649Y2053966D01*
X2514361Y2055881D01*
X2515625Y2058117D01*
X2516384Y2060571D01*
X2516604Y2063130D01*
X2507450Y2124190D02*
X2506460Y2126555D01*
X2505424Y2128900D01*
X2504342Y2131224D01*
X2503215Y2133527D01*
X2502043Y2135807D01*
X2500827Y2138064D01*
X2499567Y2140297D01*
X2498263Y2142505D01*
X2496917Y2144686D01*
X2495527Y2146841D01*
X2494097Y2148969D01*
X2492624Y2151068D01*
X2491111Y2153137D01*
X2489558Y2155177D01*
X2487965Y2157186D01*
X2486333Y2159163D01*
X2484662Y2161108D01*
X2482954Y2163020D01*
X2481209Y2164899D01*
X2479428Y2166742D01*
X2477610Y2168551D01*
X2475758Y2170323D01*
X2473871Y2172059D01*
X2471951Y2173758D01*
X2469998Y2175419D01*
X2468012Y2177041D01*
X2465996Y2178624D01*
X2463948Y2180168D01*
X2461871Y2181671D01*
X2459765Y2183133D01*
X2457631Y2184553D01*
X2455469Y2185932D01*
X2453281Y2187268D01*
X2451067Y2188561D01*
X2448828Y2189810D01*
X2446565Y2191015D01*
X2444279Y2192176D01*
X2441971Y2193292D01*
X2439641Y2194362D01*
X2437291Y2195387D01*
X2434921Y2196365D01*
X2432533Y2197297D01*
X2430127Y2198182D01*
X2427704Y2199020D01*
X2517874Y2191400D02*
X2516062Y2193157D01*
X2514188Y2194847D01*
X2512255Y2196469D01*
X2510264Y2198019D01*
X2508219Y2199497D01*
X2506122Y2200900D01*
X2503975Y2202227D01*
X2501782Y2203475D01*
X2499545Y2204643D01*
X2497268Y2205730D01*
X2494953Y2206734D01*
X2492603Y2207653D01*
X2490221Y2208488D01*
X2487811Y2209235D01*
X2485376Y2209896D01*
X2482918Y2210468D01*
X2480441Y2210951D01*
X2477949Y2211344D01*
X2475444Y2211647D01*
X2472929Y2211859D01*
X2470409Y2211981D01*
X2467886Y2212012D01*
X2465363Y2211951D01*
X2462844Y2211800D01*
X2460332Y2211557D01*
X2457831Y2211225D01*
X2455343Y2210802D01*
X2452872Y2210290D01*
X2450422Y2209689D01*
X2447994Y2208999D01*
X2445593Y2208223D01*
X2443222Y2207361D01*
X2440883Y2206413D01*
X2438580Y2205382D01*
X2436316Y2204268D01*
X2434093Y2203074D01*
X2431915Y2201800D01*
X2429784Y2200448D01*
X2427704Y2199020D01*
X2517874Y2191400D02*
X2519995Y2190255D01*
X2522298Y2189541D01*
X2524696Y2189286D01*
X2527098Y2189500D01*
X2529413Y2190173D01*
X2531554Y2191282D01*
X2533441Y2192784D01*
X2535001Y2194622D01*
X2536177Y2196727D01*
X2536924Y2199020D01*
X2536924Y2199020D02*
X2537291Y2201524D01*
X2537621Y2204033D01*
X2537913Y2206547D01*
X2538167Y2209065D01*
X2538382Y2211586D01*
X2538559Y2214111D01*
X2538697Y2216638D01*
X2538798Y2219166D01*
X2538860Y2221696D01*
X2538883Y2224227D01*
X2538868Y2226757D01*
X2538815Y2229287D01*
X2538723Y2231816D01*
X2538593Y2234344D01*
X2538425Y2236869D01*
X2538218Y2239391D01*
X2537973Y2241910D01*
X2537690Y2244424D01*
X2537368Y2246935D01*
X2537009Y2249440D01*
X2536612Y2251939D01*
X2536176Y2254432D01*
X2535703Y2256918D01*
X2535193Y2259397D01*
X2534644Y2261867D01*
X2534059Y2264329D01*
X2533436Y2266782D01*
X2532775Y2269225D01*
X2532078Y2271658D01*
X2531344Y2274079D01*
X2530573Y2276490D01*
X2547083Y2266330D02*
X2545275Y2267969D01*
X2543382Y2269511D01*
X2541411Y2270951D01*
X2539367Y2272285D01*
X2537255Y2273509D01*
X2535081Y2274620D01*
X2532852Y2275614D01*
X2530573Y2276490D01*
X2547083Y2266330D02*
X2549151Y2264912D01*
X2551449Y2263907D01*
X2553894Y2263351D01*
X2556401Y2263264D01*
X2558879Y2263648D01*
X2561241Y2264492D01*
X2563402Y2265763D01*
X2565286Y2267418D01*
X2566827Y2269397D01*
X2567968Y2271629D01*
X2568671Y2274037D01*
X2568908Y2276533D01*
X2568673Y2279030D01*
X2568673D02*
X2568372Y2281564D01*
X2568035Y2284093D01*
X2567664Y2286617D01*
X2567257Y2289136D01*
X2566817Y2291649D01*
X2566341Y2294155D01*
X2565831Y2296655D01*
X2565287Y2299148D01*
X2564709Y2301633D01*
X2564096Y2304110D01*
X2563450Y2306578D01*
X2562769Y2309037D01*
X2562055Y2311486D01*
X2561307Y2313926D01*
X2560525Y2316354D01*
X2559711Y2318772D01*
X2558862Y2321178D01*
X2557981Y2323573D01*
X2557067Y2325955D01*
X2556121Y2328324D01*
X2555142Y2330680D01*
X2554130Y2333023D01*
X2553086Y2335351D01*
X2552011Y2337664D01*
X2550903Y2339963D01*
X2549765Y2342246D01*
X2548594Y2344513D01*
X2547393Y2346764D01*
X2546161Y2348999D01*
X2544898Y2351215D01*
X2543605Y2353415D01*
X2542281Y2355596D01*
X2540928Y2357759D01*
X2539545Y2359903D01*
X2538133Y2362028D01*
X2536691Y2364133D01*
X2535221Y2366219D01*
X2533722Y2368283D01*
X2532195Y2370327D01*
X2530640Y2372350D01*
X2529057Y2374351D01*
X2527447Y2376330D01*
X2525810Y2378287D01*
X2524146Y2380221D01*
X2522455Y2382132D01*
X2520739Y2384019D01*
X2518996Y2385883D01*
X2517228Y2387723D01*
X2515435Y2389538D01*
X2513617Y2391328D01*
X2511775Y2393093D01*
X2509908Y2394832D01*
X2508018Y2396546D01*
X2506104Y2398233D01*
X2504167Y2399894D01*
X2502208Y2401528D01*
X2500226Y2403136D01*
X2498223Y2404715D01*
X2496197Y2406267D01*
X2494151Y2407791D01*
X2492084Y2409286D01*
X2489996Y2410753D01*
X2487889Y2412191D01*
X2485762Y2413600D01*
X2483615Y2414979D01*
X2481450Y2416329D01*
X2479267Y2417649D01*
X2477065Y2418939D01*
X2474846Y2420198D01*
X2472610Y2421426D01*
X2470357Y2422624D01*
X2468088Y2423791D01*
X2465803Y2424926D01*
X2463503Y2426029D01*
X2461187Y2427101D01*
X2458858Y2428141D01*
X2456514Y2429149D01*
X2454156Y2430124D01*
X2451785Y2431067D01*
X2449402Y2431977D01*
X2447006Y2432854D01*
X2444598Y2433698D01*
X2442179Y2434509D01*
X2439749Y2435287D01*
X2437308Y2436031D01*
X2434858Y2436741D01*
X2432398Y2437418D01*
X2429928Y2438060D01*
X2427451Y2438669D01*
X2424965Y2439243D01*
X2422471Y2439784D01*
X2419971Y2440289D01*
X2417463Y2440761D01*
X2414949Y2441197D01*
X2412430Y2441599D01*
X2409905Y2441967D01*
X2407375Y2442299D01*
X2404841Y2442597D01*
X2402303Y2442860D01*
X2402303D02*
X2399774Y2443029D01*
X2397242Y2443158D01*
X2394709Y2443246D01*
X2392174Y2443294D01*
X2389639Y2443301D01*
X2387104Y2443267D01*
X2384570Y2443192D01*
X2382038Y2443078D01*
X2379507Y2442922D01*
X2376980Y2442726D01*
X2374456Y2442489D01*
X2371936Y2442213D01*
X2369421Y2441895D01*
X2366911Y2441538D01*
X2364407Y2441140D01*
X2361910Y2440702D01*
X2359420Y2440224D01*
X2356939Y2439707D01*
X2354466Y2439149D01*
X2352002Y2438553D01*
X2349548Y2437916D01*
X2347104Y2437241D01*
X2344672Y2436526D01*
X2342252Y2435773D01*
X2339843Y2434980D01*
X2337448Y2434150D01*
X2335067Y2433281D01*
X2332699Y2432374D01*
X2330347Y2431429D01*
X2328010Y2430446D01*
X2325689Y2429427D01*
X2323385Y2428370D01*
X2321098Y2427276D01*
X2318828Y2426146D01*
X2316577Y2424980D01*
X2314346Y2423778D01*
X2312133Y2422540D01*
X2285365Y2411076D02*
X2287851Y2411991D01*
X2290327Y2412932D01*
X2292793Y2413898D01*
X2295249Y2414890D01*
X2297694Y2415908D01*
X2300129Y2416951D01*
X2302553Y2418019D01*
X2304966Y2419112D01*
X2307367Y2420230D01*
X2309756Y2421372D01*
X2312134Y2422540D01*
X2089884Y2420000D02*
X2087677Y2421204D01*
X2085455Y2422379D01*
X2083219Y2423526D01*
X2080968Y2424644D01*
X2078703Y2425734D01*
X2076424Y2426794D01*
X2074132Y2427825D01*
X2071827Y2428827D01*
X2069509Y2429799D01*
X2067179Y2430742D01*
X2064837Y2431655D01*
X2062484Y2432538D01*
X2060120Y2433390D01*
X2057745Y2434212D01*
X2055359Y2435004D01*
X2052964Y2435766D01*
X2050559Y2436496D01*
X2048145Y2437196D01*
X2045722Y2437865D01*
X2043291Y2438503D01*
X2040852Y2439110D01*
X2038406Y2439686D01*
X2035952Y2440230D01*
X2033491Y2440743D01*
X2031025Y2441225D01*
X2028552Y2441675D01*
X2026073Y2442093D01*
X2023590Y2442479D01*
X2021102Y2442834D01*
X2018609Y2443157D01*
X2016113Y2443448D01*
X2013613Y2443708D01*
X2011109Y2443935D01*
X2008604Y2444130D01*
X2008604D02*
X2006054Y2444087D01*
X2003505Y2444009D01*
X2000958Y2443895D01*
X1998412Y2443746D01*
X1995869Y2443561D01*
X1993329Y2443340D01*
X1990791Y2443085D01*
X1988258Y2442794D01*
X1985729Y2442468D01*
X1983205Y2442106D01*
X1980686Y2441710D01*
X1978173Y2441278D01*
X1975666Y2440811D01*
X1973166Y2440310D01*
X1970673Y2439774D01*
X1968188Y2439203D01*
X1965711Y2438597D01*
X1963242Y2437957D01*
X1960783Y2437283D01*
X1958334Y2436575D01*
X1955894Y2435832D01*
X1953465Y2435056D01*
X1951048Y2434246D01*
X1948641Y2433402D01*
X1946247Y2432525D01*
X1943865Y2431614D01*
X1941496Y2430670D01*
X1939140Y2429694D01*
X1936799Y2428685D01*
X1934471Y2427643D01*
X1932159Y2426569D01*
X1929861Y2425463D01*
X1927579Y2424324D01*
X1925314Y2423155D01*
X1923064Y2421953D01*
X1920832Y2420721D01*
X1918617Y2419458D01*
X1916420Y2418163D01*
X1914241Y2416839D01*
X1912081Y2415484D01*
X1909940Y2414099D01*
X1907818Y2412684D01*
X1905717Y2411240D01*
X1903635Y2409767D01*
X1901574Y2408265D01*
X1899535Y2406735D01*
X1897517Y2405176D01*
X1895521Y2403589D01*
X1893547Y2401975D01*
X1891596Y2400333D01*
X1889668Y2398664D01*
X1887763Y2396969D01*
X1885883Y2395247D01*
X1884026Y2393499D01*
X1882194Y2391725D01*
X1880387Y2389926D01*
X1878605Y2388102D01*
X1876848Y2386254D01*
X1875118Y2384381D01*
X1873414Y2382484D01*
X1871736Y2380564D01*
X1870085Y2378620D01*
X1868462Y2376654D01*
X1866866Y2374665D01*
X1865298Y2372654D01*
X1863758Y2370621D01*
X1862247Y2368568D01*
X1860764Y2366493D01*
X1859310Y2364398D01*
X1857886Y2362283D01*
X1856492Y2360148D01*
X1855127Y2357994D01*
X1853792Y2355821D01*
X1852488Y2353630D01*
X1851214Y2351421D01*
X1849972Y2349194D01*
X1848760Y2346951D01*
X1847580Y2344690D01*
X1846431Y2342414D01*
X1845315Y2340121D01*
X1844230Y2337814D01*
X1843178Y2335491D01*
X1842158Y2333154D01*
X1841170Y2330803D01*
X1840216Y2328438D01*
X1839294Y2326060D01*
X1838406Y2323670D01*
X1837552Y2321268D01*
X1836730Y2318854D01*
X1835943Y2316428D01*
X1835189Y2313992D01*
X1834469Y2311546D01*
X1833784Y2309090D01*
X1833133Y2306625D01*
X1832516Y2304151D01*
X1831934Y2301668D01*
X1831386Y2299177D01*
X1830873Y2296680D01*
X1830395Y2294175D01*
X1829952Y2291664D01*
X1829544Y2289147D01*
X1829171Y2286624D01*
X1828833Y2284097D01*
X1828531Y2281565D01*
X1828264Y2279030D01*
Y2279030D02*
X1828029Y2276533D01*
X1828266Y2274037D01*
X1828969Y2271629D01*
X1830110Y2269397D01*
X1831651Y2267418D01*
X1833535Y2265763D01*
X1835697Y2264492D01*
X1838058Y2263648D01*
X1840536Y2263264D01*
X1843042Y2263351D01*
X1845488Y2263907D01*
X1847785Y2264912D01*
X1849854Y2266330D01*
X2285365Y2583970D02*
Y2411076D01*
X2119191Y2583970D02*
Y2407266D01*
X2285365Y2583970D02*
X2231107D01*
X2170914D02*
X2119191D01*
M02*
