G04*
G04 #@! TF.GenerationSoftware,Altium Limited,Altium Designer,21.2.2 (38)*
G04*
G04 Layer_Color=128*
%FSLAX44Y44*%
%MOMM*%
G71*
G04*
G04 #@! TF.SameCoordinates,5FF3B01B-9308-42A9-B2BD-2142B56AF961*
G04*
G04*
G04 #@! TF.FilePolarity,Positive*
G04*
G01*
G75*
G04:AMPARAMS|DCode=44|XSize=2mm|YSize=1.5mm|CornerRadius=0.375mm|HoleSize=0mm|Usage=FLASHONLY|Rotation=90.000|XOffset=0mm|YOffset=0mm|HoleType=Round|Shape=RoundedRectangle|*
%AMROUNDEDRECTD44*
21,1,2.0000,0.7500,0,0,90.0*
21,1,1.2500,1.5000,0,0,90.0*
1,1,0.7500,0.3750,0.6250*
1,1,0.7500,0.3750,-0.6250*
1,1,0.7500,-0.3750,-0.6250*
1,1,0.7500,-0.3750,0.6250*
%
%ADD44ROUNDEDRECTD44*%
D44*
X1661176Y1744070D02*
D03*
X1711976Y1667870D02*
D03*
X1737377D02*
D03*
X1686577D02*
D03*
X1762776D02*
D03*
X1661176D02*
D03*
X1673876Y1769470D02*
D03*
X1750076D02*
D03*
X1724677D02*
D03*
X1711976Y1744070D02*
D03*
X1699276Y1769470D02*
D03*
X1686577Y1744070D02*
D03*
X1737377D02*
D03*
X2961189D02*
D03*
X3011989Y1667870D02*
D03*
X3037389D02*
D03*
X2986589D02*
D03*
X3062789D02*
D03*
X2961189D02*
D03*
X2973889Y1769470D02*
D03*
X3050089D02*
D03*
X3024689D02*
D03*
X3011989Y1744070D02*
D03*
X2999289Y1769470D02*
D03*
X2986589Y1744070D02*
D03*
X3037389D02*
D03*
X2078414Y2274370D02*
D03*
X2027614Y2350570D02*
D03*
X2002213D02*
D03*
X2053013D02*
D03*
X1976814D02*
D03*
X2078414D02*
D03*
X2065714Y2248970D02*
D03*
X1989514D02*
D03*
X2014913D02*
D03*
X2027614Y2274370D02*
D03*
X2040314Y2248970D02*
D03*
X2053013Y2274370D02*
D03*
X2002213D02*
D03*
M02*
