M48
;Layer_Color=9474304
;FILE_FORMAT=4:4
METRIC,TZ
;TYPE=PLATED
T1F00S00C0.3000
T2F00S00C0.5000
T3F00S00C1.0000
T4F00S00C1.7100
T5F00S00C2.0000
T6F00S00C3.0000
;TYPE=NON_PLATED
T7F00S00C0.5000
T8F00S00C0.8000
%
T01
X2874281Y1556530
X2867169Y1565166
X2243264Y1504220
X2215013Y1511470
X2190764Y1499470
X2162764Y1497220
X2204263Y1472470
X2196763Y1585220
X1567157Y1565166
X1574268Y1556530
X1334827Y1700970
X1260826Y1724970
X1315827Y1942970
X1393676Y1929470
X1423577Y1960220
X1440327Y1956970
X1446577Y1968720
X1456826Y1961220
X1467077Y1974970
X1429827Y1982470
X1413826Y1980970
X1483976Y1931470
X1568676Y1957470
X1570232Y1872417
X1558865Y1869697
X1580433Y1876400
X1591994Y1881452
X1601577Y1887220
X1598900Y1848683
X1587724Y1845190
X1611614Y1854551
X1620555Y1862095
X1635204Y1783176
X1678076Y1797534
X1688076Y1797470
X1697077
X1705076
X1713683Y1797612
X1722077Y1797470
X1731077
X1740076
X1736077Y1806470
X1719025Y1849392
X1714754Y1699793
X1712077Y1684470
X1738076Y1683470
X1645076Y1708470
X1639077Y1715470
X1586077Y1729470
X1550108Y1732210
X1445461Y1706048
X1764980Y1776241
X1767932Y1875326
X1791662Y1915598
X2036364Y1949870
X2071824Y1867539
X2079124Y1869058
X2086327Y1868078
X2087405Y1855731
X2078585Y1856956
X2069962Y1855143
X2063445Y1852203
X2067014Y1842970
X2074910Y1843383
X2082407Y1843285
X2090884Y1841521
X2095784Y1853281
X2143763Y1829220
X2151183Y1771204
X2142513Y1764720
X2080013Y1787970
X2093513Y1632970
X2155013Y1671220
X2163763Y1737720
X2174763Y1745970
X2188763Y1751220
X2201013Y1752720
X2184514Y1783970
X2173782Y1780329
X2162355Y1775980
X2218013Y1856470
X2291763Y1862470
X2363513Y1850970
X2291514Y1677470
X2241534Y1651750
X2234332Y1652730
X2227031Y1651211
X2225169Y1638815
X2218652Y1635875
X2222221Y1626642
X2230118Y1627055
X2237614Y1626957
X2246091Y1625193
X2250991Y1636953
X2242612Y1639402
X2233793Y1640627
X2222014Y1686470
X2560839Y1724970
X2634839Y1700970
X2745473Y1706048
X2850121Y1732210
X2886089Y1729470
X2939089Y1715470
X2945089Y1708470
X2935217Y1783176
X2920568Y1862095
X2911626Y1854551
X2898913Y1848683
X2887736Y1845190
X2880445Y1876400
X2870244Y1872417
X2858878Y1869697
X2892006Y1881452
X2901589Y1887220
X2868689Y1957470
X2783989Y1931470
X2756839Y1961220
X2746589Y1968720
X2740339Y1956970
X2723589Y1960220
X2729839Y1982470
X2713839Y1980970
X2767089Y1974970
X2693689Y1929470
X2615839Y1942970
X3019037Y1849392
X3022089Y1797470
X3013695Y1797612
X3005089Y1797470
X2997089
X2988089
X2978089Y1797534
X3031089Y1797470
X3040089
X3036089Y1806470
X3064992Y1776241
X3067945Y1875326
X3091675Y1915598
X3038089Y1683470
X3012089Y1684470
X3014766Y1699793
X3003239Y2068570
X2967779Y2150901
X2960478Y2149382
X2961017Y2161484
X2969641Y2163297
X2976158Y2166237
X2972589Y2175470
X2964692Y2175057
X2957195Y2175155
X2959589Y2230470
X2948719Y2176919
X2943819Y2165159
X2952198Y2162709
X2953275Y2150362
X2895839Y2189220
X2888419Y2247236
X2897089Y2253720
X2877248Y2242460
X2865820Y2238111
X2855089Y2234470
X2850839Y2267220
X2838589Y2265720
X2864839Y2272470
X2875839Y2280720
X2884589Y2347220
X2817589Y2331970
X2812572Y2367229
X2805271Y2365710
X2798068Y2366690
X2796990Y2379037
X2805810Y2377812
X2814434Y2379626
X2748089Y2340970
X2747839Y2155970
X2821589Y2161970
X2676089Y2167470
X2722589Y2003970
X2727089Y1993470
X2715089Y1992970
X2741089Y1999220
X2746089Y1988970
X2761089Y1995970
X2750839Y2006220
X2734839Y2009470
X2948839Y2001970
X2423763Y2075470
X2345914Y2088970
X2316013Y2058220
X2299263Y2061470
X2293013Y2049720
X2282764Y2057220
X2272513Y2043470
X2278513Y2022470
X2288763Y2012220
X2298513Y2019220
X2293513Y2029470
X2309763Y2035970
X2312513Y2024970
X2324514Y2025470
X2325764Y2037470
X2317014Y2014470
X2304763Y2008970
X2255614Y2086970
X2170914Y2060970
X2169358Y2146023
X2180725Y2148743
X2189482Y2286230
X2294129Y2312392
X2404763Y2317470
X2478763Y2293470
X2153513Y2288970
X2100513Y2302970
X2094514Y2309970
X2024836Y2318647
X2027513Y2333970
X2001514Y2334970
X1999514Y2220970
X2008513
X2017513
X2025907Y2220829
X2034514Y2220970
X2042513
X2051514
X2061514Y2220906
X2104386Y2235264
X2119035Y2156345
X2127976Y2163889
X2140690Y2169757
X2151866Y2173250
X2159157Y2142040
X2147596Y2136988
X2138013Y2131220
X2020565Y2169048
X2003513Y2211970
X1974610Y2242199
X1971658Y2143114
X1947928Y2102842
X2090764Y2016470
X1703226Y2068570
X1667766Y2150901
X1660466Y2149382
X1653263Y2150362
X1652185Y2162709
X1661005Y2161484
X1669628Y2163297
X1676145Y2166237
X1672576Y2175470
X1664680Y2175057
X1657183Y2175155
X1648706Y2176919
X1643806Y2165159
X1595827Y2189220
X1588407Y2247236
X1597077Y2253720
X1577235Y2242460
X1565808Y2238111
X1555076Y2234470
X1550827Y2267220
X1538577Y2265720
X1564827Y2272470
X1575827Y2280720
X1584577Y2347220
X1517576Y2331970
X1512559Y2367229
X1505258Y2365710
X1498056Y2366690
X1496978Y2379037
X1505797Y2377812
X1514421Y2379626
X1448076Y2340970
X1447827Y2155970
X1521577Y2161970
X1376077Y2167470
X1422576Y2003970
X1427077Y1993470
X1415076Y1992970
X1441077Y1999220
X1446077Y1988970
X1461077Y1995970
X1450827Y2006220
X1434827Y2009470
X1648826Y2001970
X1659577Y2230470
X1646077Y2385470
X1520938Y2382565
X1517369Y2391798
X1509472Y2391385
X1501976Y2391483
X1493499Y2393247
X1488599Y2381487
X1542827Y2433220
X1548826Y2518970
X1576826Y2521220
X1535327Y2545970
X1524577Y2506970
X1496326Y2514220
X2165322Y2461910
X2172433Y2453274
X2793512Y2393247
X2801988Y2391483
X2809485Y2391385
X2817382Y2391798
X2820950Y2382565
X2788612Y2381487
X2842839Y2433220
X2848839Y2518970
X2876839Y2521220
X2835339Y2545970
X2824589Y2506970
X2796339Y2514220
X2946089Y2385470
T02
X1453076Y1646470
X1602115Y1658464
X1638076Y1683470
X1686077Y1684470
X1744077Y1834470
X2753089Y1646470
X2902127Y1658464
X2938089Y1683470
X2986089Y1684470
X3044089Y1834470
X2286514Y2371970
X2137475Y2359976
X2101514Y2334970
X2053513Y2333970
X1995513Y2183970
T03
X1660883Y1617236
X1686283
X1711682
X1737083
X1762482
X1787883
X2960895
X2986295
X3011695
X3037095
X3062495
X3087895
X2078707Y2401204
X2053307
X2027908
X2002507
X1977108
X1951707
T04
X2793987Y1508370
X2838987
X1538974
X1493974
Y1600570
X1538974
X2793987
X2838987
X2245616Y2417870
X2200616
Y2510070
X2245616
T05
X2198513Y1612970
X1541077Y2405470
X2841089
T06
X1200000Y2600000
X3210000Y2600000
T07
X2819671Y1441920
X2828307
X2835927
X2842839
X2849643
X2857263
X1557251
X1549630
X1542827
X1535914
X1528295
X1519659
X1235182Y1907136
X1233147Y1913908
X1231877Y1920766
X1230861Y1927370
X1230098Y1934990
X1229845Y1942864
X1853414Y1945658
X1853161Y1938800
X1852399Y1932196
X1851077Y1925470
X1850112Y1919242
X1848076Y1912470
X2027908Y1707530
X2026384Y1700418
X2025621Y1693814
X2025367Y1686956
X2025621Y1679082
X2026638Y1671716
X2370300Y1671970
X2371315Y1679336
X2371570Y1687210
X2371315Y1694068
X2370553Y1700672
X2369030Y1707784
X2535195Y1907136
X2533159Y1913908
X2531889Y1920766
X2530873Y1927370
X2530111Y1934990
X2529857Y1942864
X3153427Y1945658
X3153173Y1938800
X3152411Y1932196
X3151089Y1925470
X3150125Y1919242
X3148089Y1912470
X3011695Y2310910
X3013219Y2318022
X3013981Y2324626
X3014235Y2331484
X3013981Y2339358
X3012965Y2346724
X2669303Y2346470
X2668287Y2339104
X2668033Y2331230
X2668287Y2324372
X2669049Y2317768
X2670573Y2310656
X2504408Y2111304
X2506443Y2104532
X2507713Y2097674
X2508730Y2091070
X2509491Y2083450
X2509745Y2075576
X1886176Y2072782
X1886429Y2079640
X1887191Y2086244
X1888513Y2092970
X1889478Y2099198
X1891514Y2105970
X1711682Y2310910
X1713206Y2318022
X1713969Y2324626
X1714223Y2331484
X1713969Y2339358
X1712953Y2346724
X1369290Y2346470
X1368275Y2339104
X1368020Y2331230
X1368275Y2324372
X1369037Y2317768
X1370560Y2310656
X2182339Y2576520
X2189960
X2196763
X2203676
X2211295
X2219931
T08
X2833387Y1521470
Y1587470
X1533374
Y1521470
X2206216Y2430970
Y2496970
M30
